<svg xmlns="http://www.w3.org/2000/svg" viewBox="0 0 100.46 281.3"><title>discord</title><g id="discord_logo" data-name="discord logo"><path d="M27.32,183.23a5.94,5.94,0,0,0-6.11,6.15c0,13.11.1,26.22-.08,39.33,0,2.91,3.38,6.3,6.18,6.27q19.4-.24,38.79,0a6.62,6.62,0,0,0,6.9-6.88c-.15-10.14,0-20.28,0-30.43,0-2.42,0-2.41-2.44-1.84-.35.08-.72.07-1.44.14.32-.52.41-.74.56-.92,2.93-3.31,5.88-6.62,8.8-9.95.39-.44,1.17-.89.95-1.47-.29-.77-1.2-.36-1.81-.36Q52.45,183.22,27.32,183.23Zm29.77,11.09a13.16,13.16,0,0,1,2,5.51c.11,1.3-.83,1.51-1.44,1.82-.89.46-.76-.65-1-1.1a5.38,5.38,0,0,0-2.3-2.55h0c-.14-.31-.11-.75-.56-.83a.33.33,0,0,0-.24.19c-.08.43.22.66.51.88,1.12,3.3,2.65,6.48,2.67,10.11a26.59,26.59,0,0,1-2.4,10.17c-.22.54-.77,1-.44,1.82a9.29,9.29,0,0,0,3.2-4.59c2,1.29,2.38,2.51,1.65,4.5-.11.28-.33.53-.44.81-2.1,5.57-3.84,4.78-7.91,4.37s-7.56-2-11.24-3.33a3.46,3.46,0,0,1-2.1-3l.14-.16c.81.19.73,1.27,2,1.67a25.68,25.68,0,0,1-.27-22.34c-1.19.27-1.34,1-1.69,1.43s-.62,1-1,1.61c-.27-1.66,1.32-4.91,2.77-5.5a41.74,41.74,0,0,1,13.8-3.62A4.16,4.16,0,0,1,57.09,194.32Z"/><path d="M66.79,51.84c-.39.31-.93,1.4-1.53.22-1.49-2.92-4-4.16-7.1-4.54-5.43-.68-10.24,1.89-11.15,7.82-.65,4.24-.07,8.51-.33,12.75-.09,1.46.48,1.75,1.8,1.72,4.12-.07,8.25,0,12.37,0s8.37,0,12.56,0c1.29,0,2-.22,1.83-1.71a43.05,43.05,0,0,1,0-4.82c0-1.06-.37-1.4-1.39-1.37-2.15.05-4.31,0-6.46,0-.35,0-.81.13-1-.32s.29-.65.57-.86c.93-.7,1.86-1.4,2.83-2,5.39-3.6,5.4-3.59,5.4-10.1a10.28,10.28,0,0,0,0-1.11c-.07-.59.32-1.43-.28-1.7s-1.2.42-1.7.83C71.07,48.35,69,50.13,66.79,51.84Zm-7.13,5.73a14.59,14.59,0,0,1,0,1.48c0,2.87,0,2.87-2.8,2.87-.61,0-1.23,0-1.84,0a1.2,1.2,0,0,1-.81-.3c-1.09-1.42.21-5.91,1.84-6.41A2.8,2.8,0,0,1,59.66,57.57Z"/><path d="M55.34,73.05a7,7,0,0,0-4.15,1.22C47,77.15,45.1,84.05,47.05,89.43,48.72,94,51.41,97,57,96.54c1.28-.11,2.58,0,3.87,0,1.72,0,3.45,0,5.17,0,4.1.15,6.69-2,8.3-5.53a14.88,14.88,0,0,0,.43-11.44C73.57,76,70.2,72.65,65.66,73,62.24,73.26,58.78,73.05,55.34,73.05Zm13,10C69.4,86.72,67.73,89,64,89H57.71c-3.3,0-5.06-2.39-4.18-5.66.58-2.11,1.44-2.76,3.7-2.76,1.29,0,2.58,0,3.87,0s2.6.07,3.88,0C66.88,80.41,67.81,81.43,68.3,83.08Z"/><path d="M46.93,164.85c-.71,4.07-.15,8.26-.21,12.39,0,1,.73.83,1.32.83H58a1.8,1.8,0,0,0,1.51-.51q2.63-3,5.26-5.93c.25-.28.5-.58.34-1s-.62-.33-1-.33H57.7c-4.06,0-4.07,0-3.6-4.07a2.52,2.52,0,0,1,2.76-2.57c2.46,0,4.92,0,7.39,0,2.73,0,3.87,1.13,3.91,3.92,0,1.66,0,3.34,0,5s-.81,4.07.39,5.15,3.42.22,5.19.31a1.08,1.08,0,0,0,.18,0c1,.11,1.3-.34,1.28-1.29,0-1.85,0-3.71,0-5.56h-.11a59.94,59.94,0,0,0,0-6.29c-.46-4.4-3.07-8.18-7.95-8.81A56.09,56.09,0,0,0,57,155.9C50.87,156.23,48,158.79,46.93,164.85Z"/><path d="M65.65,22.25c-1.53.12-3.08,0-4.61,0h-4.8a8.9,8.9,0,0,0-8.92,7c-1.21,4.62-.37,9.33-.6,14-.06,1.08.76.92,1.41.92h9.78a1.82,1.82,0,0,0,1.63-.6c1.61-1.93,3.31-3.79,5-5.68.23-.27.66-.5.52-.9s-.73-.32-1.12-.33c-2.09,0-4.18,0-6.27,0-3.64,0-3.64,0-3.57-3.6.05-2.35.74-3,3.15-3h7c3.11,0,3.9.78,3.92,3.92,0,3,0,5.93,0,8.89,0,.9.2,1.39,1.23,1.36,1.53-.06,3.07,0,4.61,0,.84,0,1.24-.27,1.22-1.17-.06-4.07.12-8.16-.17-12.22C74.74,26.44,71.37,21.81,65.65,22.25Z"/><path d="M57.88,128.29c-.4,1.42-.57,2.9-1,4.32-.29,1-.87,2-2.08,2s-1.71-.91-2.09-1.82a2,2,0,0,1,.16-2c2.29-2.91,1.55-5.35-.84-7.83-.86-.9-1.16-.89-2-.13a12.69,12.69,0,0,0-2.85,14c1.52,3.32,3.78,5.73,7.85,5.61a8.44,8.44,0,0,0,8.1-5.56c.83-1.94,1.06-4,1.75-6,.28-.79.58-1.91,1.81-1.78s1.6,1.07,1.73,2.09a7.22,7.22,0,0,1-.64,4c-.5,1.09-2,1.94-1.66,3.08s1.6,1.8,2.44,2.7a14.28,14.28,0,0,1,1,1.28c.43.6.81.56,1.36.11,3-2.49,4.29-5.88,4.88-9.74-.3-1.34-.53-2.8-1-4.21-.87-2.8-2.28-5.46-5.22-6.24C63.94,120.62,59.66,122,57.88,128.29Z"/><path d="M68.28,99.25c-.61,1.4-1.15,2.85-1.89,4.19-.51.93-.42,1.28.54,1.82a4,4,0,0,1,1.43,4.45A3.34,3.34,0,0,1,64.78,112c-2.46,0-4.93,0-7.39,0-1.37,0-2.59-.15-3.31-1.5-.86-1.6-1-3.46.21-4.67,1.5-1.47,1.26-2.68.45-4.2a12.68,12.68,0,0,1-.65-1.72c-.72-1.9-1-2-2.79-.91a11,11,0,0,0-4.85,11.54c.94,4.42,3,8.08,7.82,9,2.14.41,4.42.07,6.63.07v.11c1.85,0,3.7.07,5.54,0a7.91,7.91,0,0,0,5.64-2.34,12.45,12.45,0,0,0-1.6-18.77C69.33,97.79,68.77,98.13,68.28,99.25Z"/><path d="M38.91,41.51c3.81,0,3.75,0,3.8-3.78,0-1.36-.32-1.85-1.74-1.79-2.67.11-5.35,0-8,0a54.92,54.92,0,0,1,7.41-5.88,4.51,4.51,0,0,0,2.37-4.69c-.12-1.28-.43-1.68-1.71-1.67-5.35.07-10.71,0-16.07,0-3.85,0-3.81,0-3.78,4,0,1.2.36,1.61,1.58,1.58,2.82-.08,5.65,0,8.48,0l.22.45c-2.72,2-5.36,4.06-8.18,5.88a4.11,4.11,0,0,0-2.12,4.25c.09,1.28.4,1.68,1.69,1.66C28.2,41.47,33.55,41.51,38.91,41.51Z"/><path d="M42.73,118.16c-.1-1.37-.43-1.79-1.81-1.77-5.47.07-11,0-16.43,0-3.3,0-3.2,0-3.33,3.34-.07,1.7.52,2.08,2.09,2,2.77-.12,5.56,0,8.88,0-3.31,2.42-6.05,4.62-9,6.49a4,4,0,0,0-2,3.94c0,1.54.54,1.83,1.93,1.81,5.23-.07,10.46,0,15.69,0,4.12,0,4.09,0,3.94-4.18,0-1.06-.39-1.39-1.41-1.37-2.77,0-5.53,0-8.3,0l-.12-.37c2.56-1.89,5.06-3.88,7.7-5.65A4.2,4.2,0,0,0,42.73,118.16Z"/><path d="M21.17,154.77a8.49,8.49,0,0,0,1.37,5.1A11.48,11.48,0,0,0,38,163.24c3.74-2.35,5.57-6.21,4.77-10-1.3-6.14-7.68-9.74-14-7.9C24.06,146.7,21.18,150.27,21.17,154.77Zm13-4.06c2.25.72,3.37,2.14,3.33,4.3s-1.13,3.39-3.42,4a11.14,11.14,0,0,1-1.73.25,7.44,7.44,0,0,1-3.33-.54,4.06,4.06,0,0,1-2.61-4.1,4.19,4.19,0,0,1,3.06-3.8A7.21,7.21,0,0,1,34.2,150.71Z"/><path d="M22,49.73c-3.09,6.69,2,14.06,9.81,14.1,5.16,0,9.64-3,10.81-7.35a9.83,9.83,0,0,0-5-11.26C32.2,42.14,24.48,44.37,22,49.73Zm15.53,3.88c.08,3-2,4.68-5.55,4.67H31.8c-3.27-.06-5.46-1.92-5.39-4.56.07-2.46,2.42-4.34,5.47-4.37C35.13,49.31,37.46,51.07,37.53,53.61Z"/><path d="M35.57,106.86c4.49-.79,7.29-3.92,7.41-8.16.13-4.64-2.34-7.8-6.92-9-2.56-.64-5.15-.21-7.32-.36H25.2c-4.15,0-4.11,0-4,4.1,0,1.16.42,1.47,1.51,1.45,3.33,0,6.65,0,10,0a6.39,6.39,0,0,1,3.06.55,3,3,0,0,1,1.84,2.94,2.88,2.88,0,0,1-1.92,2.68,7.29,7.29,0,0,1-3.06.59c-3.32,0-6.65,0-10,0-.67,0-1.42-.1-1.4,1,0,1.23,0,2.47,0,3.71,0,.63.33.88.92.86C26.61,107.06,31.12,107.64,35.57,106.86Z"/><path d="M29.76,76.47c-.22.58-.35,1.19-.61,1.75-.48,1-.49,3-2.06,2.45s-.55-2.24-.3-3.46,1.7-2.19,1.09-3.11S25.76,73,24.7,72.38s-1.49-.43-2,.63a14.07,14.07,0,0,0-1.55,7.15,7,7,0,0,0,5.17,6.25c3.85.73,6-.29,7.58-3.62.51-1.11.86-2.31,1.3-3.46a11.33,11.33,0,0,1,.69-1.5.89.89,0,0,1,.91-.52c.51.08.67.49.71.94A8.69,8.69,0,0,1,37,81.89c-.39,1.13-1.83,2.22-1.14,3.27.58.89,2.12,1.11,3.19,1.7s1.8.37,2.31-.81A17.92,17.92,0,0,0,43,78.89c0-4.33-1.85-6.78-5.61-7.5C33.81,70.71,31.29,72.37,29.76,76.47Z"/><path d="M60.93,145.38c-4.25,0-8.49,0-12.74,0-1.08,0-1.57.27-1.51,1.45.08,1.6.06,3.21,0,4.82,0,1,.31,1.29,1.27,1.29q13,0,26,0c1,0,1.27-.43,1.25-1.34,0-1.54-.08-3.09,0-4.63.06-1.21-.37-1.61-1.58-1.59C69.42,145.42,65.17,145.38,60.93,145.38Z"/><path d="M36.87,167.31c-3.93-.43-7.86-.24-11.79-.28s-3.95,0-3.91,4c0,1.29.49,1.56,1.63,1.52,1.91-.08,3.82,0,5.73,0v0c2.09,0,4.19-.1,6.27,0,2.49.16,3.63,1.51,2.79,3.62s.08,2.42,1.69,2.65c.48.06.95.23,1.43.34a1.42,1.42,0,0,0,1.69-.76C45.06,174,42,167.88,36.87,167.31Z"/><path d="M42.7,138.64c0-1.06-.38-1.38-1.4-1.36-3.13.05-6.26,0-9.39,0H25.09c-4,0-3.95,0-3.92,4,0,1.23.39,1.58,1.58,1.57,5.34-.06,10.69,0,16,0C42.88,142.82,42.84,142.82,42.7,138.64Z"/><path d="M45.67,214.38A3.3,3.3,0,0,0,49,217.43a3.25,3.25,0,0,0,3.29-3.23,3.34,3.34,0,0,0-3.36-3A3.44,3.44,0,0,0,45.67,214.38Z"/><path d="M45.67,203.77a3.34,3.34,0,0,0,3.44,2.94,3,3,0,1,0-.22-6.05A3.09,3.09,0,0,0,45.67,203.77Z"/><path d="M39.09,221.07s.1-.06.11-.1-.06-.07-.09-.11L39,221Z"/></g></svg>