<svg xmlns="http://www.w3.org/2000/svg" viewBox="0 0 770.23 281.53"><defs><style>.cls-1{fill:none;stroke:#000;stroke-miterlimit:10;stroke-width:2px;}</style></defs><title>image</title><g id="image_rectangle" data-name="image rectangle"><rect class="cls-1" x="31.83" y="36.9" width="706.57" height="202.5"/><path d="M300.86,134.64v6.69h2.56v1.16h-6.57v-1.16h2.67v-5.52h-2.67v-1.17Zm-1.46-2.38a.65.65,0,0,1,.17-.26.49.49,0,0,1,.24-.15.9.9,0,0,1,.34-.06.81.81,0,0,1,.33.06.49.49,0,0,1,.24.15.58.58,0,0,1,.18.25.88.88,0,0,1,.05.33.76.76,0,0,1-.2.55.78.78,0,0,1-.6.22.82.82,0,0,1-.61-.22.81.81,0,0,1-.2-.55A.87.87,0,0,1,299.4,132.26Z"/><path d="M306.27,135.38a1.66,1.66,0,0,1,.62-.64,1.75,1.75,0,0,1,.94-.24,1.91,1.91,0,0,1,.56.07,1.19,1.19,0,0,1,.44.2,1.13,1.13,0,0,1,.25.24,1.81,1.81,0,0,1,.2.33,1.39,1.39,0,0,1,.23-.31,2.43,2.43,0,0,1,.3-.26,2.11,2.11,0,0,1,.46-.19,1.8,1.8,0,0,1,.54-.08,2.07,2.07,0,0,1,.73.12,1.52,1.52,0,0,1,.56.35,1.64,1.64,0,0,1,.37.68,3.19,3.19,0,0,1,.13,1v5.86h-1.27v-5.87a1.46,1.46,0,0,0-.06-.44.78.78,0,0,0-.17-.31.57.57,0,0,0-.28-.17,1.25,1.25,0,0,0-.4-.06,1.22,1.22,0,0,0-.41.06.76.76,0,0,0-.29.18.68.68,0,0,0-.18.26.9.9,0,0,0-.09.33v6h-1.28v-5.88a1.9,1.9,0,0,0-.05-.44.78.78,0,0,0-.17-.31.69.69,0,0,0-.27-.17,1.48,1.48,0,0,0-.39-.05,1.64,1.64,0,0,0-.41.05.86.86,0,0,0-.3.16.73.73,0,0,0-.17.18,1.51,1.51,0,0,0-.11.22v6.24H305v-7.85h1.2Z"/><path d="M319.62,142.11a2.42,2.42,0,0,1-.07-.47,4.43,4.43,0,0,1-.46.38,2.94,2.94,0,0,1-.55.32,4,4,0,0,1-.64.22,3.38,3.38,0,0,1-.72.08,3.08,3.08,0,0,1-1.13-.19,2.44,2.44,0,0,1-.85-.49,2,2,0,0,1-.55-.73,2.16,2.16,0,0,1-.2-.91,2.46,2.46,0,0,1,.26-1.14,2.35,2.35,0,0,1,.73-.81,3.59,3.59,0,0,1,1.14-.48,6.64,6.64,0,0,1,1.48-.16h1.47v-.61a1.47,1.47,0,0,0-.14-.64A1.35,1.35,0,0,0,319,136a1.59,1.59,0,0,0-.58-.3,2.65,2.65,0,0,0-.77-.11,2.28,2.28,0,0,0-.72.1,1.88,1.88,0,0,0-.53.27,1.26,1.26,0,0,0-.34.39,1.07,1.07,0,0,0-.12.48h-1.34a1.7,1.7,0,0,1,.22-.84,2.4,2.4,0,0,1,.61-.75,3.39,3.39,0,0,1,1-.53,4.1,4.1,0,0,1,1.31-.2,4.43,4.43,0,0,1,1.24.16,2.87,2.87,0,0,1,1,.49,2.34,2.34,0,0,1,.66.83,2.6,2.6,0,0,1,.24,1.15v3.65a4.89,4.89,0,0,0,.07.83,3.48,3.48,0,0,0,.2.76v.12h-1.4A1.55,1.55,0,0,1,319.62,142.11Zm-1.52-.74a3,3,0,0,0,.63-.27,2.23,2.23,0,0,0,.47-.38,1.73,1.73,0,0,0,.33-.45v-1.59h-1.25a5.47,5.47,0,0,0-1.22.12,2.08,2.08,0,0,0-.82.37,1.07,1.07,0,0,0-.33.41,1.2,1.2,0,0,0-.11.55,1.51,1.51,0,0,0,.09.53,1.08,1.08,0,0,0,.3.42,1.39,1.39,0,0,0,.49.29,2.39,2.39,0,0,0,.69.1A2.86,2.86,0,0,0,318.1,141.37Z"/><path d="M323.53,136.89a3.67,3.67,0,0,1,.62-1.27,2.81,2.81,0,0,1,2.3-1.12,2.94,2.94,0,0,1,.86.11,2.59,2.59,0,0,1,.72.32,2.39,2.39,0,0,1,.33.25,3,3,0,0,1,.29.32l.06-.86h1.22v7.68a3.7,3.7,0,0,1-.24,1.38,2.9,2.9,0,0,1-.68,1,2.68,2.68,0,0,1-1.05.64,3.86,3.86,0,0,1-1.35.22,3.66,3.66,0,0,1-.69-.07,3.44,3.44,0,0,1-.8-.23,3.36,3.36,0,0,1-.77-.41,2.51,2.51,0,0,1-.65-.65l.7-.8a2.67,2.67,0,0,0,.51.5,2.32,2.32,0,0,0,.53.33,2.21,2.21,0,0,0,.53.18,2.48,2.48,0,0,0,.54.06,2.54,2.54,0,0,0,.86-.14,1.72,1.72,0,0,0,.66-.41,1.74,1.74,0,0,0,.42-.65,2.74,2.74,0,0,0,.14-.9v-.67a3.11,3.11,0,0,1-.32.31,1.9,1.9,0,0,1-.37.26,2.83,2.83,0,0,1-.67.26,3.44,3.44,0,0,1-.8.09,2.8,2.8,0,0,1-1.3-.31,2.91,2.91,0,0,1-1-.84,3.86,3.86,0,0,1-.62-1.27,5.23,5.23,0,0,1-.22-1.57v-.15A5.5,5.5,0,0,1,323.53,136.89Zm1.24,2.85a2.77,2.77,0,0,0,.38.91,1.84,1.84,0,0,0,1.61.85,2,2,0,0,0,.63-.09,1.69,1.69,0,0,0,.51-.23,2.19,2.19,0,0,0,.39-.36,3.15,3.15,0,0,0,.3-.47v-3.6a3.52,3.52,0,0,0-.3-.45,2.23,2.23,0,0,0-.4-.35,2.07,2.07,0,0,0-.5-.23,2,2,0,0,0-.61-.08,1.85,1.85,0,0,0-1.63.85,2.92,2.92,0,0,0-.38.92,4.86,4.86,0,0,0-.12,1.09v.15A4.73,4.73,0,0,0,324.77,139.74Z"/><path d="M334.48,142.35a3.49,3.49,0,0,1-1.19-.79,3.56,3.56,0,0,1-.76-1.2,4,4,0,0,1-.28-1.52v-.3a4.56,4.56,0,0,1,.3-1.7,4.08,4.08,0,0,1,.82-1.28,3.59,3.59,0,0,1,1.14-.79,3.34,3.34,0,0,1,1.31-.27,3.63,3.63,0,0,1,1.49.29,3,3,0,0,1,1.05.81,3.58,3.58,0,0,1,.63,1.23,5.27,5.27,0,0,1,.21,1.52v.6h-5.61V139a3.33,3.33,0,0,0,.23,1,2.47,2.47,0,0,0,.49.77,2.28,2.28,0,0,0,.77.56,2.47,2.47,0,0,0,1,.2,2.71,2.71,0,0,0,2.21-1.06l.82.64a3.62,3.62,0,0,1-1.18,1.06,3.79,3.79,0,0,1-1.92.46A4,4,0,0,1,334.48,142.35Zm.58-6.6a2,2,0,0,0-.66.43,2.7,2.7,0,0,0-.49.71,3.73,3.73,0,0,0-.28,1h4.23v-.07a2.58,2.58,0,0,0-.14-.78,2.5,2.5,0,0,0-.39-.72,1.87,1.87,0,0,0-1.51-.68A1.94,1.94,0,0,0,335.06,135.75Z"/><path d="M355.51,142.11a3.54,3.54,0,0,1-.07-.47,4.43,4.43,0,0,1-.46.38,3.2,3.2,0,0,1-.54.32,4.51,4.51,0,0,1-.65.22,3.38,3.38,0,0,1-.72.08,3.12,3.12,0,0,1-1.13-.19,2.44,2.44,0,0,1-.85-.49,2,2,0,0,1-.55-.73,2.15,2.15,0,0,1-.19-.91,2.21,2.21,0,0,1,1-1.95,3.7,3.7,0,0,1,1.14-.48,6.64,6.64,0,0,1,1.48-.16h1.47v-.61a1.62,1.62,0,0,0-.13-.64,1.48,1.48,0,0,0-.37-.49,1.73,1.73,0,0,0-.59-.3,2.6,2.6,0,0,0-.77-.11,2.21,2.21,0,0,0-.71.1,1.82,1.82,0,0,0-.54.27,1.26,1.26,0,0,0-.34.39,1.05,1.05,0,0,0-.11.48h-1.35a1.7,1.7,0,0,1,.22-.84,2.3,2.3,0,0,1,.62-.75,3.21,3.21,0,0,1,1-.53,4.1,4.1,0,0,1,1.31-.2,4.43,4.43,0,0,1,1.24.16,2.92,2.92,0,0,1,1,.49,2.43,2.43,0,0,1,.65.83,2.6,2.6,0,0,1,.24,1.15v3.65a4.89,4.89,0,0,0,.07.83,4.16,4.16,0,0,0,.2.76v.12h-1.4A1.55,1.55,0,0,1,355.51,142.11Zm-1.52-.74a3,3,0,0,0,.63-.27,2.59,2.59,0,0,0,.48-.38,2,2,0,0,0,.32-.45v-1.59h-1.25a5.47,5.47,0,0,0-1.22.12,2.08,2.08,0,0,0-.82.37,1.17,1.17,0,0,0-.33.41,1.35,1.35,0,0,0-.11.55,1.32,1.32,0,0,0,.1.53,1,1,0,0,0,.29.42,1.39,1.39,0,0,0,.49.29,2.39,2.39,0,0,0,.69.1A2.8,2.8,0,0,0,354,141.37Z"/><path d="M358.9,134.64h1.38l2.25,5.92.12.49.13-.49,2.2-5.92h1.37l-3.2,7.85h-1Z"/><path d="M373.45,142.11c0-.15-.05-.31-.07-.47a3.46,3.46,0,0,1-.45.38,3.3,3.3,0,0,1-.55.32,4.38,4.38,0,0,1-.64.22,3.4,3.4,0,0,1-.73.08,3.15,3.15,0,0,1-1.13-.19A2.63,2.63,0,0,1,369,142a2,2,0,0,1-.55-.73,2.32,2.32,0,0,1-.19-.91,2.46,2.46,0,0,1,.26-1.14,2.25,2.25,0,0,1,.73-.81,3.54,3.54,0,0,1,1.13-.48,6.81,6.81,0,0,1,1.49-.16h1.46v-.61a1.43,1.43,0,0,0-.5-1.13,1.68,1.68,0,0,0-.58-.3,2.65,2.65,0,0,0-.77-.11,2.28,2.28,0,0,0-.72.1,1.76,1.76,0,0,0-.53.27,1.14,1.14,0,0,0-.34.39,1.07,1.07,0,0,0-.12.48h-1.35a2,2,0,0,1,.22-.84,2.44,2.44,0,0,1,.62-.75,3.26,3.26,0,0,1,1-.53,4.05,4.05,0,0,1,1.31-.2,4.48,4.48,0,0,1,1.24.16,2.87,2.87,0,0,1,1,.49,2.31,2.31,0,0,1,.65.83,2.6,2.6,0,0,1,.24,1.15v3.65a5,5,0,0,0,.08.83,3.48,3.48,0,0,0,.2.76v.12h-1.4A1.53,1.53,0,0,1,373.45,142.11Zm-1.51-.74a2.7,2.7,0,0,0,.62-.27,2.06,2.06,0,0,0,.48-.38,1.49,1.49,0,0,0,.32-.45v-1.59h-1.24a5.47,5.47,0,0,0-1.22.12,2,2,0,0,0-.82.37,1.07,1.07,0,0,0-.33.41,1.2,1.2,0,0,0-.12.55,1.51,1.51,0,0,0,.1.53,1.08,1.08,0,0,0,.3.42,1.39,1.39,0,0,0,.49.29,2.39,2.39,0,0,0,.69.1A2.86,2.86,0,0,0,371.94,141.37Z"/><path d="M381.62,134.64v6.69h2.56v1.16h-6.57v-1.16h2.67v-5.52h-2.67v-1.17Zm-1.46-2.38a.56.56,0,0,1,.17-.26.49.49,0,0,1,.24-.15.9.9,0,0,1,.34-.06.88.88,0,0,1,.33.06.49.49,0,0,1,.24.15.49.49,0,0,1,.17.25.88.88,0,0,1,.06.33.81.81,0,1,1-1.61,0A.87.87,0,0,1,380.16,132.26Z"/><path d="M390.59,131.35v10h2.56v1.16h-6.57v-1.16h2.67v-8.81h-2.67v-1.17Z"/><path d="M400.37,142.11c0-.15-.05-.31-.07-.47a3.46,3.46,0,0,1-.45.38,3.3,3.3,0,0,1-.55.32,4.38,4.38,0,0,1-.64.22,3.4,3.4,0,0,1-.73.08,3.15,3.15,0,0,1-1.13-.19A2.53,2.53,0,0,1,396,142a2,2,0,0,1-.55-.73,2.32,2.32,0,0,1-.19-.91,2.46,2.46,0,0,1,.26-1.14,2.25,2.25,0,0,1,.73-.81,3.54,3.54,0,0,1,1.13-.48,6.81,6.81,0,0,1,1.49-.16h1.46v-.61a1.43,1.43,0,0,0-.5-1.13,1.68,1.68,0,0,0-.58-.3,2.65,2.65,0,0,0-.77-.11,2.28,2.28,0,0,0-.72.1,1.76,1.76,0,0,0-.53.27,1.14,1.14,0,0,0-.34.39,1.07,1.07,0,0,0-.12.48h-1.35a2,2,0,0,1,.22-.84,2.3,2.3,0,0,1,.62-.75,3.26,3.26,0,0,1,1-.53,4.05,4.05,0,0,1,1.31-.2,4.48,4.48,0,0,1,1.24.16,2.87,2.87,0,0,1,1,.49,2.31,2.31,0,0,1,.65.83,2.6,2.6,0,0,1,.24,1.15v3.65a5,5,0,0,0,.08.83,3,3,0,0,0,.2.76v.12h-1.4A1.53,1.53,0,0,1,400.37,142.11Zm-1.51-.74a2.9,2.9,0,0,0,.62-.27,2.06,2.06,0,0,0,.48-.38,1.69,1.69,0,0,0,.32-.45v-1.59H399a5.41,5.41,0,0,0-1.22.12,2,2,0,0,0-.82.37,1.07,1.07,0,0,0-.33.41,1.2,1.2,0,0,0-.12.55,1.51,1.51,0,0,0,.1.53,1,1,0,0,0,.3.42,1.39,1.39,0,0,0,.49.29,2.39,2.39,0,0,0,.69.1A2.86,2.86,0,0,0,398.86,141.37Z"/><path d="M410.89,139.64a4.64,4.64,0,0,1-.22.89,3.79,3.79,0,0,1-.51,1,2.71,2.71,0,0,1-.76.71,3.17,3.17,0,0,1-.7.31,3.07,3.07,0,0,1-.82.11,3,3,0,0,1-.93-.13,2.59,2.59,0,0,1-.75-.35,2.43,2.43,0,0,1-.3-.26,2.68,2.68,0,0,1-.28-.3l-.06.89h-1.24V131.35h1.35v4.13a2.65,2.65,0,0,1,.37-.38,2.49,2.49,0,0,1,.43-.29,2.55,2.55,0,0,1,.64-.23,3.52,3.52,0,0,1,.75-.08,2.85,2.85,0,0,1,.94.14,2.91,2.91,0,0,1,.77.38,2.7,2.7,0,0,1,.56.56,4.13,4.13,0,0,1,.44.74,4.79,4.79,0,0,1,.3,1,7.28,7.28,0,0,1,.1,1.17v.15A6.2,6.2,0,0,1,410.89,139.64Zm-1.31-1.86a4.27,4.27,0,0,0-.14-.66,3.32,3.32,0,0,0-.34-.71,1.76,1.76,0,0,0-.52-.5,2.22,2.22,0,0,0-.47-.2,2.1,2.1,0,0,0-.58-.07,2.15,2.15,0,0,0-.64.09,1.92,1.92,0,0,0-.52.25,1.85,1.85,0,0,0-.4.39,2,2,0,0,0-.3.48v3.43a3,3,0,0,0,.3.48,2.16,2.16,0,0,0,.41.39,1.87,1.87,0,0,0,.53.26,2.08,2.08,0,0,0,.63.09,1.91,1.91,0,0,0,.61-.09,1.45,1.45,0,0,0,.5-.24,1.8,1.8,0,0,0,.48-.51,2.61,2.61,0,0,0,.31-.7,3,3,0,0,0,.14-.62,5.22,5.22,0,0,0,0-.69v-.15A5.69,5.69,0,0,0,409.58,137.78Z"/><path d="M417.51,131.35v10h2.56v1.16H413.5v-1.16h2.67v-8.81H413.5v-1.17Z"/><path d="M424.21,142.35a3.49,3.49,0,0,1-1.19-.79,3.74,3.74,0,0,1-.77-1.2,4.19,4.19,0,0,1-.27-1.52v-.3a4.56,4.56,0,0,1,.3-1.7,4.08,4.08,0,0,1,.82-1.28,3.59,3.59,0,0,1,1.14-.79,3.38,3.38,0,0,1,1.31-.27,3.6,3.6,0,0,1,1.49.29,3,3,0,0,1,1,.81,3.58,3.58,0,0,1,.63,1.23,5.27,5.27,0,0,1,.21,1.52v.6h-5.61V139a3.33,3.33,0,0,0,.23,1,2.47,2.47,0,0,0,.49.77,2.28,2.28,0,0,0,.77.56,2.47,2.47,0,0,0,1,.2,2.71,2.71,0,0,0,2.21-1.06l.82.64a3.62,3.62,0,0,1-1.18,1.06,3.79,3.79,0,0,1-1.92.46A4,4,0,0,1,424.21,142.35Zm.58-6.6a2,2,0,0,0-.66.43,2.7,2.7,0,0,0-.49.71,3.73,3.73,0,0,0-.28,1h4.23v-.07a2.58,2.58,0,0,0-.14-.78,2.28,2.28,0,0,0-.39-.72,1.87,1.87,0,0,0-1.51-.68A1.94,1.94,0,0,0,424.79,135.75Z"/><path d="M445.33,140a.88.88,0,0,0-.32-.35,2.39,2.39,0,0,0-.6-.3,5.73,5.73,0,0,0-.92-.24,9.1,9.1,0,0,1-1.23-.33,3.6,3.6,0,0,1-.94-.48,2,2,0,0,1-.62-.63,1.68,1.68,0,0,1-.22-.85,1.88,1.88,0,0,1,.23-.9,2.29,2.29,0,0,1,.63-.73,3.27,3.27,0,0,1,1-.49,4,4,0,0,1,1.23-.18,4.1,4.1,0,0,1,1.31.19,3,3,0,0,1,1,.52,2.21,2.21,0,0,1,.62.78,2.11,2.11,0,0,1,.22,1h-1.34a1,1,0,0,0-.13-.5,1.62,1.62,0,0,0-.36-.43,1.76,1.76,0,0,0-.56-.3,2.19,2.19,0,0,0-.75-.12,2.48,2.48,0,0,0-.75.1,1.53,1.53,0,0,0-.53.25,1.28,1.28,0,0,0-.33.37,1,1,0,0,0-.11.43.93.93,0,0,0,.09.42.79.79,0,0,0,.31.32,2.17,2.17,0,0,0,.57.27c.24.07.54.15.91.22a10.78,10.78,0,0,1,1.29.35,3.51,3.51,0,0,1,1,.48,2,2,0,0,1,.6.65,1.71,1.71,0,0,1,.2.86,1.94,1.94,0,0,1-.23,1,2.4,2.4,0,0,1-.66.73,3.15,3.15,0,0,1-1,.47,4.72,4.72,0,0,1-1.28.17,4.41,4.41,0,0,1-1.42-.22,3.1,3.1,0,0,1-1.05-.57,2.46,2.46,0,0,1-.67-.81,2.19,2.19,0,0,1-.23-1h1.35a1.38,1.38,0,0,0,.22.69,1.62,1.62,0,0,0,.48.46,1.93,1.93,0,0,0,.63.25,4,4,0,0,0,.69.07,3,3,0,0,0,.94-.13,1.48,1.48,0,0,0,.62-.35,1,1,0,0,0,.21-.31.81.81,0,0,0,.07-.35A1,1,0,0,0,445.33,140Z"/><path d="M449.05,136.92a3.67,3.67,0,0,1,.71-1.27,3.21,3.21,0,0,1,1.12-.84,3.74,3.74,0,0,1,3,0,3.25,3.25,0,0,1,1.13.84,4,4,0,0,1,.71,1.27,5,5,0,0,1,.24,1.57v.16a5,5,0,0,1-.24,1.58,4.08,4.08,0,0,1-.71,1.26,3.21,3.21,0,0,1-1.12.84,3.76,3.76,0,0,1-3,0,3.21,3.21,0,0,1-1.12-.84,3.71,3.71,0,0,1-.71-1.26,5,5,0,0,1-.25-1.58v-.16A5,5,0,0,1,449.05,136.92Zm1.23,2.84a2.88,2.88,0,0,0,.42.92,2.14,2.14,0,0,0,.7.64,2.06,2.06,0,0,0,1,.23,2,2,0,0,0,1-.23,2.14,2.14,0,0,0,.7-.64,2.86,2.86,0,0,0,.41-.92,4.44,4.44,0,0,0,.14-1.11v-.16a4.34,4.34,0,0,0-.14-1.09,3.3,3.3,0,0,0-.42-.93,2.11,2.11,0,0,0-.7-.63,2.1,2.1,0,0,0-1.95,0,2.18,2.18,0,0,0-.69.63,3,3,0,0,0-.42.93,4.34,4.34,0,0,0-.13,1.09v.16A4.44,4.44,0,0,0,450.28,139.76Z"/><path d="M458,136.92a3.83,3.83,0,0,1,.71-1.27,3.21,3.21,0,0,1,1.12-.84,3.43,3.43,0,0,1,1.49-.31,3.5,3.5,0,0,1,1.5.31,3.21,3.21,0,0,1,1.12.84,3.83,3.83,0,0,1,.71,1.27,5,5,0,0,1,.24,1.57v.16a5,5,0,0,1-.24,1.58,3.89,3.89,0,0,1-.71,1.26,3.21,3.21,0,0,1-1.12.84,3.74,3.74,0,0,1-3,0,3.16,3.16,0,0,1-1.13-.84,3.89,3.89,0,0,1-.71-1.26,5,5,0,0,1-.24-1.58v-.16A5,5,0,0,1,458,136.92Zm1.24,2.84a2.68,2.68,0,0,0,.42.92,2,2,0,0,0,.69.64,2.06,2.06,0,0,0,1,.23,2,2,0,0,0,1-.23,2.14,2.14,0,0,0,.7-.64,2.86,2.86,0,0,0,.41-.92,4,4,0,0,0,.14-1.11v-.16a3.93,3.93,0,0,0-.14-1.09,2.82,2.82,0,0,0-.42-.93,2.11,2.11,0,0,0-.7-.63,1.89,1.89,0,0,0-1-.24,1.86,1.86,0,0,0-1,.24,2,2,0,0,0-.69.63,2.82,2.82,0,0,0-.42.93,3.93,3.93,0,0,0-.14,1.09v.16A4,4,0,0,0,459.26,139.76Z"/><path d="M467.13,134.64h1.2l.1,1.16a3.23,3.23,0,0,1,.38-.45,2.42,2.42,0,0,1,.43-.36,3.53,3.53,0,0,1,.76-.36,3.1,3.1,0,0,1,.87-.13,3.6,3.6,0,0,1,1.12.17,2.16,2.16,0,0,1,.86.55,2.41,2.41,0,0,1,.55.94,4.19,4.19,0,0,1,.19,1.35v5h-1.34v-5a2.86,2.86,0,0,0-.12-.89,1.32,1.32,0,0,0-.9-.91,2.5,2.5,0,0,0-.76-.1,2.17,2.17,0,0,0-.69.1,2.49,2.49,0,0,0-.59.29,2.79,2.79,0,0,0-.4.37,2.51,2.51,0,0,0-.32.46v5.63h-1.34Z"/></g></svg>