<svg xmlns="http://www.w3.org/2000/svg" xmlns:xlink="http://www.w3.org/1999/xlink" viewBox="0 0 752.39 720.8"><defs><style>.cls-1{fill:#181f23;}</style></defs><title>pam</title><g id="PamAvatar"><image width="2048" height="2048" transform="translate(0 -31.59) scale(0.37)" xlink:href="Untitled_Artwork%20120.png"/><path class="cls-1" d="M552.48,291.33H448.65V243H552.48ZM450,290h101.1V244.31H450Z"/><path class="cls-1" d="M506.61,260.75a4.41,4.41,0,0,1-1.54-1,4.69,4.69,0,0,1-1-1.56,5.46,5.46,0,0,1-.35-2v-.4a5.87,5.87,0,0,1,.39-2.2,5.3,5.3,0,0,1,1.05-1.65,4.65,4.65,0,0,1,1.48-1,4.69,4.69,0,0,1,3.63,0,3.75,3.75,0,0,1,1.37,1,4.64,4.64,0,0,1,.81,1.58,7,7,0,0,1,.27,2v.78h-7.26v.06a4.51,4.51,0,0,0,.29,1.31,3.31,3.31,0,0,0,.64,1,2.9,2.9,0,0,0,1,.73,3.2,3.2,0,0,0,1.29.26,3.52,3.52,0,0,0,1.65-.38,3.66,3.66,0,0,0,1.21-1l1.06.83a4.63,4.63,0,0,1-1.52,1.36,4.81,4.81,0,0,1-2.49.6A5,5,0,0,1,506.61,260.75Zm.74-8.55a2.58,2.58,0,0,0-.84.56,3.44,3.44,0,0,0-.64.91,4.47,4.47,0,0,0-.36,1.25H511v-.09a3.22,3.22,0,0,0-.18-1,2.77,2.77,0,0,0-.5-.93,2.41,2.41,0,0,0-.8-.64,2.57,2.57,0,0,0-1.15-.24A2.62,2.62,0,0,0,507.35,252.2Z"/><path class="cls-1" d="M522.26,257.68a1.17,1.17,0,0,0-.41-.46,3.24,3.24,0,0,0-.77-.38,8.64,8.64,0,0,0-1.19-.32,10.13,10.13,0,0,1-1.59-.43,5,5,0,0,1-1.23-.61,2.5,2.5,0,0,1-.8-.82,2.12,2.12,0,0,1-.28-1.1,2.5,2.5,0,0,1,.29-1.17,3,3,0,0,1,.82-.94,4.21,4.21,0,0,1,1.25-.64,5.43,5.43,0,0,1,1.6-.23,5.52,5.52,0,0,1,1.69.24,3.81,3.81,0,0,1,1.28.68,3,3,0,0,1,.81,1,2.63,2.63,0,0,1,.29,1.24h-1.74a1.25,1.25,0,0,0-.17-.64,1.78,1.78,0,0,0-.47-.56,2.47,2.47,0,0,0-.72-.39,3,3,0,0,0-1-.15,3.52,3.52,0,0,0-1,.12,2,2,0,0,0-.69.33,1.2,1.2,0,0,0-.42.48,1.13,1.13,0,0,0,.36,1.52,3.22,3.22,0,0,0,.74.34,12,12,0,0,0,1.18.29,13.44,13.44,0,0,1,1.68.45,5.2,5.2,0,0,1,1.25.62,2.58,2.58,0,0,1,.78.84,2.22,2.22,0,0,1,.26,1.11,2.54,2.54,0,0,1-.3,1.23,2.85,2.85,0,0,1-.85,1,4.07,4.07,0,0,1-1.31.61,5.8,5.8,0,0,1-1.66.22,5.51,5.51,0,0,1-1.84-.28,4.12,4.12,0,0,1-1.36-.74,3,3,0,0,1-.86-1.05,2.77,2.77,0,0,1-.3-1.25h1.74a1.69,1.69,0,0,0,.29.9,1.87,1.87,0,0,0,.62.6,2.7,2.7,0,0,0,.82.32,4.56,4.56,0,0,0,.89.09,4.33,4.33,0,0,0,1.21-.16,2,2,0,0,0,.81-.46,1.18,1.18,0,0,0,.27-.4,1.15,1.15,0,0,0,.1-.46A1.12,1.12,0,0,0,522.26,257.68Z"/><path class="cls-1" d="M532.42,259.56a2.65,2.65,0,0,0,.8-.42,2.23,2.23,0,0,0,.56-.63,1.64,1.64,0,0,0,.22-.78h1.64a2.61,2.61,0,0,1-.35,1.29,3.58,3.58,0,0,1-.91,1.07,4.52,4.52,0,0,1-1.32.75,4.3,4.3,0,0,1-1.55.28,4.73,4.73,0,0,1-2-.41,4.12,4.12,0,0,1-1.44-1.12,4.65,4.65,0,0,1-.87-1.61,6.18,6.18,0,0,1-.29-1.93v-.4a6.23,6.23,0,0,1,.29-1.93,4.69,4.69,0,0,1,.87-1.62,4.21,4.21,0,0,1,1.44-1.11,5.13,5.13,0,0,1,3.68-.13,4.18,4.18,0,0,1,1.31.78,3.52,3.52,0,0,1,.85,1.17,3.4,3.4,0,0,1,.31,1.45H534a2.31,2.31,0,0,0-.2-.87,2.65,2.65,0,0,0-.52-.72,2.52,2.52,0,0,0-.79-.49,3,3,0,0,0-2.34.15,2.86,2.86,0,0,0-.89.84,3.8,3.8,0,0,0-.48,1.17,5.85,5.85,0,0,0-.15,1.31v.4a5.94,5.94,0,0,0,.15,1.32,3.8,3.8,0,0,0,.48,1.17,2.65,2.65,0,0,0,.88.85,2.72,2.72,0,0,0,1.37.32A2.8,2.8,0,0,0,532.42,259.56Z"/><polygon class="cls-1" points="542.79 253.43 538.09 256.23 542.79 258.8 542.79 253.43"/><polygon class="cls-1" points="546.47 256.8 541.29 256.8 541.29 255.43 545.11 255.43 545.11 252.33 546.47 252.33 546.47 256.8"/></g></svg>