<svg xmlns="http://www.w3.org/2000/svg" viewBox="0 0 206.84 123.35"><defs><style>.cls-1{fill:#181f23;}</style></defs><title>sign</title><g id="signature"><path class="cls-1" d="M59.81,64.39a1.64,1.64,0,0,0-.7-1.26,2,2,0,0,0-1.61-.43,37.49,37.49,0,0,1-4.74.63c.21-.23.42-.44.6-.65a1,1,0,0,0,.24-.23,2.73,2.73,0,0,1,.63-.29A3,3,0,0,1,55.39,62,83.87,83.87,0,0,0,76.56,60.7a63.72,63.72,0,0,0,20.63-7.56,47.49,47.49,0,0,0,8.18-5.89A13.3,13.3,0,0,0,110,38.72a8.69,8.69,0,0,0-3.21-7.25,20.51,20.51,0,0,0-7.31-3.86,62.83,62.83,0,0,0-25-1.89,100.37,100.37,0,0,0-24.16,5.69A37.68,37.68,0,0,0,32.24,43.5q-6.76,10.19,2.41,18a25.61,25.61,0,0,0,11.07,4.29.3.3,0,0,1,.24.17.37.37,0,0,1-.05.33,66.49,66.49,0,0,0-4.65,6.61,1.08,1.08,0,0,0,.15,1.4,2.26,2.26,0,0,0,1.52.63,1.66,1.66,0,0,0,1.47-.65,68.8,68.8,0,0,1,5.28-7.37,2.11,2.11,0,0,1,1.56-.77,39.85,39.85,0,0,0,7.48-.75C59.45,65.17,59.81,64.85,59.81,64.39Zm-8.3-5.58a7.06,7.06,0,0,1-3.38-1.46c-.79-.69-.84-1.69-.14-3a1.15,1.15,0,0,0-.21-1.45,2.29,2.29,0,0,0-1.54-.63,1.43,1.43,0,0,0-1.39.7c-1.1,2-1.13,3.7-.11,5a9,9,0,0,0,4.4,2.82.82.82,0,0,1,.49.57.79.79,0,0,1-.19.73l-.56.61a1.53,1.53,0,0,1-1.32.5,24,24,0,0,1-9.14-2.71Q29.34,54.63,35,45.34a31.43,31.43,0,0,1,14.47-10.7,95.6,95.6,0,0,1,17.63-4.95,77,77,0,0,1,19-1.57,57,57,0,0,1,9,1,22.11,22.11,0,0,1,8.32,3.32q5.51,4.44,2.11,9.25a30.77,30.77,0,0,1-9.91,8.59,63.81,63.81,0,0,1-10.26,5,68.13,68.13,0,0,1-18.33,3.83c-3.13.22-6.24.28-9.35.19l-.46,0a1.7,1.7,0,0,1-.39,0A47.49,47.49,0,0,1,67,52.51a2.21,2.21,0,0,0,1.09.78,1.72,1.72,0,0,0,1.37-.08,12.62,12.62,0,0,0,4.7-3.87.93.93,0,0,0,0-1.13,2.2,2.2,0,0,0-1-.78A1.87,1.87,0,0,0,72,47.32a50,50,0,0,0-18.74,11A2,2,0,0,1,51.51,58.81Z"/><path class="cls-1" d="M66.79,72.89l.33,0a1,1,0,0,0,.4,0,1.46,1.46,0,0,0,.82.31,1.93,1.93,0,0,0,1.11-.24c.69-.4,1.41-.82,2.15-1.27A55.77,55.77,0,0,1,76.52,69c-.47.87-.91,1.77-1.31,2.7a.94.94,0,0,0,.1,1,1.42,1.42,0,0,0,1,.44,1.82,1.82,0,0,0,1.14-.26l1.86-1.35c.88-.69,1.77-1.32,2.67-1.91V70a1.6,1.6,0,0,1,0,.24,2,2,0,0,0,.79,1,4,4,0,0,0,2.17.78c.86.06,1.71.08,2.56.06.34,0,.66,0,1,0,2.45,0,1.68.06,2.78,0a1.06,1.06,0,0,0,0-2.12h-.5a19.54,19.54,0,0,1-3.42-.06A2.5,2.5,0,0,1,85,68.73a1.44,1.44,0,0,1-.07-.44,1.83,1.83,0,0,1,0-.35,1.12,1.12,0,0,0,0-.54,1.28,1.28,0,0,0-.35-.62,1.3,1.3,0,0,0-.8-.37,2,2,0,0,0-.91.09,17.13,17.13,0,0,0-2.78,1.44l.16-.2c.1-.16.21-.33.31-.52a.69.69,0,0,0,.08-.83,1.29,1.29,0,0,0-.71-.52,1.9,1.9,0,0,0-.84-.12,25.38,25.38,0,0,0-7.66,3.34c.42-.9.87-1.79,1.35-2.66a.87.87,0,0,0-.2-1.14A1.79,1.79,0,0,0,71.4,65a1.36,1.36,0,0,0-1.15.73c-.89,1.6-1.69,3.24-2.43,4.91a1.26,1.26,0,0,0-.42-.16c-.34,0-.65-.11-.93-.17-.71-.18-1-.42-.79-.74a.91.91,0,0,0,0-1.15,1.1,1.1,0,0,0,.57-.76,1,1,0,0,0-.21-.87,1.4,1.4,0,0,0-1-.44,12.61,12.61,0,0,0-7.43,1.91,11.53,11.53,0,0,0-2.32,2,2.76,2.76,0,0,0-.78,2.72,2,2,0,0,0,2.07,1.39,7.86,7.86,0,0,0,3.24-.92,26.57,26.57,0,0,0,3.28-1.9A6.56,6.56,0,0,0,66.79,72.89ZM59,71c-.45.13-.71.17-.79.12s0-.15.1-.3a5.3,5.3,0,0,1,.57-.47,4.92,4.92,0,0,1,.64-.42,7.8,7.8,0,0,1,3.18-1.23A12.28,12.28,0,0,1,59,71Z"/><path class="cls-1" d="M101.1,73.12a37.46,37.46,0,0,0,5.31-6.71c1.4-2.31,1.75-4.29,1-6q-1.16-2-3.22-.72a17.16,17.16,0,0,0-4.13,3.66q-2.07,2.42-3.22,4c-.18.24-.34.44-.47.6a66,66,0,0,0-7,11.24,2,2,0,0,0-1.32.4l0,0a1.55,1.55,0,0,0-.31,0c-.89,0-1.76,0-2.63,0a7.55,7.55,0,0,1-3-.55c-.69-.33-.79-.87-.28-1.61.29-.45.3-.81,0-1.07A1.79,1.79,0,0,0,80.73,76a2,2,0,0,0-1.2.22,50,50,0,0,0-5.92,4.65c.27-.48.53-.94.8-1.39.58-1,1.16-2,1.75-3,.26-.51.23-.89-.08-1.16A1.93,1.93,0,0,0,74.83,75a1.89,1.89,0,0,0-1.3.47,2,2,0,0,1-.27.32,2.07,2.07,0,0,0-.32.28,1.19,1.19,0,0,0-.36,1c-3.07,5.14-8.42,14.14-11.31,19.38-.24.51-.2.89.12,1.16a1.89,1.89,0,0,0,1.23.39,1.81,1.81,0,0,0,1.27-.47c1.25-1.38,4.77-6.63,5.83-8.14q1.43-2,3-3.82a42.78,42.78,0,0,1,5.4-5,3.45,3.45,0,0,0,2.17,1.31,16,16,0,0,0,3.24.4c1.33,0,2.67,0,4,0a1.82,1.82,0,0,0,.34.34,65.49,65.49,0,0,0-3,8.14.84.84,0,0,0,.45,1.05,1.88,1.88,0,0,0,1.39.08,1.5,1.5,0,0,0,1.06-1,67.39,67.39,0,0,1,3.13-8.46,18.3,18.3,0,0,0,3.66-2.94c.24-.24.46-.45.67-.64s.32-.28.48-.43Q97.91,76.37,101.1,73.12Zm-6,2.34-1.2,1.12-.19.2A64.83,64.83,0,0,1,101,66.41l0,0,.81-1,1.35-1.53c.49-.54.92-1,1.29-1.39s.6-.56.68-.53.1.67-.32,1.47a24.94,24.94,0,0,1-1.71,2.7c-.71,1-1.38,1.9-2,2.68L100,70.18Q97.67,72.93,95.13,75.46Z"/><path class="cls-1" d="M176.21,78.13c-.16-.45-.6-.68-1.33-.72l-2,0a1.37,1.37,0,1,0,0,2.73h1.54a2,2,0,0,0,1.6-.69A1.3,1.3,0,0,0,176.21,78.13Z"/><path class="cls-1" d="M104.63,78.88c-.18.11-.37.23-.55.36a2.63,2.63,0,0,0-.4.28,1.53,1.53,0,0,0,.16,1.51A12.28,12.28,0,0,0,105.15,79l-.36-.08Z"/><path class="cls-1" d="M147.18,82.36q-.08-.44-.12-.87l-.59.28c-1.22.47-1.88,1-2,1.66a1.68,1.68,0,0,0,.64,1.63,2.18,2.18,0,0,0,1.83.52c.42-.19.65-.41.69-.68a2.43,2.43,0,0,0-.1-1C147.41,83.38,147.29,82.87,147.18,82.36Z"/><path class="cls-1" d="M167.48,77.43c-3.75,0-7.51,0-11.28.12h-.08a50,50,0,0,0-6,.52V78a3.39,3.39,0,0,1,.56-1.23,4.43,4.43,0,0,1,2.11-1.35,1.44,1.44,0,0,0,.93.42,1.87,1.87,0,0,0,1.07-.2,1.17,1.17,0,0,0,.62-.86.28.28,0,0,1,0-.15v-.16a.93.93,0,0,0-.52-1,3.92,3.92,0,0,0-3.42.08,9,9,0,0,0-3.09,2.23,6.51,6.51,0,0,0-1.15,2.06,1.21,1.21,0,0,0-.54-.15l-1.3-.09a7.89,7.89,0,0,1-3.59-1.15,2.22,2.22,0,0,0-1.27-.4,1.77,1.77,0,0,0-1.24.52,14,14,0,0,1-3.81,3.33A9.68,9.68,0,0,1,137,76.44a1.08,1.08,0,0,0-.06-1.35,1.84,1.84,0,0,0-1.33-.62,1.4,1.4,0,0,0-1.31.58,12.06,12.06,0,0,0-2.13,5.82,19.15,19.15,0,0,1-2.14-.09,2.5,2.5,0,0,1-2.19-1.17,1.52,1.52,0,0,1-.08-.44,2,2,0,0,1,0-.36,1.07,1.07,0,0,0,0-.53,1.24,1.24,0,0,0-.35-.62,1.37,1.37,0,0,0-.8-.38,2,2,0,0,0-.91.1A17.06,17.06,0,0,0,123,78.81a2,2,0,0,0,.16-.2c.1-.16.21-.33.31-.51a.7.7,0,0,0,.08-.84,1.27,1.27,0,0,0-.71-.51,1.9,1.9,0,0,0-.84-.12A25.25,25.25,0,0,0,114.37,80c.42-.9.87-1.78,1.35-2.66a.85.85,0,0,0-.2-1.13,1.86,1.86,0,0,0-1.27-.32,1.42,1.42,0,0,0-1.16.74c-1,1.71-1.8,3.47-2.59,5.27,0,0-1,1.88.38,2.13a2.38,2.38,0,0,0,.31.07,2.12,2.12,0,0,0,1.11-.24l2.15-1.27a54.38,54.38,0,0,1,4.92-2.7c-.48.87-.91,1.77-1.31,2.7a.92.92,0,0,0,.1,1,1.4,1.4,0,0,0,1,.44,1.82,1.82,0,0,0,1.14-.26l1.86-1.35c.88-.69,1.76-1.33,2.66-1.91v.4a.93.93,0,0,1,0,.24,2,2,0,0,0,.8,1,3.88,3.88,0,0,0,2.16.77,22.16,22.16,0,0,0,2.57.06c.34,0,.66,0,1,0l1.33,0a1.35,1.35,0,0,0,.44.29,2,2,0,0,0,1.51,0,17.12,17.12,0,0,0,6.67-4.29,24.14,24.14,0,0,0,3.66,1A7.29,7.29,0,0,0,142.18,83a3.77,3.77,0,0,0,1.09,4.45,5.93,5.93,0,0,0,4.67,1.35,3.07,3.07,0,0,0,2.82-3.06,9.05,9.05,0,0,0-.4-2.7c-.1-.4-.2-.78-.28-1.16a7.09,7.09,0,0,1-.15-1.39,25.44,25.44,0,0,1,2.86-.47,70.74,70.74,0,0,1,7.82-.28h1.19c1.89,0,3.78,0,5.66,0a1.17,1.17,0,1,0,0-2.34ZM147.64,84.9c0,.27-.27.49-.69.68a2.18,2.18,0,0,1-1.83-.52,1.68,1.68,0,0,1-.64-1.63c.11-.63.77-1.19,2-1.66l.59-.28q0,.44.12.87c.11.51.23,1,.36,1.55A2.43,2.43,0,0,1,147.64,84.9Z"/><path class="cls-1" d="M112.56,81.93c-1.41-.13-.72-4.93-1.7-5.57a5.53,5.53,0,0,0-2-.39,1.78,1.78,0,0,0-1.23.51,13.91,13.91,0,0,1-3.82,3.34,9.65,9.65,0,0,1,1.47-3.42,1.08,1.08,0,0,0-.06-1.35,1.84,1.84,0,0,0-1.33-.61,1.41,1.41,0,0,0-1.31.57,12.09,12.09,0,0,0-2.13,5.83,2.72,2.72,0,0,0,.35,2,1.21,1.21,0,0,0,.43.29,2.12,2.12,0,0,0,1.51,0,17.12,17.12,0,0,0,6.67-4.29c1,.34.2,4.75,1.2,5"/></g></svg>