<svg xmlns="http://www.w3.org/2000/svg" viewBox="0 0 430.88 250.9"><title>tweet</title><g id="Tweet"><path d="M28.64,214.28h-.1a4,4,0,0,0-1.51.25,2.83,2.83,0,0,0-1,.67,3,3,0,0,0-.64,1.05,4.55,4.55,0,0,0-.25,1.26,2.47,2.47,0,0,1,.4-.39,3.12,3.12,0,0,1,.49-.31,3.51,3.51,0,0,1,.57-.21,2.67,2.67,0,0,1,.64-.07,2.61,2.61,0,0,1,1.26.28,2.57,2.57,0,0,1,.87.73,3.1,3.1,0,0,1,.51,1,4.71,4.71,0,0,1,.16,1.17,4.47,4.47,0,0,1-.19,1.29,2.9,2.9,0,0,1-.58,1.05,2.53,2.53,0,0,1-.95.72,3,3,0,0,1-1.31.26,2.79,2.79,0,0,1-1.32-.3,3.05,3.05,0,0,1-1-.78,3.76,3.76,0,0,1-.65-1.24,4.93,4.93,0,0,1-.21-1.42v-.58a10.23,10.23,0,0,1,.29-2.4,4.25,4.25,0,0,1,1.12-2,4,4,0,0,1,1.4-.87,5.75,5.75,0,0,1,1.88-.29h.1Zm-2.23,3.38a2.19,2.19,0,0,0-.55.28,2.08,2.08,0,0,0-.45.44,2.35,2.35,0,0,0-.31.56v.42a3.61,3.61,0,0,0,.16,1.14,2.74,2.74,0,0,0,.41.84,1.86,1.86,0,0,0,.61.52A1.47,1.47,0,0,0,27,222a1.71,1.71,0,0,0,.77-.17,1.61,1.61,0,0,0,.57-.46,2,2,0,0,0,.35-.71,3.14,3.14,0,0,0,.12-.89,3.34,3.34,0,0,0-.11-.84,2.16,2.16,0,0,0-.33-.72,1.58,1.58,0,0,0-.56-.5,1.5,1.5,0,0,0-.78-.19A1.81,1.81,0,0,0,26.41,217.66Z"/><path d="M35,215.58a.93.93,0,0,1,.73-.29.95.95,0,1,1,0,1.89.89.89,0,0,1-1-.93A1,1,0,0,1,35,215.58Zm0,5.87a.92.92,0,0,1,.73-.28,1,1,0,0,1,.74.27,1,1,0,0,1,.25.68.9.9,0,0,1-1,.94.89.89,0,0,1-.72-.28.92.92,0,0,1-.25-.66A1,1,0,0,1,35,221.45Z"/><path d="M43.33,222.93v-8.18l-2.55,1v-1.13l3.69-1.42h.1v9.76Z"/><path d="M48.38,222.93V222l3.2-3.55c.28-.32.52-.6.71-.85a5.11,5.11,0,0,0,.46-.68,2.42,2.42,0,0,0,.25-.59,2.24,2.24,0,0,0,.08-.57,1.91,1.91,0,0,0-.12-.68,1.59,1.59,0,0,0-.34-.56,1.66,1.66,0,0,0-.55-.37,1.81,1.81,0,0,0-.72-.14,2.38,2.38,0,0,0-.84.14,1.71,1.71,0,0,0-.6.4,1.63,1.63,0,0,0-.36.63,3,3,0,0,0-.11.82H48.19a3.22,3.22,0,0,1,.21-1.16,2.77,2.77,0,0,1,.63-.95,2.84,2.84,0,0,1,1-.65,3.29,3.29,0,0,1,1.33-.25,3.52,3.52,0,0,1,1.25.21,2.56,2.56,0,0,1,.93.57,2.41,2.41,0,0,1,.59.85,2.73,2.73,0,0,1,.2,1.08,2.82,2.82,0,0,1-.14.86,4.36,4.36,0,0,1-.4.85,8.39,8.39,0,0,1-.59.82c-.22.27-.45.54-.7.8l-2.62,2.85h4.9v1Z"/><path d="M66.62,222.93H65.38v-9.76h3.16a4.31,4.31,0,0,1,1.25.21,3,3,0,0,1,1,.56,2.77,2.77,0,0,1,.71.91,2.91,2.91,0,0,1,.25,1.25,2.86,2.86,0,0,1-.25,1.24,2.77,2.77,0,0,1-.71.91,3,3,0,0,1-1,.56,4,4,0,0,1-1.25.2H66.62ZM68.54,218a2.77,2.77,0,0,0,.79-.14,2,2,0,0,0,.63-.37,1.77,1.77,0,0,0,.42-.59,2,2,0,0,0,.15-.79,2.07,2.07,0,0,0-.15-.8,1.94,1.94,0,0,0-.41-.6,2,2,0,0,0-.63-.38,2.32,2.32,0,0,0-.8-.14H66.62V218Z"/><path d="M76.45,218.05l1.72-4.88h1.54v9.76H78.5V219l.1-4.07-1.8,5.25h-.71l-1.65-5.11.1,3.93v3.9H73.33v-9.76h1.53Z"/><path d="M92.38,221.45a.91.91,0,0,1,.73-.28,1,1,0,0,1,.74.27,1,1,0,0,1,.25.68.94.94,0,0,1-.26.67,1,1,0,0,1-.73.27.92.92,0,0,1-.73-.28,1,1,0,0,1-.24-.66A1,1,0,0,1,92.38,221.45Z"/><path d="M112.28,216.63a2.38,2.38,0,0,1-.51.75,2.46,2.46,0,0,1-.34.29,2.65,2.65,0,0,1-.4.24,3,3,0,0,1,.68.4,3,3,0,0,1,.53.54,2.78,2.78,0,0,1,.33.67,2.48,2.48,0,0,1,.12.77,2.73,2.73,0,0,1-.25,1.18,2.4,2.4,0,0,1-.66.87,2.84,2.84,0,0,1-1,.54,4.19,4.19,0,0,1-2.43,0,2.94,2.94,0,0,1-1-.53,2.48,2.48,0,0,1-.66-.87,2.94,2.94,0,0,1-.13-2,2.61,2.61,0,0,1,.33-.67,2.7,2.7,0,0,1,.52-.55,3,3,0,0,1,.67-.4,3.22,3.22,0,0,1-.58-.38,2.38,2.38,0,0,1-.44-.51,2.06,2.06,0,0,1-.28-.6,2.26,2.26,0,0,1-.1-.69,2.9,2.9,0,0,1,.21-1.14,2.31,2.31,0,0,1,.6-.84,2.5,2.5,0,0,1,.9-.52,3.55,3.55,0,0,1,2.29,0,2.59,2.59,0,0,1,.92.52,2.33,2.33,0,0,1,.61.84,2.73,2.73,0,0,1,.22,1.14A2.31,2.31,0,0,1,112.28,216.63Zm-1,2.89a1.6,1.6,0,0,0-.39-.59,1.71,1.71,0,0,0-.59-.38,2,2,0,0,0-.75-.13,2.07,2.07,0,0,0-.77.13,1.67,1.67,0,0,0-.58.38,1.56,1.56,0,0,0-.37.59,2,2,0,0,0-.13.75,2,2,0,0,0,.13.75,1.45,1.45,0,0,0,.37.56,1.61,1.61,0,0,0,.58.35,2.37,2.37,0,0,0,.78.12,2.27,2.27,0,0,0,.75-.12,1.74,1.74,0,0,0,.59-.35,1.59,1.59,0,0,0,.38-.56,2,2,0,0,0,.14-.75A2,2,0,0,0,111.31,219.52Zm-.22-4.46a1.74,1.74,0,0,0-.33-.54,1.72,1.72,0,0,0-.53-.34,1.81,1.81,0,0,0-1.32,0,1.47,1.47,0,0,0-.51.34,1.59,1.59,0,0,0-.33.53,1.94,1.94,0,0,0-.12.7,1.83,1.83,0,0,0,.12.68,1.35,1.35,0,0,0,.34.52,1.39,1.39,0,0,0,.51.34,1.87,1.87,0,0,0,1.32,0,1.51,1.51,0,0,0,.52-.34,1.35,1.35,0,0,0,.34-.52,1.87,1.87,0,0,0,.12-.68A1.68,1.68,0,0,0,111.09,215.06Z"/><path d="M115.22,223.77l4.07-10.6h1.11l-4.07,10.6Z"/><path d="M122.53,222.93V222l3.19-3.55c.29-.32.53-.6.72-.85a5.11,5.11,0,0,0,.46-.68,2.42,2.42,0,0,0,.25-.59,2.24,2.24,0,0,0,.08-.57,1.91,1.91,0,0,0-.12-.68,1.59,1.59,0,0,0-.34-.56,1.66,1.66,0,0,0-.55-.37,1.81,1.81,0,0,0-.72-.14,2.34,2.34,0,0,0-.84.14,1.71,1.71,0,0,0-.6.4,1.63,1.63,0,0,0-.36.63,2.67,2.67,0,0,0-.11.82h-1.25a3.22,3.22,0,0,1,.21-1.16,2.77,2.77,0,0,1,.63-.95,2.84,2.84,0,0,1,1-.65,3.29,3.29,0,0,1,1.33-.25,3.52,3.52,0,0,1,1.25.21,2.56,2.56,0,0,1,.93.57,2.41,2.41,0,0,1,.59.85,2.73,2.73,0,0,1,.2,1.08,2.82,2.82,0,0,1-.14.86,4.36,4.36,0,0,1-.4.85,8.39,8.39,0,0,1-.59.82c-.22.27-.45.54-.7.8L124,221.92h4.9v1Z"/><path d="M137,216.63a2.35,2.35,0,0,1-.5.75,2.76,2.76,0,0,1-.74.53,3.29,3.29,0,0,1,.68.4,2.65,2.65,0,0,1,.52.54,2.2,2.2,0,0,1,.33.67,2.48,2.48,0,0,1,.12.77,2.73,2.73,0,0,1-.24,1.18,2.64,2.64,0,0,1-.66.87,2.79,2.79,0,0,1-1,.54,3.93,3.93,0,0,1-1.21.18,4,4,0,0,1-1.22-.18,2.89,2.89,0,0,1-1-.53,2.48,2.48,0,0,1-.66-.87,2.64,2.64,0,0,1-.25-1.19,2.43,2.43,0,0,1,.12-.77,2.1,2.1,0,0,1,.33-.67,2.65,2.65,0,0,1,.51-.55,3,3,0,0,1,.68-.4,2.9,2.9,0,0,1-.58-.38,2.17,2.17,0,0,1-.45-.51,2.36,2.36,0,0,1-.28-.6,2.61,2.61,0,0,1-.1-.69,2.73,2.73,0,0,1,.22-1.14,2.41,2.41,0,0,1,.59-.84,2.5,2.5,0,0,1,.9-.52,3.62,3.62,0,0,1,1.16-.19,3.49,3.49,0,0,1,1.14.19,2.68,2.68,0,0,1,.92.52,2.46,2.46,0,0,1,.61.84,2.73,2.73,0,0,1,.22,1.14A2.32,2.32,0,0,1,137,216.63Zm-1,2.89a1.71,1.71,0,0,0-.38-.59,1.81,1.81,0,0,0-.59-.38,2.09,2.09,0,0,0-.76-.13,2,2,0,0,0-.76.13,1.71,1.71,0,0,0-.59.38,1.69,1.69,0,0,0-.37.59,2,2,0,0,0-.13.75,2,2,0,0,0,.13.75,1.57,1.57,0,0,0,.37.56,1.65,1.65,0,0,0,.59.35,2.35,2.35,0,0,0,.77.12,2.29,2.29,0,0,0,.76-.12,1.85,1.85,0,0,0,.59-.35A1.57,1.57,0,0,0,136,221a1.79,1.79,0,0,0,.14-.75A1.82,1.82,0,0,0,136,219.52Zm-.21-4.46a1.77,1.77,0,0,0-.34-.54,1.67,1.67,0,0,0-.52-.34,1.76,1.76,0,0,0-.66-.13,1.69,1.69,0,0,0-.66.12,1.39,1.39,0,0,0-.51.34,1.44,1.44,0,0,0-.33.53,1.94,1.94,0,0,0-.12.7,1.83,1.83,0,0,0,.12.68,1.33,1.33,0,0,0,.33.52,1.51,1.51,0,0,0,.52.34,1.76,1.76,0,0,0,.66.12,1.8,1.8,0,0,0,.66-.12,1.51,1.51,0,0,0,.52-.34,1.45,1.45,0,0,0,.33-.52,2,2,0,0,0,0-1.36Z"/><path d="M139.94,223.77l4.07-10.6h1.11l-4.07,10.6Z"/><path d="M150.55,221.61a2.51,2.51,0,0,0,1-.64,2.48,2.48,0,0,0,.62-1.08,5.2,5.2,0,0,0,.2-1.19h0a3.3,3.3,0,0,1-.37.38,3.19,3.19,0,0,1-.47.31,2.48,2.48,0,0,1-.58.21,3,3,0,0,1-.69.07,2.57,2.57,0,0,1-1.25-.28,2.53,2.53,0,0,1-.87-.75,3,3,0,0,1-.5-1,4.32,4.32,0,0,1-.17-1.18,4.59,4.59,0,0,1,.19-1.3,3.12,3.12,0,0,1,.58-1.08,2.71,2.71,0,0,1,.94-.72,3.05,3.05,0,0,1,1.32-.28,2.93,2.93,0,0,1,1.3.28,2.82,2.82,0,0,1,.93.74,3.33,3.33,0,0,1,.66,1.33,5.93,5.93,0,0,1,.22,1.6v.45a11,11,0,0,1-.24,2.28,4.32,4.32,0,0,1-1,2,3.48,3.48,0,0,1-1.32.86,5.38,5.38,0,0,1-2,.34h-.13v-1.11H149A4.69,4.69,0,0,0,150.55,221.61Zm.53-3.08a1.71,1.71,0,0,0,.55-.29,2.4,2.4,0,0,0,.45-.45,2,2,0,0,0,.31-.57v-.4a4.08,4.08,0,0,0-.15-1.16,2.92,2.92,0,0,0-.41-.87,2,2,0,0,0-.59-.54,1.55,1.55,0,0,0-.73-.18,1.57,1.57,0,0,0-1.33.65,2.1,2.1,0,0,0-.35.72,3,3,0,0,0-.13.91,3.46,3.46,0,0,0,.11.84,2.21,2.21,0,0,0,.33.73,1.52,1.52,0,0,0,.55.52,1.51,1.51,0,0,0,.78.2A1.83,1.83,0,0,0,151.08,218.53Z"/><path d="M162.28,219.65v1h-1.36v2.27h-1.24v-2.27h-4.45v-.73l4.37-6.76h1.32v6.48Zm-2.6,0v-4.83l-.2.37-2.88,4.46Z"/><path d="M174.77,221.45a.89.89,0,0,1,.73-.28.94.94,0,0,1,.73.27,1,1,0,0,1,.25.68.93.93,0,0,1-.25.67,1,1,0,0,1-.73.27.91.91,0,0,1-.73-.28,1,1,0,0,1-.24-.66A1,1,0,0,1,174.77,221.45Z"/><path d="M192.41,214.23v8.7h-1.2v-8.7h-3v-1.06h7.24v1.06Z"/><path d="M196.24,215.68h1.1l.84,4.62.15,1,.18-1,1.16-4.62h.8l1.15,4.62.2,1.14.18-1.14.8-4.62h1.1l-1.54,7.25h-1l-1.13-4.44-.19-1.13-.18,1.13-1.12,4.44h-1Z"/><path d="M209.23,215.68v6.18h2.36v1.07h-6.07v-1.07H208v-5.1h-2.47v-1.08Zm-1.36-2.21a.78.78,0,0,1,.16-.24.64.64,0,0,1,.23-.14,1,1,0,0,1,.31-.05,1,1,0,0,1,.31.05.69.69,0,0,1,.22.14.63.63,0,0,1,.16.23,1.06,1.06,0,0,1,.05.31.67.67,0,0,1-.74.71.73.73,0,0,1-.56-.2.76.76,0,0,1-.19-.51A.94.94,0,0,1,207.87,213.47Z"/><path d="M216.5,215.68h2.76v.95H216.5v4a1.72,1.72,0,0,0,.11.69,1.09,1.09,0,0,0,.29.44,1.06,1.06,0,0,0,.43.23,1.81,1.81,0,0,0,.52.07l.42,0,.42-.06.38-.07.29-.06.18.87a1.67,1.67,0,0,1-.38.17c-.15,0-.31.08-.48.12l-.56.08-.58,0a2.92,2.92,0,0,1-.9-.13,2,2,0,0,1-.73-.44,2.2,2.2,0,0,1-.48-.77,3.25,3.25,0,0,1-.18-1.14v-4h-1.9v-.95h1.9v-1.76h1.25Z"/><path d="M224.74,215.68h2.76v.95h-2.76v4a1.94,1.94,0,0,0,.1.69,1.11,1.11,0,0,0,.3.44,1,1,0,0,0,.43.23,1.81,1.81,0,0,0,.52.07l.42,0,.42-.06.38-.07.29-.06.17.87a1.42,1.42,0,0,1-.37.17c-.15,0-.31.08-.48.12l-.56.08-.58,0a2.92,2.92,0,0,1-.9-.13,2,2,0,0,1-.73-.44,2.2,2.2,0,0,1-.48-.77,3.25,3.25,0,0,1-.18-1.14v-4h-1.9v-.95h1.9v-1.76h1.25Z"/><path d="M231.84,222.8a3.21,3.21,0,0,1-1.1-.73A3.35,3.35,0,0,1,230,221a3.78,3.78,0,0,1-.25-1.4v-.28a4.16,4.16,0,0,1,.28-1.58,3.68,3.68,0,0,1,.75-1.17,3.2,3.2,0,0,1,1.06-.73,3,3,0,0,1,1.21-.26,3.22,3.22,0,0,1,1.37.27,2.7,2.7,0,0,1,1,.75,3.27,3.27,0,0,1,.58,1.13,5,5,0,0,1,.19,1.41v.56H231v0a3.17,3.17,0,0,0,.21.94,2.51,2.51,0,0,0,.45.71,2.11,2.11,0,0,0,.71.51,2.17,2.17,0,0,0,.92.19,2.5,2.5,0,0,0,1.18-.27,2.58,2.58,0,0,0,.86-.71l.76.59a3.28,3.28,0,0,1-1.09,1,3.47,3.47,0,0,1-1.78.42A3.56,3.56,0,0,1,231.84,222.8Zm.53-6.1a1.8,1.8,0,0,0-.6.4,2.21,2.21,0,0,0-.45.65,2.9,2.9,0,0,0-.26.89H235v-.06a2.15,2.15,0,0,0-.13-.72,2,2,0,0,0-.35-.67,1.62,1.62,0,0,0-.58-.45,1.74,1.74,0,0,0-.82-.18A1.91,1.91,0,0,0,232.37,216.7Z"/><path d="M243.75,215.59a2,2,0,0,1,.56.13l-.17,1.21-.69-.12c-.22,0-.44,0-.68,0a2.63,2.63,0,0,0-.82.11,2,2,0,0,0-.65.32,2.1,2.1,0,0,0-.43.46,3.17,3.17,0,0,0-.31.61v4.65h-1.24v-7.25h1.18l.05,1v.18a3.27,3.27,0,0,1,1.06-.94,2.83,2.83,0,0,1,1.41-.35A6.09,6.09,0,0,1,243.75,215.59Z"/><path d="M256.61,216.63h-2v-.95h2v-.51a3.31,3.31,0,0,1,.2-1.23,2.46,2.46,0,0,1,.58-.88,2.35,2.35,0,0,1,.89-.53,3.34,3.34,0,0,1,1.17-.19,4.71,4.71,0,0,1,.53,0l.51.08.34.07c.11,0,.23,0,.34.09l-.15,1a4,4,0,0,0-.64-.16,3.84,3.84,0,0,0-.78-.07,2.37,2.37,0,0,0-.74.1,1.3,1.3,0,0,0-.54.31,1.34,1.34,0,0,0-.35.56,2.41,2.41,0,0,0-.12.8v.51h2.8v.95h-2.8v6.3h-1.24Z"/><path d="M262.87,217.78a3.71,3.71,0,0,1,.66-1.17,3.06,3.06,0,0,1,1-.78,3.43,3.43,0,0,1,2.76,0,3,3,0,0,1,1,.78,3.34,3.34,0,0,1,.65,1.17,4.3,4.3,0,0,1,.23,1.46v.14a4.3,4.3,0,0,1-.23,1.46,3.38,3.38,0,0,1-.65,1.16,3.06,3.06,0,0,1-1,.78,3.54,3.54,0,0,1-2.76,0,3,3,0,0,1-1-.78,3.77,3.77,0,0,1-.66-1.16,4.56,4.56,0,0,1-.22-1.46v-.14A4.56,4.56,0,0,1,262.87,217.78Zm1.14,2.63a2.88,2.88,0,0,0,.39.85,1.81,1.81,0,0,0,.65.58,1.74,1.74,0,0,0,.9.22,1.77,1.77,0,0,0,.9-.22,1.86,1.86,0,0,0,.64-.58,2.63,2.63,0,0,0,.38-.85,3.88,3.88,0,0,0,.13-1v-.14a3.75,3.75,0,0,0-.13-1,2.92,2.92,0,0,0-.38-.86,2,2,0,0,0-.65-.58,1.77,1.77,0,0,0-.9-.22,1.72,1.72,0,0,0-.9.22,1.87,1.87,0,0,0-.64.58,2.94,2.94,0,0,0-.39.86,4.19,4.19,0,0,0-.12,1v.14A4.34,4.34,0,0,0,264,220.41Z"/><path d="M276.7,215.59a1.93,1.93,0,0,1,.56.13l-.17,1.21-.68-.12c-.22,0-.45,0-.68,0a2.69,2.69,0,0,0-.83.11,1.92,1.92,0,0,0-.64.32,1.88,1.88,0,0,0-.43.46,2.33,2.33,0,0,0-.31.61v4.65h-1.25v-7.25h1.18l.06,1v.18a3.31,3.31,0,0,1,1.07-.94,2.83,2.83,0,0,1,1.41-.35A6.07,6.07,0,0,1,276.7,215.59Z"/><path d="M291.61,215.68v6.18H294v1.07H287.9v-1.07h2.47v-5.1H287.9v-1.08Zm-1.35-2.21a.63.63,0,0,1,.16-.24.69.69,0,0,1,.22-.14A1,1,0,0,1,291,213a.94.94,0,0,1,.3.05.6.6,0,0,1,.22.14.55.55,0,0,1,.17.23,1.06,1.06,0,0,1,.05.31.67.67,0,0,1-.74.71.73.73,0,0,1-.56-.2.72.72,0,0,1-.19-.51A.94.94,0,0,1,290.26,213.47Z"/><path d="M297.3,222.93h-1.24v-9.76h3.17a4.18,4.18,0,0,1,1.24.21,3,3,0,0,1,1,.56,2.74,2.74,0,0,1,.7.91,2.91,2.91,0,0,1,.26,1.25,2.86,2.86,0,0,1-.26,1.24,2.74,2.74,0,0,1-.7.91,3,3,0,0,1-1,.56,3.88,3.88,0,0,1-1.24.2H297.3Zm1.93-4.93a2.84,2.84,0,0,0,.79-.14,2,2,0,0,0,.63-.37,1.77,1.77,0,0,0,.42-.59,2,2,0,0,0,.15-.79,2.07,2.07,0,0,0-.15-.8,1.7,1.7,0,0,0-1.05-1,2.26,2.26,0,0,0-.79-.14H297.3V218Z"/><path d="M305.76,216.35a2.8,2.8,0,0,1,.38-.32,2.27,2.27,0,0,1,.71-.36,2.93,2.93,0,0,1,1.85,0,2,2,0,0,1,.8.51,2.16,2.16,0,0,1,.5.88,4,4,0,0,1,.18,1.26v4.57h-1.24v-4.58a2.43,2.43,0,0,0-.1-.75,1.39,1.39,0,0,0-.29-.54,1.32,1.32,0,0,0-.53-.36,2.25,2.25,0,0,0-1.36,0,1.88,1.88,0,0,0-.55.27,2.24,2.24,0,0,0-.38.31,2.88,2.88,0,0,0-.3.39v5.27h-1.24v-10.3h1.24v4.13A2.69,2.69,0,0,1,305.76,216.35Z"/><path d="M312.31,217.78a3.5,3.5,0,0,1,.65-1.17,3.1,3.1,0,0,1,1-.78,3.17,3.17,0,0,1,1.37-.29,3.21,3.21,0,0,1,1.38.29,3.13,3.13,0,0,1,1.05.78,3.69,3.69,0,0,1,.65,1.17,4.56,4.56,0,0,1,.22,1.46v.14a4.56,4.56,0,0,1-.22,1.46,3.75,3.75,0,0,1-.65,1.16,3.2,3.2,0,0,1-1,.78,3.54,3.54,0,0,1-2.76,0,3.1,3.1,0,0,1-1-.78,3.56,3.56,0,0,1-.65-1.16,4.3,4.3,0,0,1-.23-1.46v-.14A4.3,4.3,0,0,1,312.31,217.78Zm1.14,2.63a2.63,2.63,0,0,0,.38.85,1.81,1.81,0,0,0,.65.58,2,2,0,0,0,1.8,0,1.89,1.89,0,0,0,.65-.58,3.14,3.14,0,0,0,.38-.85,4.34,4.34,0,0,0,.12-1v-.14a3.75,3.75,0,0,0-.13-1,2.68,2.68,0,0,0-.38-.86,2,2,0,0,0-.65-.58,2,2,0,0,0-1.8,0,2,2,0,0,0-.64.58,2.68,2.68,0,0,0-.38.86,3.75,3.75,0,0,0-.13,1v.14A3.88,3.88,0,0,0,313.45,220.41Z"/><path d="M320.66,215.68h1.12l.09,1.07a2.79,2.79,0,0,1,.35-.42,2.06,2.06,0,0,1,.4-.33,2.64,2.64,0,0,1,.7-.33,3,3,0,0,1,.8-.13,3.39,3.39,0,0,1,1,.16,2,2,0,0,1,.8.51,2.33,2.33,0,0,1,.5.86,3.88,3.88,0,0,1,.18,1.25v4.61H325.4v-4.58a2.81,2.81,0,0,0-.11-.82A1.42,1.42,0,0,0,325,217a1.29,1.29,0,0,0-.52-.3,2.52,2.52,0,0,0-.7-.1,2.2,2.2,0,0,0-.64.1,2,2,0,0,0-.54.27,2,2,0,0,0-.38.34,2.16,2.16,0,0,0-.29.43v5.2h-1.25Z"/><path d="M330.71,222.8a3.12,3.12,0,0,1-1.1-.73,3.2,3.2,0,0,1-.71-1.11,3.79,3.79,0,0,1-.26-1.4v-.28a4.36,4.36,0,0,1,.28-1.58,3.53,3.53,0,0,1,.76-1.17,3.16,3.16,0,0,1,1.05-.73,3.07,3.07,0,0,1,1.22-.26,3.25,3.25,0,0,1,1.37.27,2.59,2.59,0,0,1,1,.75,3.11,3.11,0,0,1,.58,1.13,5,5,0,0,1,.2,1.41v.56h-5.19v0a3.52,3.52,0,0,0,.21.94,2.34,2.34,0,0,0,.46.71,1.93,1.93,0,0,0,.71.51,2.13,2.13,0,0,0,.92.19,2.53,2.53,0,0,0,1.18-.27,2.45,2.45,0,0,0,.85-.71l.76.59a3.24,3.24,0,0,1-1.08,1,3.47,3.47,0,0,1-1.78.42A3.53,3.53,0,0,1,330.71,222.8Zm.53-6.1a1.75,1.75,0,0,0-.61.4,2.42,2.42,0,0,0-.45.65,3.21,3.21,0,0,0-.26.89h3.91v-.06a2.44,2.44,0,0,0-.13-.72,2.26,2.26,0,0,0-.36-.67,1.59,1.59,0,0,0-.57-.45,1.74,1.74,0,0,0-.82-.18A1.87,1.87,0,0,0,331.24,216.7Z"/><path d="M91.45,45.68H89V32.74h4.42a5.47,5.47,0,0,1,1.91.31,4.13,4.13,0,0,1,1.46.85,3.7,3.7,0,0,1,.92,1.31,4.44,4.44,0,0,1,.32,1.7,4.06,4.06,0,0,1-.32,1.61,3.73,3.73,0,0,1-.92,1.27,4.27,4.27,0,0,1-1.46.84,5.71,5.71,0,0,1-1.91.3H91.45Zm1.93-6.77a2.52,2.52,0,0,0,.92-.16,1.74,1.74,0,0,0,.66-.44,1.86,1.86,0,0,0,.39-.63,2.36,2.36,0,0,0,.13-.75,2.86,2.86,0,0,0-.13-.85A2,2,0,0,0,95,35.4a1.67,1.67,0,0,0-.66-.46,2.16,2.16,0,0,0-.92-.17H91.45v4.14Z"/><path d="M105.66,45.27c0-.15-.08-.32-.11-.49a2.75,2.75,0,0,1-.47.42,3.27,3.27,0,0,1-.58.34,3.19,3.19,0,0,1-.72.23,3.82,3.82,0,0,1-.85.09,4.15,4.15,0,0,1-1.35-.22,3.1,3.1,0,0,1-1.06-.59,2.65,2.65,0,0,1-1-2.06,3.19,3.19,0,0,1,.31-1.42,2.62,2.62,0,0,1,.94-1A4.15,4.15,0,0,1,102.2,40a8.27,8.27,0,0,1,1.89-.19h1.37v-.57a1.66,1.66,0,0,0-.1-.61,1.27,1.27,0,0,0-.32-.47,1.51,1.51,0,0,0-.56-.31,2.27,2.27,0,0,0-.77-.11,2.24,2.24,0,0,0-.68.09,1.21,1.21,0,0,0-.46.26.88.88,0,0,0-.24.36,1.47,1.47,0,0,0-.07.48H99.79a2.64,2.64,0,0,1,.27-1.17,2.8,2.8,0,0,1,.79-1,3.91,3.91,0,0,1,1.27-.66,5.63,5.63,0,0,1,1.72-.24,6,6,0,0,1,1.62.21,3.84,3.84,0,0,1,1.3.63,2.83,2.83,0,0,1,.86,1.05,3.31,3.31,0,0,1,.31,1.47v4.13a7.47,7.47,0,0,0,.1,1.28,3.42,3.42,0,0,0,.29.87v.15h-2.51A2.19,2.19,0,0,1,105.66,45.27Zm-1.51-1.41a3,3,0,0,0,.58-.23,2.2,2.2,0,0,0,.44-.33,1.39,1.39,0,0,0,.29-.37V41.28H104.2a4,4,0,0,0-1,.11,2,2,0,0,0-.67.31,1.25,1.25,0,0,0-.38.48,1.39,1.39,0,0,0-.13.61,1.29,1.29,0,0,0,.1.48,1,1,0,0,0,.27.36,1.15,1.15,0,0,0,.44.23,1.87,1.87,0,0,0,.61.09A2.5,2.5,0,0,0,104.15,43.86Z"/><path d="M112.33,37.23a2.44,2.44,0,0,1,.76-1,1.94,1.94,0,0,1,1.18-.36,1.82,1.82,0,0,1,.6.08,1.12,1.12,0,0,1,.47.25,1.2,1.2,0,0,1,.26.29,2.12,2.12,0,0,1,.19.4,2.76,2.76,0,0,1,.28-.39,2.43,2.43,0,0,1,.34-.3,1.83,1.83,0,0,1,.53-.24,2.15,2.15,0,0,1,.64-.09,2,2,0,0,1,.81.16,1.66,1.66,0,0,1,.66.5,2.48,2.48,0,0,1,.43.91,4.88,4.88,0,0,1,.16,1.36v6.86h-2.25V38.81a1.44,1.44,0,0,0-.06-.45.87.87,0,0,0-.15-.29.68.68,0,0,0-.23-.14,1.17,1.17,0,0,0-.26,0,1,1,0,0,0-.26,0,.75.75,0,0,0-.2.1.5.5,0,0,0-.15.14.69.69,0,0,0-.1.17v7.34H113.8V38.8a1.87,1.87,0,0,0,0-.45.82.82,0,0,0-.15-.28.64.64,0,0,0-.22-.14,1.09,1.09,0,0,0-.26,0,.65.65,0,0,0-.29.06.54.54,0,0,0-.22.15.52.52,0,0,0-.12.17,1,1,0,0,0-.1.21v7.2h-2.25V36.06h2.12Z"/><path d="M121.68,36.06H124l.09.95a2.85,2.85,0,0,1,.93-.77,3.07,3.07,0,0,1,.7-.26,3.7,3.7,0,0,1,.83-.09,3.51,3.51,0,0,1,1.62.35,3.21,3.21,0,0,1,1.18,1,4.73,4.73,0,0,1,.73,1.55,7.7,7.7,0,0,1,.24,2V41a7.55,7.55,0,0,1-.24,1.95,4.76,4.76,0,0,1-.72,1.54,3.43,3.43,0,0,1-1.18,1,3.36,3.36,0,0,1-1.61.38,3.48,3.48,0,0,1-.88-.11,2.72,2.72,0,0,1-.75-.29,3.89,3.89,0,0,1-.39-.28,2.31,2.31,0,0,1-.36-.34v4.53h-2.47Zm6,3.58a3,3,0,0,0-.34-.92,1.84,1.84,0,0,0-.61-.6,1.68,1.68,0,0,0-.89-.23,2.32,2.32,0,0,0-.55.06,2.09,2.09,0,0,0-.46.17,1.35,1.35,0,0,0-.4.31,1.66,1.66,0,0,0-.3.43v4a2.36,2.36,0,0,0,.28.42,2,2,0,0,0,.38.32,2,2,0,0,0,.47.19,2.74,2.74,0,0,0,.59.06,1.63,1.63,0,0,0,.9-.23,1.82,1.82,0,0,0,.6-.63,3.28,3.28,0,0,0,.34-.93,5.69,5.69,0,0,0,.1-1.12v-.19A5.1,5.1,0,0,0,127.7,39.64Z"/><path d="M138.46,32V43.67h2.75v2h-8.13v-2H136V34.05h-2.88V32Z"/><path d="M149.62,44.33a3.84,3.84,0,0,1-1.18,1.13,2.92,2.92,0,0,1-1.51.4,3.74,3.74,0,0,1-1.36-.23,2.56,2.56,0,0,1-1.07-.73,3.33,3.33,0,0,1-.69-1.28,6.39,6.39,0,0,1-.24-1.87V36.06H146v5.71a4.55,4.55,0,0,0,.08,1,1.7,1.7,0,0,0,.27.65,1.08,1.08,0,0,0,.49.35,2.26,2.26,0,0,0,.74.11,3,3,0,0,0,.7-.08,2,2,0,0,0,.56-.23,1.59,1.59,0,0,0,.36-.32,2.36,2.36,0,0,0,.28-.42V36.06H152v9.62h-2.24Z"/><path d="M156,37.23a2.28,2.28,0,0,1,.76-1,1.89,1.89,0,0,1,1.17-.36,1.92,1.92,0,0,1,.61.08,1.15,1.15,0,0,1,.46.25,1.2,1.2,0,0,1,.26.29,2.12,2.12,0,0,1,.19.4,2.76,2.76,0,0,1,.28-.39,3.17,3.17,0,0,1,.34-.3,1.83,1.83,0,0,1,.53-.24,2.15,2.15,0,0,1,.64-.09,2,2,0,0,1,.81.16,1.66,1.66,0,0,1,.66.5,2.48,2.48,0,0,1,.43.91,4.88,4.88,0,0,1,.16,1.36v6.86h-2.25V38.81a1.44,1.44,0,0,0-.06-.45.87.87,0,0,0-.15-.29.68.68,0,0,0-.23-.14,1.09,1.09,0,0,0-.26,0,.87.87,0,0,0-.25,0,.68.68,0,0,0-.21.1.47.47,0,0,0-.14.14.5.5,0,0,0-.11.17v7.34h-2.18V38.8a1.87,1.87,0,0,0,0-.45.81.81,0,0,0-.14-.28.68.68,0,0,0-.23-.14,1.09,1.09,0,0,0-.26,0,.68.68,0,0,0-.29.06.62.62,0,0,0-.22.15.52.52,0,0,0-.12.17,1,1,0,0,0-.1.21v7.2h-2.25V36.06h2.12Z"/><path d="M171.46,44.33a3.84,3.84,0,0,1-1.18,1.13,2.92,2.92,0,0,1-1.51.4,3.74,3.74,0,0,1-1.36-.23,2.63,2.63,0,0,1-1.07-.73,3.33,3.33,0,0,1-.69-1.28,6.39,6.39,0,0,1-.24-1.87V36.06h2.47v5.71a5.3,5.3,0,0,0,.08,1,1.7,1.7,0,0,0,.27.65,1.08,1.08,0,0,0,.49.35,2.26,2.26,0,0,0,.74.11,2.93,2.93,0,0,0,.7-.08,2,2,0,0,0,.56-.23,1.59,1.59,0,0,0,.36-.32,2.36,2.36,0,0,0,.28-.42V36.06h2.48v9.62H171.6Z"/><path d="M182.35,42.65a1,1,0,0,0-.36-.32,3.81,3.81,0,0,0-.7-.27c-.29-.08-.66-.16-1.11-.25a10.42,10.42,0,0,1-1.54-.42,4.6,4.6,0,0,1-1.19-.62,2.75,2.75,0,0,1-.78-.82,2.08,2.08,0,0,1-.28-1.09,2.39,2.39,0,0,1,.28-1.13,2.85,2.85,0,0,1,.82-.95,4.06,4.06,0,0,1,1.3-.65,5.72,5.72,0,0,1,1.72-.24,6.73,6.73,0,0,1,1.81.23,4.4,4.4,0,0,1,1.36.65,2.8,2.8,0,0,1,.84,1,2.6,2.6,0,0,1,.29,1.24h-2.47a1.12,1.12,0,0,0-.08-.45,1,1,0,0,0-.24-.38,1.4,1.4,0,0,0-.6-.35,2.68,2.68,0,0,0-.91-.14,3.12,3.12,0,0,0-.79.09,1.56,1.56,0,0,0-.55.25,1.15,1.15,0,0,0-.3.33,1,1,0,0,0-.1.41.86.86,0,0,0,.09.39.91.91,0,0,0,.32.33,2.35,2.35,0,0,0,.61.27,7.14,7.14,0,0,0,1,.21,12.09,12.09,0,0,1,1.62.36,5.21,5.21,0,0,1,1.28.57,2.58,2.58,0,0,1,.85.86,2.18,2.18,0,0,1,.31,1.19,2.29,2.29,0,0,1-.31,1.18,2.81,2.81,0,0,1-.86.93,4.66,4.66,0,0,1-1.37.61,7.09,7.09,0,0,1-1.79.21,5.86,5.86,0,0,1-1.91-.28,4.27,4.27,0,0,1-1.39-.75,3,3,0,0,1-.85-1,2.66,2.66,0,0,1-.29-1.17h2.35a1.33,1.33,0,0,0,.22.67,1.3,1.3,0,0,0,.48.45,2.23,2.23,0,0,0,.67.26,4,4,0,0,0,.78.08,3.4,3.4,0,0,0,.83-.09,2,2,0,0,0,.6-.22,1.29,1.29,0,0,0,.33-.33.84.84,0,0,0,.11-.41A.71.71,0,0,0,182.35,42.65Z"/><path d="M95.27,59.66a4.27,4.27,0,0,1-.32,1,2.27,2.27,0,0,1-.56.75,1.27,1.27,0,0,1-.84.28,1.18,1.18,0,0,1-.43-.07,1,1,0,0,1-.34-.21,1.24,1.24,0,0,1-.17-.23,1.34,1.34,0,0,1-.12-.3,2.79,2.79,0,0,1-.24.31,1.62,1.62,0,0,1-.28.25,1.76,1.76,0,0,1-.39.19,1.56,1.56,0,0,1-.44.06.91.91,0,0,1-.56-.17,1.12,1.12,0,0,1-.39-.49,2.28,2.28,0,0,1-.22-.75,5.07,5.07,0,0,1,0-1A5.91,5.91,0,0,1,90.21,58a3.23,3.23,0,0,1,.49-1,2,2,0,0,1,.69-.64,1.71,1.71,0,0,1,.87-.23,1.4,1.4,0,0,1,.74.18,1.61,1.61,0,0,1,.47.42l-.29,3.38a1.54,1.54,0,0,0,0,.44.76.76,0,0,0,.1.27.31.31,0,0,0,.15.13.69.69,0,0,0,.2,0,.58.58,0,0,0,.44-.19,1.32,1.32,0,0,0,.32-.52,3.39,3.39,0,0,0,.2-.75,6.76,6.76,0,0,0,.07-.93A5.62,5.62,0,0,0,94.53,57,3.14,3.14,0,0,0,94,55.89a2.25,2.25,0,0,0-.85-.72A2.52,2.52,0,0,0,92,54.92a2.45,2.45,0,0,0-1.18.29,3.25,3.25,0,0,0-1,.83,4.11,4.11,0,0,0-.69,1.39,6.65,6.65,0,0,0-.28,1.79A6.26,6.26,0,0,0,89,60.84a3.29,3.29,0,0,0,.52,1.2,2.26,2.26,0,0,0,.9.75,3,3,0,0,0,1.31.26l.41,0a3,3,0,0,0,.41-.09A2.43,2.43,0,0,0,93,62.8l.33-.18.21.78a1.57,1.57,0,0,1-.38.22,2.18,2.18,0,0,1-.45.16,4,4,0,0,1-.48.09l-.45,0a3.8,3.8,0,0,1-1.69-.34,2.87,2.87,0,0,1-1.15-1,4.07,4.07,0,0,1-.65-1.48,7.6,7.6,0,0,1-.17-1.89,7.52,7.52,0,0,1,.36-2,5.6,5.6,0,0,1,.86-1.67,3.73,3.73,0,0,1,1.2-1A3,3,0,0,1,92,54.08a3.14,3.14,0,0,1,1.46.32,3,3,0,0,1,1.07.9,4.11,4.11,0,0,1,.64,1.42,6.31,6.31,0,0,1,.19,1.84A6.1,6.1,0,0,1,95.27,59.66Zm-4.47.28a1.37,1.37,0,0,0,.1.46.66.66,0,0,0,.19.28.4.4,0,0,0,.28.1,1,1,0,0,0,.38-.07.88.88,0,0,0,.34-.21,2.13,2.13,0,0,0,.18-.22,1.87,1.87,0,0,0,.16-.28v-.07L92.69,57A.6.6,0,0,0,92.5,57a.65.65,0,0,0-.2,0,1.09,1.09,0,0,0-.62.17,1.37,1.37,0,0,0-.44.48,2.8,2.8,0,0,0-.29.76,6.56,6.56,0,0,0-.17,1A3.92,3.92,0,0,0,90.8,59.94Z"/><path d="M97,56.6h1.13l.06.79a2.61,2.61,0,0,1,.32-.34,2.33,2.33,0,0,1,.38-.26,2.17,2.17,0,0,1,.63-.24,2.89,2.89,0,0,1,.74-.09,2.59,2.59,0,0,1,1.23.28,2.54,2.54,0,0,1,.9.76,3.72,3.72,0,0,1,.55,1.17,5.84,5.84,0,0,1,.19,1.49v.14a5.66,5.66,0,0,1-.19,1.46,4,4,0,0,1-.55,1.17,2.47,2.47,0,0,1-.9.77,2.51,2.51,0,0,1-1.21.28,3.81,3.81,0,0,1-.78-.08,2.44,2.44,0,0,1-.64-.25,1.94,1.94,0,0,1-.33-.23,2.44,2.44,0,0,1-.29-.27v3.49H97Zm4.77,2.55a2.67,2.67,0,0,0-.36-.84,1.72,1.72,0,0,0-1.52-.79,2.2,2.2,0,0,0-.53.06,1.48,1.48,0,0,0-.44.2,1.43,1.43,0,0,0-.38.31,2,2,0,0,0-.3.42V62a3.19,3.19,0,0,0,.26.38,1.58,1.58,0,0,0,.34.29,1.76,1.76,0,0,0,.48.22,2.08,2.08,0,0,0,.58.08,1.68,1.68,0,0,0,.89-.22,1.81,1.81,0,0,0,.62-.58,2.83,2.83,0,0,0,.36-.85,4.25,4.25,0,0,0,.12-1v-.14A4.17,4.17,0,0,0,101.8,59.15Z"/><path d="M109.92,63.5c0-.14,0-.29-.06-.44a3,3,0,0,1-.42.35,2.76,2.76,0,0,1-.5.3,3.84,3.84,0,0,1-.6.2,2.87,2.87,0,0,1-.67.07,3.07,3.07,0,0,1-1-.16,2.53,2.53,0,0,1-.79-.46,2,2,0,0,1-.51-.67,2,2,0,0,1-.17-.85,2.2,2.2,0,0,1,.23-1.05,2.12,2.12,0,0,1,.68-.75,3.36,3.36,0,0,1,1.05-.44,5.69,5.69,0,0,1,1.37-.15h1.35v-.57a1.41,1.41,0,0,0-.12-.59,1.34,1.34,0,0,0-.34-.45,1.72,1.72,0,0,0-.54-.28,2.28,2.28,0,0,0-.72-.1,2,2,0,0,0-.66.1,1.72,1.72,0,0,0-.49.24,1.2,1.2,0,0,0-.31.37,1,1,0,0,0-.11.44H105.3a1.72,1.72,0,0,1,.21-.78,2.28,2.28,0,0,1,.57-.69,3.22,3.22,0,0,1,.9-.49,3.79,3.79,0,0,1,1.21-.19,4.21,4.21,0,0,1,1.15.15,2.57,2.57,0,0,1,.92.46,2.25,2.25,0,0,1,.6.76,2.38,2.38,0,0,1,.22,1.07v3.37a4.24,4.24,0,0,0,.07.77,3.08,3.08,0,0,0,.19.7v.11H110A1.3,1.3,0,0,1,109.92,63.5Zm-1.39-.69a2.1,2.1,0,0,0,.57-.25,2.25,2.25,0,0,0,.45-.35,1.81,1.81,0,0,0,.29-.41V60.33h-1.15a5.17,5.17,0,0,0-1.12.11,2,2,0,0,0-.77.34,1.1,1.1,0,0,0-.3.38,1.18,1.18,0,0,0-.1.5,1.35,1.35,0,0,0,.09.5,1.05,1.05,0,0,0,.27.39,1.24,1.24,0,0,0,.45.26,2.11,2.11,0,0,0,.64.09A2.48,2.48,0,0,0,108.53,62.81Z"/><path d="M114.12,57.28a1.67,1.67,0,0,1,.58-.6,1.81,1.81,0,0,1,.87-.22,1.61,1.61,0,0,1,.51.07,1.28,1.28,0,0,1,.41.18,1,1,0,0,1,.23.23,1.49,1.49,0,0,1,.18.3,2,2,0,0,1,.22-.29,1.49,1.49,0,0,1,.28-.23,1.38,1.38,0,0,1,.41-.18,2.09,2.09,0,0,1,.51-.08,2.06,2.06,0,0,1,.68.11,1.5,1.5,0,0,1,.51.33,1.59,1.59,0,0,1,.35.63,3,3,0,0,1,.12.9v5.42H118.8V58.42a1.2,1.2,0,0,0-.06-.4.67.67,0,0,0-.15-.29.72.72,0,0,0-.27-.16,1,1,0,0,0-.36,0,1,1,0,0,0-.38.06.72.72,0,0,0-.27.16.81.81,0,0,0-.17.24.94.94,0,0,0-.08.31v5.56h-1.18V58.41a1.62,1.62,0,0,0,0-.4.75.75,0,0,0-.16-.29.53.53,0,0,0-.25-.15,1,1,0,0,0-.35,0,1.15,1.15,0,0,0-.39,0,.69.69,0,0,0-.27.14,1.29,1.29,0,0,0-.16.17,1.24,1.24,0,0,0-.1.2v5.77H113V56.6h1.11Z"/><path d="M121.75,56.6h1.13l.06.79a2.61,2.61,0,0,1,.32-.34,2,2,0,0,1,.38-.26,2.11,2.11,0,0,1,.62-.24,2.94,2.94,0,0,1,.74-.09,2.61,2.61,0,0,1,1.24.28,2.54,2.54,0,0,1,.9.76,3.72,3.72,0,0,1,.55,1.17,5.85,5.85,0,0,1,.18,1.49v.14a5.67,5.67,0,0,1-.18,1.46,4,4,0,0,1-.55,1.17,2.47,2.47,0,0,1-.9.77A2.53,2.53,0,0,1,125,64a3.79,3.79,0,0,1-.77-.08,2.66,2.66,0,0,1-.65-.25,2.35,2.35,0,0,1-.32-.23,1.86,1.86,0,0,1-.29-.27v3.49h-1.24Zm4.77,2.55a2.67,2.67,0,0,0-.36-.84,1.94,1.94,0,0,0-.63-.58,1.8,1.8,0,0,0-.89-.21,2.29,2.29,0,0,0-.54.06,1.89,1.89,0,0,0-.82.51,2.42,2.42,0,0,0-.29.42V62a2.33,2.33,0,0,0,.26.38,1.81,1.81,0,0,0,.33.29,2.09,2.09,0,0,0,.48.22,2.16,2.16,0,0,0,.59.08,1.7,1.7,0,0,0,.89-.22,1.81,1.81,0,0,0,.62-.58,2.83,2.83,0,0,0,.36-.85,4.83,4.83,0,0,0,.11-1v-.14A4.74,4.74,0,0,0,126.52,59.15Z"/><path d="M133.89,53.55v9.23h2.37v1.07h-6.07V62.78h2.46V54.63h-2.46V53.55Z"/><path d="M142.94,62.85a2.61,2.61,0,0,1-.91.84,2.65,2.65,0,0,1-1.25.29,2.78,2.78,0,0,1-1-.17,1.94,1.94,0,0,1-.79-.56,2.53,2.53,0,0,1-.51-1,4.74,4.74,0,0,1-.18-1.39V56.6h1.24v4.32a3.89,3.89,0,0,0,.1,1,1.48,1.48,0,0,0,.28.62.94.94,0,0,0,.46.32,1.72,1.72,0,0,0,.62.1,2.48,2.48,0,0,0,.75-.1,1.67,1.67,0,0,0,.57-.27,1.61,1.61,0,0,0,.35-.34,2,2,0,0,0,.25-.43V56.6h1.25v7.25H143Z"/><path d="M147.07,57.28a1.75,1.75,0,0,1,.58-.6,1.81,1.81,0,0,1,.87-.22,1.68,1.68,0,0,1,.52.07,1.38,1.38,0,0,1,.41.18,1.25,1.25,0,0,1,.23.23,1.11,1.11,0,0,1,.17.3,2.09,2.09,0,0,1,.23-.29,1.18,1.18,0,0,1,.27-.23,1.57,1.57,0,0,1,.42-.18,2,2,0,0,1,.51-.08,2,2,0,0,1,.67.11,1.5,1.5,0,0,1,.51.33,1.59,1.59,0,0,1,.35.63,3,3,0,0,1,.12.9v5.42h-1.18V58.42a1.56,1.56,0,0,0-.05-.4.81.81,0,0,0-.16-.29.76.76,0,0,0-.26-.16,1.07,1.07,0,0,0-.37,0,1.12,1.12,0,0,0-.38.06.72.72,0,0,0-.27.16.78.78,0,0,0-.16.24.94.94,0,0,0-.08.31v5.56h-1.18V58.41a1.62,1.62,0,0,0-.05-.4.9.9,0,0,0-.16-.29.58.58,0,0,0-.25-.15,1,1,0,0,0-.36,0,1.13,1.13,0,0,0-.38,0,.82.82,0,0,0-.28.14.8.8,0,0,0-.15.17.75.75,0,0,0-.1.2v5.77h-1.18V56.6H147Z"/><path d="M159.41,62.85a2.58,2.58,0,0,1-.9.84,2.65,2.65,0,0,1-1.25.29,2.87,2.87,0,0,1-1-.17,2,2,0,0,1-.79-.56,2.39,2.39,0,0,1-.5-1,4.74,4.74,0,0,1-.18-1.39V56.6H156v4.32a4.48,4.48,0,0,0,.09,1,1.78,1.78,0,0,0,.28.62,1,1,0,0,0,.46.32,1.74,1.74,0,0,0,.63.1,2.37,2.37,0,0,0,.74-.1,1.67,1.67,0,0,0,.57-.27,1.46,1.46,0,0,0,.36-.34,2,2,0,0,0,.25-.43V56.6h1.24v7.25h-1.12Z"/><path d="M167.68,61.53a.92.92,0,0,0-.3-.33,2,2,0,0,0-.55-.27,5.16,5.16,0,0,0-.85-.22,9.64,9.64,0,0,1-1.13-.31A3.44,3.44,0,0,1,164,60a2,2,0,0,1-.57-.58,1.57,1.57,0,0,1-.2-.79,1.71,1.71,0,0,1,.21-.83,2.05,2.05,0,0,1,.58-.67,2.73,2.73,0,0,1,.9-.46,3.74,3.74,0,0,1,1.14-.17,3.8,3.8,0,0,1,1.21.18,2.63,2.63,0,0,1,.91.48,2.33,2.33,0,0,1,.58.72,1.91,1.91,0,0,1,.2.89h-1.24a1,1,0,0,0-.12-.46,1.38,1.38,0,0,0-.33-.4,1.73,1.73,0,0,0-.52-.28,2.12,2.12,0,0,0-.69-.11,2.4,2.4,0,0,0-.69.09,1.79,1.79,0,0,0-.5.23,1.1,1.1,0,0,0-.3.35,1,1,0,0,0-.1.4.92.92,0,0,0,.08.38.88.88,0,0,0,.28.3,2,2,0,0,0,.53.24,8.5,8.5,0,0,0,.84.21,7.92,7.92,0,0,1,1.2.33,3.88,3.88,0,0,1,.89.43,2,2,0,0,1,.56.61,1.68,1.68,0,0,1,.19.79,1.88,1.88,0,0,1-.22.88,2,2,0,0,1-.61.67,2.86,2.86,0,0,1-.93.44,4.46,4.46,0,0,1-1.19.15,4.06,4.06,0,0,1-1.31-.19,3.21,3.21,0,0,1-1-.53,2.23,2.23,0,0,1-.62-.75,2,2,0,0,1-.21-.89h1.24a1.28,1.28,0,0,0,.21.64,1.26,1.26,0,0,0,.44.42,1.69,1.69,0,0,0,.59.23,2.7,2.7,0,0,0,.63.07,2.86,2.86,0,0,0,.87-.12,1.47,1.47,0,0,0,.57-.32.8.8,0,0,0,.2-.29.85.85,0,0,0,0-.72Z"/><path d="M198.68,63.85V55.67l-2.55,1V55.51l3.69-1.42h.1v9.76Z"/><path d="M204.74,57.28a1.75,1.75,0,0,1,.58-.6,1.81,1.81,0,0,1,.87-.22,1.68,1.68,0,0,1,.52.07,1.28,1.28,0,0,1,.41.18,1.25,1.25,0,0,1,.23.23,1.49,1.49,0,0,1,.18.3,1.48,1.48,0,0,1,.22-.29,1.18,1.18,0,0,1,.27-.23,1.57,1.57,0,0,1,.42-.18,1.89,1.89,0,0,1,1.18,0,1.33,1.33,0,0,1,.51.33,1.48,1.48,0,0,1,.35.63,3,3,0,0,1,.12.9v5.42h-1.18V58.42a1.22,1.22,0,0,0,0-.4,1,1,0,0,0-.15-.29.81.81,0,0,0-.27-.16,1,1,0,0,0-.36,0,1.14,1.14,0,0,0-.39.06.76.76,0,0,0-.26.16.66.66,0,0,0-.17.24.94.94,0,0,0-.08.31v5.56h-1.18V58.41a1.62,1.62,0,0,0,0-.4.9.9,0,0,0-.16-.29.58.58,0,0,0-.25-.15,1,1,0,0,0-.35,0,1.15,1.15,0,0,0-.39,0,.82.82,0,0,0-.28.14.8.8,0,0,0-.15.17.75.75,0,0,0-.1.2v5.77H203.6V56.6h1.11Z"/><path d="M212.38,56.6h1.11l.09,1.07a3.54,3.54,0,0,1,.35-.42,2.12,2.12,0,0,1,.41-.33,2.5,2.5,0,0,1,.7-.33,3,3,0,0,1,.8-.13,3.32,3.32,0,0,1,1,.16,2,2,0,0,1,.8.51,2.08,2.08,0,0,1,.5.86,3.92,3.92,0,0,1,.18,1.25v4.61h-1.24V59.27a2.5,2.5,0,0,0-.11-.82,1.3,1.3,0,0,0-.31-.54,1.23,1.23,0,0,0-.52-.3,2.48,2.48,0,0,0-.7-.09,2.2,2.2,0,0,0-.64.09,2.73,2.73,0,0,0-.54.27,2.37,2.37,0,0,0-.37.34,1.84,1.84,0,0,0-.3.43v5.2h-1.24Z"/><circle cx="183.07" cy="59.91" r="1.14"/><path d="M49.6,76.22A27.35,27.35,0,1,1,77,48.88,27.37,27.37,0,0,1,49.6,76.22Zm0-53.38a26,26,0,1,0,26,26A26.07,26.07,0,0,0,49.6,22.84Z"/><path d="M26,111.69H23.46V98.75h4.42a5.47,5.47,0,0,1,1.91.31,4.29,4.29,0,0,1,1.46.85,3.7,3.7,0,0,1,.92,1.31,4.26,4.26,0,0,1,.32,1.7,3.89,3.89,0,0,1-.32,1.61,3.73,3.73,0,0,1-.92,1.27,4.27,4.27,0,0,1-1.46.84,5.71,5.71,0,0,1-1.91.3H26Zm1.93-6.77a2.62,2.62,0,0,0,.93-.16,1.78,1.78,0,0,0,.65-.44,1.86,1.86,0,0,0,.39-.63,2.11,2.11,0,0,0,.13-.75,2.57,2.57,0,0,0-.13-.85,2,2,0,0,0-.39-.68,1.71,1.71,0,0,0-.65-.46,2.24,2.24,0,0,0-.93-.17H26v4.14Z"/><path d="M37,111.5a4.68,4.68,0,0,1-1.55-1,4.36,4.36,0,0,1-1-1.47,4.61,4.61,0,0,1-.35-1.82v-.36a5.65,5.65,0,0,1,.34-2,4.73,4.73,0,0,1,1-1.57,4.5,4.5,0,0,1,1.48-1,4.74,4.74,0,0,1,1.86-.36,4.69,4.69,0,0,1,1.85.34,4,4,0,0,1,1.38,1,4.25,4.25,0,0,1,.85,1.5,5.92,5.92,0,0,1,.3,1.93v1.05H36.55v0a3.85,3.85,0,0,0,.32.93,2.6,2.6,0,0,0,1.3,1.09,2.91,2.91,0,0,0,.95.16,3.77,3.77,0,0,0,1.41-.28,2.6,2.6,0,0,0,1.12-.83l1.23,1.34a4.16,4.16,0,0,1-1.49,1.2,5,5,0,0,1-2.42.55A5.27,5.27,0,0,1,37,111.5Zm1-7.46a1.7,1.7,0,0,0-.6.43,2.35,2.35,0,0,0-.45.65,4.13,4.13,0,0,0-.26.86h4v-.2a2,2,0,0,0-.14-.74,2.07,2.07,0,0,0-.39-.6,1.85,1.85,0,0,0-.61-.4,2.16,2.16,0,0,0-.83-.14A1.92,1.92,0,0,0,37.91,104Z"/><path d="M51.08,111.28a3.54,3.54,0,0,1-.1-.49,3.48,3.48,0,0,1-1.06.76,3.19,3.19,0,0,1-.72.23,3.76,3.76,0,0,1-.85.09,3.9,3.9,0,0,1-1.35-.22,3.2,3.2,0,0,1-1.06-.59,2.81,2.81,0,0,1-.7-.91A2.75,2.75,0,0,1,45,109a3.06,3.06,0,0,1,.31-1.42,2.59,2.59,0,0,1,.93-1,4.15,4.15,0,0,1,1.38-.55,8.27,8.27,0,0,1,1.89-.19h1.38v-.57a1.66,1.66,0,0,0-.11-.61,1.27,1.27,0,0,0-.32-.47,1.51,1.51,0,0,0-.56-.31,2.68,2.68,0,0,0-1.45,0,1.21,1.21,0,0,0-.46.26.85.85,0,0,0-.24.37,1.37,1.37,0,0,0-.07.47H45.21a2.64,2.64,0,0,1,.27-1.17,2.83,2.83,0,0,1,.8-1,4,4,0,0,1,1.26-.66,5.67,5.67,0,0,1,1.72-.24,6,6,0,0,1,1.62.21,3.75,3.75,0,0,1,1.3.63,3,3,0,0,1,.87,1.05,3.46,3.46,0,0,1,.31,1.48v4.12a7.59,7.59,0,0,0,.09,1.28,3.29,3.29,0,0,0,.29.87v.15H51.23A2.19,2.19,0,0,1,51.08,111.28Zm-1.51-1.41a2.81,2.81,0,0,0,.58-.23,2.2,2.2,0,0,0,.44-.33,1.44,1.44,0,0,0,.3-.37v-1.65H49.62a4,4,0,0,0-1,.11,2.09,2.09,0,0,0-.67.31,1.25,1.25,0,0,0-.38.48,1.54,1.54,0,0,0-.12.61,1.28,1.28,0,0,0,.09.48,1.07,1.07,0,0,0,.27.37,1.3,1.3,0,0,0,.44.22,1.87,1.87,0,0,0,.61.09A2.5,2.5,0,0,0,49.57,109.87Z"/><path d="M56.18,102.07h2.29l.08,1a3.23,3.23,0,0,1,.93-.77,3.07,3.07,0,0,1,.7-.26,3.73,3.73,0,0,1,.84-.09,3.47,3.47,0,0,1,1.61.35,3.14,3.14,0,0,1,1.18,1,4.54,4.54,0,0,1,.73,1.55,7.75,7.75,0,0,1,.24,2V107a7.55,7.55,0,0,1-.24,2,4.47,4.47,0,0,1-.72,1.54,3.43,3.43,0,0,1-1.18,1,3.36,3.36,0,0,1-1.61.38,3.48,3.48,0,0,1-.88-.11,2.72,2.72,0,0,1-.75-.29,3.89,3.89,0,0,1-.39-.28,2.31,2.31,0,0,1-.36-.34v4.54H56.18Zm6,3.58a3,3,0,0,0-.34-.92,1.84,1.84,0,0,0-.61-.6,1.68,1.68,0,0,0-.89-.23,2.32,2.32,0,0,0-.55.06,2.09,2.09,0,0,0-.46.17,1.49,1.49,0,0,0-.4.31,1.94,1.94,0,0,0-.3.43v4a2.36,2.36,0,0,0,.28.42,2,2,0,0,0,.38.32,2,2,0,0,0,.47.19,2.74,2.74,0,0,0,.6.07,1.6,1.6,0,0,0,.89-.24,1.82,1.82,0,0,0,.6-.63,3,3,0,0,0,.34-.92,5.87,5.87,0,0,0,.1-1.13v-.19A5.1,5.1,0,0,0,62.2,105.65Z"/><path d="M73,98v11.64h2.75v2H67.58v-2h2.88v-9.62H67.58V98Z"/><path d="M93.09,102.07h3.66v1.28H93.09v5.22a2.42,2.42,0,0,0,.15.92,1.3,1.3,0,0,0,.39.58,1.32,1.32,0,0,0,.57.31,2.61,2.61,0,0,0,.69.09l.55,0a5,5,0,0,0,.56-.08c.18,0,.34-.06.5-.09l.39-.08.23,1.16a2.34,2.34,0,0,1-.5.22,5,5,0,0,1-.64.15,5.32,5.32,0,0,1-.73.11,6.74,6.74,0,0,1-.77,0,3.59,3.59,0,0,1-1.2-.19,2.36,2.36,0,0,1-1-.58,2.65,2.65,0,0,1-.64-1,4.29,4.29,0,0,1-.24-1.52v-5.22H88.92v-1.28h2.52V99.75h1.65Z"/><path d="M102.2,103a3.42,3.42,0,0,1,.51-.43,2.91,2.91,0,0,1,.93-.47,3.6,3.6,0,0,1,1.09-.17,4.3,4.3,0,0,1,1.38.21,2.76,2.76,0,0,1,1,.68,3.18,3.18,0,0,1,.67,1.17,5.23,5.23,0,0,1,.24,1.68v6h-1.65v-6.07a3.37,3.37,0,0,0-.13-1,2,2,0,0,0-.39-.72,1.78,1.78,0,0,0-.7-.46,2.76,2.76,0,0,0-1-.15,2.63,2.63,0,0,0-.84.13,2.75,2.75,0,0,0-1.23.77,3.39,3.39,0,0,0-.41.51v7h-1.64V98h1.64v5.47A4,4,0,0,1,102.2,103Z"/><path d="M116.21,102.07v8.2h3.14v1.42h-8v-1.42h3.27v-6.76H111.3v-1.44Zm-1.79-2.92a1,1,0,0,1,.21-.32.75.75,0,0,1,.3-.18,1.3,1.3,0,0,1,.41-.07,1.25,1.25,0,0,1,.41.07.65.65,0,0,1,.29.18.77.77,0,0,1,.22.31,1.1,1.1,0,0,1,.07.41.93.93,0,0,1-.25.67,1,1,0,0,1-.74.26.94.94,0,0,1-.74-.26,1,1,0,0,1-.24-.67A1.34,1.34,0,0,1,114.42,99.15Z"/><path d="M122,102.07h1.48l.11,1.43a4.22,4.22,0,0,1,.47-.56,3.71,3.71,0,0,1,.54-.44,3.61,3.61,0,0,1,2-.6,4.24,4.24,0,0,1,1.37.21,2.53,2.53,0,0,1,1,.67,2.89,2.89,0,0,1,.67,1.15,5,5,0,0,1,.24,1.65v6.11h-1.64v-6.07a3.35,3.35,0,0,0-.15-1.08,1.68,1.68,0,0,0-.41-.72,1.59,1.59,0,0,0-.69-.4,2.94,2.94,0,0,0-.93-.13,2.91,2.91,0,0,0-.85.13,2.45,2.45,0,0,0-1.21.81,3.12,3.12,0,0,0-.39.56v6.9H122Z"/><path d="M134.55,108.37v3.32H132.9V98h1.65v8.35l1.08-1.15,3.15-3.17h2l-3.89,4,4.49,5.61h-2.09l-3.53-4.49Z"/><path d="M159.9,102.07v8.2H163v1.42H155v-1.42h3.27v-6.76H155v-1.44Zm-1.8-2.92a1,1,0,0,1,.21-.32.75.75,0,0,1,.3-.18,1.3,1.3,0,0,1,.41-.07,1.25,1.25,0,0,1,.41.07.75.75,0,0,1,.3.18.85.85,0,0,1,.21.31,1.1,1.1,0,0,1,.07.41.93.93,0,0,1-.25.67.94.94,0,0,1-.74.26,1,1,0,0,1-.74-.26,1,1,0,0,1-.24-.67A1.34,1.34,0,0,1,158.1,99.15Z"/><path d="M170.54,100a5.1,5.1,0,0,1-.3.91,5.61,5.61,0,0,1-.49.86,3.83,3.83,0,0,1-.66.73l-.9-.64a5.13,5.13,0,0,0,.63-1.29,4.64,4.64,0,0,0,.21-1.42V97.85h1.61v1.3A4.66,4.66,0,0,1,170.54,100Z"/><path d="M177.36,103a2.24,2.24,0,0,1,.77-.79,2.21,2.21,0,0,1,1.15-.29,2.84,2.84,0,0,1,.69.08,1.68,1.68,0,0,1,.54.25,1.6,1.6,0,0,1,.54.7,1.82,1.82,0,0,1,.29-.38,2.1,2.1,0,0,1,.37-.31,2,2,0,0,1,.55-.25,2.87,2.87,0,0,1,.68-.09,2.72,2.72,0,0,1,.89.14,1.84,1.84,0,0,1,.68.43,2.18,2.18,0,0,1,.46.84,3.92,3.92,0,0,1,.16,1.2v7.18h-1.56v-7.2a2.06,2.06,0,0,0-.07-.53,1,1,0,0,0-.21-.38.84.84,0,0,0-.35-.22,1.73,1.73,0,0,0-.48-.07,1.52,1.52,0,0,0-.51.08,1.28,1.28,0,0,0-.36.22,1,1,0,0,0-.22.32,1.68,1.68,0,0,0-.11.4v7.38H179.7v-7.21a1.7,1.7,0,0,0-.07-.53.92.92,0,0,0-.2-.38.7.7,0,0,0-.34-.21,1.31,1.31,0,0,0-.46-.07,1.53,1.53,0,0,0-.51.07,1,1,0,0,0-.37.19.83.83,0,0,0-.2.22,1,1,0,0,0-.14.27v7.65h-1.57v-9.62h1.48Z"/><path d="M204.57,111.22a5,5,0,0,1-.09-.58,4.24,4.24,0,0,1-.55.47,4,4,0,0,1-.67.39,5,5,0,0,1-.8.27,4.09,4.09,0,0,1-.88.1,4.25,4.25,0,0,1-1.38-.22,3.09,3.09,0,0,1-1-.61,2.62,2.62,0,0,1-.91-2,2.9,2.9,0,0,1,.32-1.38,2.84,2.84,0,0,1,.89-1,4.28,4.28,0,0,1,1.39-.58,7.86,7.86,0,0,1,1.82-.2h1.8v-.75a2,2,0,0,0-.16-.79,1.66,1.66,0,0,0-.46-.59,2.09,2.09,0,0,0-.71-.38,3.46,3.46,0,0,0-.95-.13,2.61,2.61,0,0,0-.87.13,2.25,2.25,0,0,0-.66.32,1.47,1.47,0,0,0-.41.49,1.22,1.22,0,0,0-.15.58h-1.65a2.43,2.43,0,0,1,.27-1,3.11,3.11,0,0,1,.76-.92,4,4,0,0,1,1.2-.64,4.67,4.67,0,0,1,1.6-.25,5.32,5.32,0,0,1,1.52.2,3.48,3.48,0,0,1,1.22.6,3.06,3.06,0,0,1,.8,1,3.25,3.25,0,0,1,.29,1.41v4.47a6.22,6.22,0,0,0,.09,1,4.41,4.41,0,0,0,.25.94v.14h-1.72A2,2,0,0,1,204.57,111.22Zm-1.86-.91a3.14,3.14,0,0,0,.77-.33,2.67,2.67,0,0,0,.58-.46,2.48,2.48,0,0,0,.4-.55v-2h-1.53a6.52,6.52,0,0,0-1.49.15,2.55,2.55,0,0,0-1,.45,1.32,1.32,0,0,0-.4.51,1.39,1.39,0,0,0-.14.66,1.76,1.76,0,0,0,.12.66,1.43,1.43,0,0,0,.36.52,1.74,1.74,0,0,0,.6.34,2.45,2.45,0,0,0,.85.13A2.82,2.82,0,0,0,202.71,110.31Z"/><path d="M220.21,104.82a4.66,4.66,0,0,1,.75-1.55,3.66,3.66,0,0,1,1.21-1,3.53,3.53,0,0,1,1.61-.36,3.9,3.9,0,0,1,1.06.13,3.06,3.06,0,0,1,.88.39,2.38,2.38,0,0,1,.4.31,3.33,3.33,0,0,1,.36.39l.08-1.05h1.5v9.42a4.42,4.42,0,0,1-.3,1.68,3.79,3.79,0,0,1-.83,1.26,3.66,3.66,0,0,1-1.29.78,4.84,4.84,0,0,1-1.65.26,4.66,4.66,0,0,1-.86-.08,5.28,5.28,0,0,1-1-.28,3.81,3.81,0,0,1-.95-.51,3,3,0,0,1-.79-.79l.86-1a3.56,3.56,0,0,0,.62.61,3.06,3.06,0,0,0,.65.41,3.56,3.56,0,0,0,.65.22,3.68,3.68,0,0,0,.66.06,3,3,0,0,0,1.06-.17,2.23,2.23,0,0,0,.81-.49,2.05,2.05,0,0,0,.5-.8,3.13,3.13,0,0,0,.18-1.1v-.83a3.59,3.59,0,0,1-.39.39,2.77,2.77,0,0,1-.45.31,3.58,3.58,0,0,1-.83.32,4.32,4.32,0,0,1-1,.11,3.39,3.39,0,0,1-1.59-.38,3.59,3.59,0,0,1-1.2-1,4.77,4.77,0,0,1-.76-1.55,6.55,6.55,0,0,1-.27-1.92v-.19A7,7,0,0,1,220.21,104.82Zm1.52,3.5a3.48,3.48,0,0,0,.47,1.11,2.24,2.24,0,0,0,.8.76,2.3,2.3,0,0,0,1.17.28,2.61,2.61,0,0,0,.77-.1,2.52,2.52,0,0,0,.62-.29,2.22,2.22,0,0,0,.48-.44,3.1,3.1,0,0,0,.37-.57v-4.41a2.94,2.94,0,0,0-.37-.55,2.57,2.57,0,0,0-.49-.44,2.84,2.84,0,0,0-.61-.28,3,3,0,0,0-.75-.1,2.36,2.36,0,0,0-1.19.29,2.42,2.42,0,0,0-.8.76,3.63,3.63,0,0,0-.47,1.12,6.48,6.48,0,0,0-.14,1.34V107A6.31,6.31,0,0,0,221.73,108.32Z"/><path d="M238.41,102a2.8,2.8,0,0,1,.74.17l-.22,1.61a8.32,8.32,0,0,0-.91-.16,8.72,8.72,0,0,0-.9,0,3.68,3.68,0,0,0-1.09.15,2.67,2.67,0,0,0-.86.43,2.55,2.55,0,0,0-.57.61,3.52,3.52,0,0,0-.4.8v6.17h-1.66v-9.62h1.57l.07,1.29v.24a4.39,4.39,0,0,1,1.41-1.24,3.7,3.7,0,0,1,1.87-.46A7.78,7.78,0,0,1,238.41,102Z"/><path d="M248.25,111.22a5,5,0,0,1-.09-.58,4.24,4.24,0,0,1-.55.47,4,4,0,0,1-.67.39,5.25,5.25,0,0,1-.79.27,4.26,4.26,0,0,1-2.27-.12,3.09,3.09,0,0,1-1-.61,2.57,2.57,0,0,1-.9-2,2.9,2.9,0,0,1,.31-1.38,2.84,2.84,0,0,1,.89-1,4.25,4.25,0,0,1,1.4-.58,7.71,7.71,0,0,1,1.81-.2h1.8v-.75a2,2,0,0,0-.16-.79,1.66,1.66,0,0,0-.46-.59,2.09,2.09,0,0,0-.71-.38,3.46,3.46,0,0,0-.95-.13,2.65,2.65,0,0,0-.87.13,2.25,2.25,0,0,0-.66.32,1.6,1.6,0,0,0-.41.49,1.22,1.22,0,0,0-.15.58h-1.65a2.43,2.43,0,0,1,.27-1,3.11,3.11,0,0,1,.76-.92,4,4,0,0,1,1.2-.64,4.67,4.67,0,0,1,1.6-.25,5.27,5.27,0,0,1,1.52.2,3.48,3.48,0,0,1,1.22.6,2.94,2.94,0,0,1,.8,1,3.25,3.25,0,0,1,.29,1.41v4.47a6.22,6.22,0,0,0,.09,1,4.41,4.41,0,0,0,.25.94v.14H248.4A2,2,0,0,1,248.25,111.22Zm-1.85-.91a3.24,3.24,0,0,0,.76-.33,3,3,0,0,0,.59-.46,2.78,2.78,0,0,0,.39-.55v-2h-1.53a6.52,6.52,0,0,0-1.49.15,2.55,2.55,0,0,0-1,.45,1.32,1.32,0,0,0-.4.51,1.53,1.53,0,0,0-.14.66,1.76,1.76,0,0,0,.12.66,1.43,1.43,0,0,0,.36.52,1.74,1.74,0,0,0,.6.34,2.49,2.49,0,0,0,.85.13A2.92,2.92,0,0,0,246.4,110.31Z"/><path d="M253,102.07h1.5l.08,1.05a3.64,3.64,0,0,1,.43-.45,3.3,3.3,0,0,1,.49-.34,3.18,3.18,0,0,1,.83-.32,4,4,0,0,1,1-.11,3.56,3.56,0,0,1,1.63.36,3.32,3.32,0,0,1,1.19,1,4.63,4.63,0,0,1,.73,1.55,7.36,7.36,0,0,1,.25,2V107a6.91,6.91,0,0,1-.25,1.92,4.54,4.54,0,0,1-.73,1.55,3.35,3.35,0,0,1-2.8,1.41,4.13,4.13,0,0,1-1-.12,3.14,3.14,0,0,1-1.3-.63,3.09,3.09,0,0,1-.38-.35v4.62H253Zm6.32,3.39a3.42,3.42,0,0,0-.48-1.12,2.39,2.39,0,0,0-.82-.76,2.36,2.36,0,0,0-1.19-.29,2.65,2.65,0,0,0-.71.09,2.18,2.18,0,0,0-.58.26,2,2,0,0,0-.51.42,2.73,2.73,0,0,0-.39.55v4.63a3.36,3.36,0,0,0,.35.49,2.07,2.07,0,0,0,.44.4,2.5,2.5,0,0,0,.64.29,2.67,2.67,0,0,0,.78.11,2.34,2.34,0,0,0,1.18-.29,2.52,2.52,0,0,0,.81-.78,3.39,3.39,0,0,0,.48-1.13,5.85,5.85,0,0,0,.16-1.34v-.19A5.85,5.85,0,0,0,259.32,105.46Z"/><path d="M266.31,111.52a4.15,4.15,0,0,1-1.45-1,4.31,4.31,0,0,1-.94-1.47,4.92,4.92,0,0,1-.34-1.86v-.37a5.72,5.72,0,0,1,.37-2.09,4.81,4.81,0,0,1,1-1.56,4.17,4.17,0,0,1,1.4-1,4,4,0,0,1,1.61-.34,4.31,4.31,0,0,1,1.82.36,3.54,3.54,0,0,1,1.29,1,4.35,4.35,0,0,1,.77,1.5,6.56,6.56,0,0,1,.25,1.87v.73h-6.87v.06a4.82,4.82,0,0,0,.28,1.24,3.15,3.15,0,0,0,.6.94,2.87,2.87,0,0,0,.95.69,3,3,0,0,0,1.21.25,3.33,3.33,0,0,0,1.57-.36,3.45,3.45,0,0,0,1.13-.94l1,.78a4.15,4.15,0,0,1-1.44,1.29,4.51,4.51,0,0,1-2.36.57A4.93,4.93,0,0,1,266.31,111.52Zm.71-8.09a2.48,2.48,0,0,0-.8.53,3,3,0,0,0-.6.86,4.17,4.17,0,0,0-.34,1.18h5.17v-.08a3.13,3.13,0,0,0-.17-1,2.8,2.8,0,0,0-.47-.89,2.25,2.25,0,0,0-.76-.6,2.34,2.34,0,0,0-1.09-.23A2.5,2.5,0,0,0,267,103.43Z"/><path d="M277.3,103.35h-2.65v-1.28h2.65v-.67a4.43,4.43,0,0,1,.27-1.62,3.1,3.1,0,0,1,.77-1.17,3.27,3.27,0,0,1,1.18-.71,4.71,4.71,0,0,1,1.55-.24,5.48,5.48,0,0,1,.7,0l.68.1.45.09c.15,0,.3.07.45.12l-.19,1.35a7,7,0,0,0-.85-.21,5,5,0,0,0-1-.1,3.33,3.33,0,0,0-1,.14,1.68,1.68,0,0,0-.71.42,1.61,1.61,0,0,0-.46.73,3.11,3.11,0,0,0-.16,1.06v.67h3.71v1.28H279v8.34H277.3Z"/><path d="M293,102a3,3,0,0,1,.75.17l-.23,1.61a8.32,8.32,0,0,0-.91-.16,8.42,8.42,0,0,0-.9,0,3.68,3.68,0,0,0-1.09.15,2.52,2.52,0,0,0-.85.43,2.81,2.81,0,0,0-.58.61,3.52,3.52,0,0,0-.4.8v6.17h-1.65v-9.62h1.56l.07,1.29v.24a4.39,4.39,0,0,1,1.41-1.24,3.73,3.73,0,0,1,1.87-.46A7.66,7.66,0,0,1,293,102Z"/><path d="M302.93,110.36a3.31,3.31,0,0,1-2.86,1.51,3.72,3.72,0,0,1-1.37-.24,2.66,2.66,0,0,1-1.05-.73,3.34,3.34,0,0,1-.67-1.27,6.18,6.18,0,0,1-.24-1.84v-5.72h1.65v5.74a5.77,5.77,0,0,0,.12,1.29,2,2,0,0,0,.37.82,1.39,1.39,0,0,0,.61.44,2.64,2.64,0,0,0,.83.12,3.35,3.35,0,0,0,1-.13,2.18,2.18,0,0,0,.75-.36,1.83,1.83,0,0,0,.47-.45,2.3,2.3,0,0,0,.33-.57v-6.9h1.66v9.62H303Z"/><path d="M312.78,102.07v8.2h3.14v1.42h-8.05v-1.42h3.27v-6.76h-3.27v-1.44ZM311,99.15a.75.75,0,0,1,.21-.32.69.69,0,0,1,.3-.18,1.25,1.25,0,0,1,.41-.07,1.3,1.3,0,0,1,.41.07.71.71,0,0,1,.29.18.66.66,0,0,1,.21.31,1.11,1.11,0,0,1,.08.41,1,1,0,0,1-.25.67,1,1,0,0,1-.74.26.94.94,0,0,1-.74-.26.93.93,0,0,1-.25-.67A1.34,1.34,0,0,1,311,99.15Z"/><path d="M322.42,102.07h3.66v1.28h-3.66v5.22a2.66,2.66,0,0,0,.14.92,1.48,1.48,0,0,0,.39.58,1.42,1.42,0,0,0,.58.31,2.5,2.5,0,0,0,.69.09l.55,0a5.39,5.39,0,0,0,.56-.08c.17,0,.34-.06.5-.09l.39-.08.23,1.16a2.59,2.59,0,0,1-.5.22,5.47,5.47,0,0,1-.64.15,5.57,5.57,0,0,1-.73.11,6.74,6.74,0,0,1-.77,0,3.59,3.59,0,0,1-1.2-.19,2.36,2.36,0,0,1-1-.58,2.8,2.8,0,0,1-.65-1,4.54,4.54,0,0,1-.23-1.52v-5.22h-2.52v-1.28h2.52V99.75h1.65Z"/><path d="M332.63,109.73a1.21,1.21,0,0,1,1-.38,1.25,1.25,0,0,1,1,.37,1.32,1.32,0,0,1,.34.9,1.24,1.24,0,0,1-.34.88,1.28,1.28,0,0,1-1,.36,1.25,1.25,0,0,1-1-.36,1.29,1.29,0,0,1-.32-.88A1.31,1.31,0,0,1,332.63,109.73Z"/><path d="M22.78,122.33h1.57l.93,8.92,0,.52.1-.54,1.56-8.9h1.43L30,131.24l.09.53.06-.54.93-8.9h1.56l-1.58,12.94H29.38l-1.57-9.21-.09-.54-.1.55L26,135.27H24.35Z"/><path d="M37,135.1a4.15,4.15,0,0,1-1.45-1,4.57,4.57,0,0,1-.94-1.47,5.13,5.13,0,0,1-.34-1.86v-.37a5.69,5.69,0,0,1,.37-2.09,5,5,0,0,1,1-1.56,4.46,4.46,0,0,1,1.4-1,4.11,4.11,0,0,1,1.61-.33,4.28,4.28,0,0,1,1.82.36,3.54,3.54,0,0,1,1.29,1,4.1,4.1,0,0,1,.77,1.5,6.53,6.53,0,0,1,.25,1.86v.74H35.9V131a4.11,4.11,0,0,0,.28,1.24,2.9,2.9,0,0,0,.6.94,2.83,2.83,0,0,0,.94.69,3,3,0,0,0,1.21.24,3.33,3.33,0,0,0,1.57-.35,3.49,3.49,0,0,0,1.14-.94l1,.78a4.31,4.31,0,0,1-1.43,1.29,4.56,4.56,0,0,1-2.36.57A4.94,4.94,0,0,1,37,135.1Zm.71-8.09a2.48,2.48,0,0,0-.8.53,3,3,0,0,0-.6.86,4.08,4.08,0,0,0-.34,1.18h5.17v-.08a3.13,3.13,0,0,0-.17-.95,2.8,2.8,0,0,0-.47-.89,2.16,2.16,0,0,0-.76-.6,2.31,2.31,0,0,0-1.09-.23A2.5,2.5,0,0,0,37.69,127Z"/><path d="M50.69,121.62v12.23h3.14v1.42h-8v-1.42h3.27v-10.8H45.78v-1.43Z"/><path d="M61.61,121.62v12.23h3.14v1.42h-8v-1.42H60v-10.8H56.7v-1.43Z"/><path d="M71.11,136.7A4.44,4.44,0,0,1,70,138.25l-1-.56a3.94,3.94,0,0,0,.6-1.32,5.84,5.84,0,0,0,.18-1.46v-1.59h1.79v1.57A4.37,4.37,0,0,1,71.11,136.7Z"/><path d="M91.48,135.27H89V122.33H93.4a5.43,5.43,0,0,1,1.91.31,4.13,4.13,0,0,1,1.46.85,3.58,3.58,0,0,1,.92,1.31,4.26,4.26,0,0,1,.33,1.7,3.93,3.93,0,0,1-.33,1.61,3.61,3.61,0,0,1-.92,1.27,4.27,4.27,0,0,1-1.46.84,5.67,5.67,0,0,1-1.91.3H91.48Zm1.92-6.77a2.58,2.58,0,0,0,.93-.16,1.91,1.91,0,0,0,.66-.44,1.69,1.69,0,0,0,.38-.63,2.11,2.11,0,0,0,.13-.75,2.57,2.57,0,0,0-.13-.85,1.76,1.76,0,0,0-1-1.14,2.21,2.21,0,0,0-.93-.17H91.48v4.14Z"/><path d="M105.68,134.86c0-.15-.07-.32-.1-.49a3.18,3.18,0,0,1-1.06.76,3.19,3.19,0,0,1-.72.23,3.73,3.73,0,0,1-.84.09,4.17,4.17,0,0,1-1.36-.22,3.2,3.2,0,0,1-1.06-.59,2.69,2.69,0,0,1-.94-2.06,3.06,3.06,0,0,1,.31-1.42,2.67,2.67,0,0,1,.93-1,4.15,4.15,0,0,1,1.38-.55,8.27,8.27,0,0,1,1.89-.19h1.38v-.57a1.66,1.66,0,0,0-.11-.61,1.27,1.27,0,0,0-.32-.47,1.41,1.41,0,0,0-.55-.31,2.32,2.32,0,0,0-.78-.12,2.27,2.27,0,0,0-.68.1,1.21,1.21,0,0,0-.46.26.86.86,0,0,0-.23.36,1.46,1.46,0,0,0-.08.48H99.81a2.64,2.64,0,0,1,.27-1.17,2.83,2.83,0,0,1,.8-1,3.76,3.76,0,0,1,1.26-.66,5.67,5.67,0,0,1,1.72-.24,6,6,0,0,1,1.62.21,3.89,3.89,0,0,1,1.31.63,3,3,0,0,1,.86,1.05,3.45,3.45,0,0,1,.31,1.47V133a6.57,6.57,0,0,0,.1,1.28,3.42,3.42,0,0,0,.28.87v.15h-2.51A3.22,3.22,0,0,1,105.68,134.86Zm-1.51-1.41a2.81,2.81,0,0,0,.58-.23,2.61,2.61,0,0,0,.45-.33,1.62,1.62,0,0,0,.29-.37v-1.65h-1.26a4,4,0,0,0-1,.11,2.19,2.19,0,0,0-.67.31,1.25,1.25,0,0,0-.38.48,1.54,1.54,0,0,0-.12.61,1.28,1.28,0,0,0,.09.48,1,1,0,0,0,.27.36,1.23,1.23,0,0,0,.44.23,1.91,1.91,0,0,0,.61.09A2.5,2.5,0,0,0,104.17,133.45Z"/><path d="M112.36,126.82a2.28,2.28,0,0,1,.76-1,1.89,1.89,0,0,1,1.17-.36,1.92,1.92,0,0,1,.61.08,1.09,1.09,0,0,1,.46.25,1.2,1.2,0,0,1,.26.29,1.64,1.64,0,0,1,.19.4,3.89,3.89,0,0,1,.28-.39,2.52,2.52,0,0,1,.35-.3,1.66,1.66,0,0,1,.52-.24,2.2,2.2,0,0,1,.64-.09,2,2,0,0,1,.81.16,1.76,1.76,0,0,1,.67.5,2.85,2.85,0,0,1,.43.91,5.32,5.32,0,0,1,.15,1.36v6.86h-2.25V128.4a1.87,1.87,0,0,0,0-.45.88.88,0,0,0-.16-.29.68.68,0,0,0-.23-.14,1.09,1.09,0,0,0-.26,0,.93.93,0,0,0-.25,0,.68.68,0,0,0-.21.1.62.62,0,0,0-.14.14.71.71,0,0,0-.11.17v7.34h-2.18v-6.88a1.47,1.47,0,0,0,0-.45.81.81,0,0,0-.14-.28.74.74,0,0,0-.22-.14,1.26,1.26,0,0,0-.27,0,.68.68,0,0,0-.29.06.62.62,0,0,0-.22.15.52.52,0,0,0-.12.17,1,1,0,0,0-.1.21v7.2h-2.25v-9.62h2.13Z"/><path d="M138.05,125.65v8.2h3.14v1.42h-8.05v-1.42h3.27v-6.77h-3.27v-1.43Zm-1.79-2.92a1,1,0,0,1,.21-.32.75.75,0,0,1,.3-.18,1.07,1.07,0,0,1,.41-.07,1,1,0,0,1,.41.07.75.75,0,0,1,.3.18.85.85,0,0,1,.21.31,1.1,1.1,0,0,1,.07.41.93.93,0,0,1-.25.67,1,1,0,0,1-.74.26,1,1,0,0,1-.74-.26,1,1,0,0,1-.24-.67A1.34,1.34,0,0,1,136.26,122.73Z"/><path d="M150.08,132.19a1.21,1.21,0,0,0-.39-.43,3.31,3.31,0,0,0-.73-.36,8.2,8.2,0,0,0-1.13-.3,11.36,11.36,0,0,1-1.51-.41,4.65,4.65,0,0,1-1.16-.58,2.29,2.29,0,0,1-.75-.77,2,2,0,0,1-.27-1.05,2.19,2.19,0,0,1,.28-1.09,2.85,2.85,0,0,1,.77-.9,4.09,4.09,0,0,1,1.18-.6,4.9,4.9,0,0,1,1.52-.22,5,5,0,0,1,1.6.23,3.49,3.49,0,0,1,1.21.64,2.91,2.91,0,0,1,.77,1,2.65,2.65,0,0,1,.27,1.18h-1.65a1.24,1.24,0,0,0-.16-.61,1.68,1.68,0,0,0-.44-.53,2.27,2.27,0,0,0-.69-.37,2.6,2.6,0,0,0-.91-.14,3.57,3.57,0,0,0-.92.11,2.07,2.07,0,0,0-.65.31,1.25,1.25,0,0,0-.4.46,1.13,1.13,0,0,0-.14.53,1.19,1.19,0,0,0,.11.51,1.15,1.15,0,0,0,.37.4,3.58,3.58,0,0,0,.7.32c.29.09.67.18,1.12.27a15,15,0,0,1,1.59.43,5.19,5.19,0,0,1,1.18.58,2.61,2.61,0,0,1,.73.8,2.15,2.15,0,0,1,.26,1,2.42,2.42,0,0,1-.29,1.17,2.64,2.64,0,0,1-.81.89,3.69,3.69,0,0,1-1.23.58,5.64,5.64,0,0,1-1.58.21,5.21,5.21,0,0,1-1.74-.27,4,4,0,0,1-1.29-.69,3.08,3.08,0,0,1-.81-1,2.73,2.73,0,0,1-.28-1.18h1.65a1.62,1.62,0,0,0,.27.85,1.76,1.76,0,0,0,.59.56,2.25,2.25,0,0,0,.77.3,4.07,4.07,0,0,0,.84.09,4,4,0,0,0,1.15-.15,1.9,1.9,0,0,0,.76-.43,1.17,1.17,0,0,0,.26-.38,1,1,0,0,0,.09-.43A1.29,1.29,0,0,0,150.08,132.19Z"/><path d="M158.47,136.7a4.32,4.32,0,0,1-1.13,1.55l-1-.56a4,4,0,0,0,.61-1.32,5.84,5.84,0,0,0,.18-1.46v-1.59h1.78v1.57A4.37,4.37,0,0,1,158.47,136.7Z"/><path d="M178.84,135.27h-2.5V122.33h4.43a5.51,5.51,0,0,1,1.91.31,4.09,4.09,0,0,1,1.45.85,3.58,3.58,0,0,1,.92,1.31,4.26,4.26,0,0,1,.33,1.7,3.93,3.93,0,0,1-.33,1.61,3.61,3.61,0,0,1-.92,1.27,4.22,4.22,0,0,1-1.45.84,5.76,5.76,0,0,1-1.91.3h-1.93Zm1.93-6.77a2.56,2.56,0,0,0,.92-.16,1.91,1.91,0,0,0,.66-.44,1.86,1.86,0,0,0,.39-.63,2.36,2.36,0,0,0,.12-.75,2.86,2.86,0,0,0-.12-.85,2,2,0,0,0-.39-.68,1.83,1.83,0,0,0-.66-.46,2.19,2.19,0,0,0-.92-.17h-1.93v4.14Z"/><path d="M193.08,121.62v11.64h2.76v2h-8.13v-2h2.88v-9.62h-2.88v-2Z"/><path d="M204.24,133.92a3.81,3.81,0,0,1-1.17,1.13,2.94,2.94,0,0,1-1.51.4,3.79,3.79,0,0,1-1.37-.23,2.69,2.69,0,0,1-1.07-.73,3.54,3.54,0,0,1-.68-1.28,6,6,0,0,1-.25-1.87v-5.69h2.47v5.71a4.48,4.48,0,0,0,.09,1,1.49,1.49,0,0,0,.27.65,1,1,0,0,0,.49.35,2.2,2.2,0,0,0,.73.11,3.08,3.08,0,0,0,.71-.08,2.12,2.12,0,0,0,.55-.23,1.73,1.73,0,0,0,.64-.74v-6.75h2.48v9.62h-2.24Z"/><path d="M210.64,126.82a2.36,2.36,0,0,1,.76-1,1.92,1.92,0,0,1,1.18-.36,1.9,1.9,0,0,1,.6.08,1.09,1.09,0,0,1,.46.25,1.5,1.5,0,0,1,.27.29,3,3,0,0,1,.19.4,2.14,2.14,0,0,1,.28-.39,2,2,0,0,1,.34-.3,1.77,1.77,0,0,1,.52-.24,2.2,2.2,0,0,1,.64-.09,2.07,2.07,0,0,1,.82.16,1.66,1.66,0,0,1,.66.5,2.65,2.65,0,0,1,.43.91,5.32,5.32,0,0,1,.15,1.36v6.86H215.7V128.4a1.44,1.44,0,0,0-.06-.45.73.73,0,0,0-.16-.29.64.64,0,0,0-.22-.14,1.26,1.26,0,0,0-.27,0,.85.85,0,0,0-.46.14.62.62,0,0,0-.14.14.71.71,0,0,0-.11.17v7.34h-2.17v-6.88a1.44,1.44,0,0,0-.06-.45.67.67,0,0,0-.14-.28.64.64,0,0,0-.22-.14,1.1,1.1,0,0,0-.27,0,.64.64,0,0,0-.28.06.48.48,0,0,0-.22.15.76.76,0,0,0-.13.17,2.09,2.09,0,0,0-.1.21v7.2h-2.24v-9.62h2.12Z"/><path d="M232,126.56a2.14,2.14,0,0,1,.76-.79,2.21,2.21,0,0,1,1.15-.29,2.42,2.42,0,0,1,.69.08,1.68,1.68,0,0,1,.54.25,1.46,1.46,0,0,1,.31.3,1.74,1.74,0,0,1,.23.4,2.25,2.25,0,0,1,.3-.39,2.67,2.67,0,0,1,.36-.31,2.36,2.36,0,0,1,.56-.24,2.73,2.73,0,0,1,1.56.05,1.76,1.76,0,0,1,.68.43,2.08,2.08,0,0,1,.46.83,4,4,0,0,1,.16,1.21v7.18h-1.56v-7.2a2.06,2.06,0,0,0-.07-.53,1,1,0,0,0-.21-.38.84.84,0,0,0-.35-.22,1.73,1.73,0,0,0-.48-.07,1.52,1.52,0,0,0-.51.08,1.09,1.09,0,0,0-.35.21,1.13,1.13,0,0,0-.33.73v7.38H234.3v-7.21a2.09,2.09,0,0,0-.06-.53,1,1,0,0,0-.21-.38.7.7,0,0,0-.34-.21,1.27,1.27,0,0,0-.46-.07,1.53,1.53,0,0,0-.51.07,1,1,0,0,0-.37.19.83.83,0,0,0-.2.22,1.15,1.15,0,0,0-.14.27v7.65h-1.56v-9.62h1.47Z"/><path d="M242.32,139.1l-.47-.09.26-1.34.44,0h.34a1.1,1.1,0,0,0,.62-.18,2.4,2.4,0,0,0,.5-.45,3,3,0,0,0,.37-.53c.11-.19.19-.34.25-.46l.66-1.27-4.15-9.17H243l2.64,6.21.43,1.16.45-1.13,2.48-6.24h1.84l-4.88,11.1a5.72,5.72,0,0,1-.43.79,4.22,4.22,0,0,1-.63.78,3.6,3.6,0,0,1-.87.59,2.66,2.66,0,0,1-1.15.24A3.86,3.86,0,0,1,242.32,139.1Z"/><path d="M267.82,125.65h3.66v1.27h-3.66v5.23a2.66,2.66,0,0,0,.14.92,1.48,1.48,0,0,0,.39.58,1.45,1.45,0,0,0,.57.31,2.61,2.61,0,0,0,.69.09l.55,0,.56-.08.51-.09.38-.08.23,1.16a2.24,2.24,0,0,1-.49.22,8.5,8.5,0,0,1-1.38.26c-.25,0-.51,0-.76,0a3.59,3.59,0,0,1-1.2-.19,2.36,2.36,0,0,1-1-.58,2.64,2.64,0,0,1-.65-1,4.21,4.21,0,0,1-.23-1.51v-5.23h-2.53v-1.27h2.53v-2.32h1.65Z"/><path d="M277.23,135.1a4.15,4.15,0,0,1-1.45-1,4.41,4.41,0,0,1-.94-1.47,4.92,4.92,0,0,1-.34-1.86v-.37a5.69,5.69,0,0,1,.37-2.09,5,5,0,0,1,1-1.56,4.46,4.46,0,0,1,1.4-1,4.11,4.11,0,0,1,1.61-.33,4.28,4.28,0,0,1,1.82.36,3.54,3.54,0,0,1,1.29,1,4.26,4.26,0,0,1,.77,1.5,6.53,6.53,0,0,1,.25,1.86v.74h-6.86V131a4.44,4.44,0,0,0,.27,1.24,3.28,3.28,0,0,0,.6.94,2.81,2.81,0,0,0,2.16.93,3.33,3.33,0,0,0,1.57-.35,3.45,3.45,0,0,0,1.13-.94l1,.78a4.26,4.26,0,0,1-1.44,1.29,4.51,4.51,0,0,1-2.36.57A4.93,4.93,0,0,1,277.23,135.1Zm.71-8.09a2.48,2.48,0,0,0-.8.53,3,3,0,0,0-.6.86,4.08,4.08,0,0,0-.34,1.18h5.17v-.08a3.13,3.13,0,0,0-.17-.95,2.8,2.8,0,0,0-.47-.89,2.16,2.16,0,0,0-.76-.6,2.34,2.34,0,0,0-1.09-.23A2.5,2.5,0,0,0,277.94,127Z"/><path d="M291.93,134.8a3.68,3.68,0,0,1-.08-.58,5.15,5.15,0,0,1-.56.47,3.67,3.67,0,0,1-.67.39,4.89,4.89,0,0,1-.79.27,4.26,4.26,0,0,1-.89.1,4,4,0,0,1-1.38-.23,3.17,3.17,0,0,1-1.05-.6,2.65,2.65,0,0,1-.67-.89,2.82,2.82,0,0,1-.23-1.13,2.9,2.9,0,0,1,.31-1.38,2.77,2.77,0,0,1,.9-1,4.32,4.32,0,0,1,1.39-.59,7.74,7.74,0,0,1,1.81-.19h1.8v-.76a1.78,1.78,0,0,0-.16-.78,1.75,1.75,0,0,0-.45-.59,2.24,2.24,0,0,0-.72-.38,3.12,3.12,0,0,0-.95-.13,3,3,0,0,0-.87.12,2.32,2.32,0,0,0-.65.33,1.51,1.51,0,0,0-.42.49,1.18,1.18,0,0,0-.14.58H285.8a2.43,2.43,0,0,1,.27-1,3.11,3.11,0,0,1,.76-.92,4,4,0,0,1,1.2-.64,4.67,4.67,0,0,1,1.6-.25,5.27,5.27,0,0,1,1.52.2,3.4,3.4,0,0,1,1.22.6,2.94,2.94,0,0,1,.8,1,3.12,3.12,0,0,1,.29,1.41v4.47a6.22,6.22,0,0,0,.09,1,4.41,4.41,0,0,0,.25.94v.14h-1.72A2.17,2.17,0,0,1,291.93,134.8Zm-1.85-.91a3.07,3.07,0,0,0,.76-.33,2.74,2.74,0,0,0,.59-.46,2.78,2.78,0,0,0,.39-.55v-2h-1.53a6.58,6.58,0,0,0-1.49.15,2.55,2.55,0,0,0-1,.45,1.48,1.48,0,0,0-.4.5,1.6,1.6,0,0,0-.14.67,1.76,1.76,0,0,0,.12.66,1.32,1.32,0,0,0,.36.51,1.58,1.58,0,0,0,.61.35,2.65,2.65,0,0,0,.84.13A3.26,3.26,0,0,0,290.08,133.89Z"/><path d="M297.49,126.56a2.09,2.09,0,0,1,.77-.79,2.18,2.18,0,0,1,1.15-.29,2.51,2.51,0,0,1,.69.08,1.73,1.73,0,0,1,.53.25,1.26,1.26,0,0,1,.31.3,2.23,2.23,0,0,1,.24.4,2.19,2.19,0,0,1,.29-.39,2.67,2.67,0,0,1,.36-.31,2.36,2.36,0,0,1,.56-.24,2.78,2.78,0,0,1,.67-.09,2.83,2.83,0,0,1,.9.14,1.8,1.8,0,0,1,.67.43,2.08,2.08,0,0,1,.46.83,4,4,0,0,1,.16,1.21v7.18h-1.56v-7.2a1.7,1.7,0,0,0-.07-.53,1,1,0,0,0-.21-.38.84.84,0,0,0-.35-.22,1.73,1.73,0,0,0-.48-.07,1.56,1.56,0,0,0-.51.08,1.09,1.09,0,0,0-.35.21,1,1,0,0,0-.22.33,1.24,1.24,0,0,0-.11.4v7.38h-1.56v-7.21a2.06,2.06,0,0,0-.07-.53,1,1,0,0,0-.21-.38.72.72,0,0,0-.33-.21,1.37,1.37,0,0,0-.47-.07,1.53,1.53,0,0,0-.51.07,1,1,0,0,0-.37.19,1,1,0,0,0-.2.22,1.15,1.15,0,0,0-.14.27v7.65H296v-9.62h1.47Z"/><path d="M324.69,134.8a3.68,3.68,0,0,1-.08-.58,4.35,4.35,0,0,1-.56.47,3.67,3.67,0,0,1-.67.39,4.89,4.89,0,0,1-.79.27,4.18,4.18,0,0,1-.89.1,4,4,0,0,1-1.38-.23,3,3,0,0,1-1-.6,2.52,2.52,0,0,1-.67-.89,2.66,2.66,0,0,1-.24-1.13,2.73,2.73,0,0,1,1.21-2.38,4.42,4.42,0,0,1,1.39-.59,7.83,7.83,0,0,1,1.82-.19h1.79v-.76a1.78,1.78,0,0,0-.16-.78,1.75,1.75,0,0,0-.45-.59,2.24,2.24,0,0,0-.72-.38,3.05,3.05,0,0,0-.94-.13,3,3,0,0,0-.88.12,2.47,2.47,0,0,0-.65.33,1.51,1.51,0,0,0-.42.49,1.3,1.3,0,0,0-.14.58h-1.65a2.17,2.17,0,0,1,.27-1,2.83,2.83,0,0,1,.76-.92,3.85,3.85,0,0,1,1.19-.64,4.71,4.71,0,0,1,1.6-.25,5.23,5.23,0,0,1,1.52.2,3.4,3.4,0,0,1,1.22.6,2.83,2.83,0,0,1,.8,1,3.12,3.12,0,0,1,.29,1.41v4.47a6.22,6.22,0,0,0,.09,1,5.1,5.1,0,0,0,.25.94v.14h-1.71A1.72,1.72,0,0,1,324.69,134.8Zm-1.85-.91a3.07,3.07,0,0,0,.76-.33,2.74,2.74,0,0,0,.59-.46,2.14,2.14,0,0,0,.39-.55v-2h-1.53a6.58,6.58,0,0,0-1.49.15,2.44,2.44,0,0,0-1,.45,1.39,1.39,0,0,0-.41.5,1.6,1.6,0,0,0-.14.67,1.76,1.76,0,0,0,.12.66,1.32,1.32,0,0,0,.36.51,1.58,1.58,0,0,0,.61.35,2.65,2.65,0,0,0,.84.13A3.26,3.26,0,0,0,322.84,133.89Z"/><path d="M329.45,125.65h1.47l.12,1.43a3.67,3.67,0,0,1,.47-.56,2.75,2.75,0,0,1,.53-.44,3.6,3.6,0,0,1,.93-.44,3.73,3.73,0,0,1,1.06-.16,4.25,4.25,0,0,1,1.38.21,2.53,2.53,0,0,1,1,.67,3,3,0,0,1,.67,1.15,5,5,0,0,1,.24,1.65v6.11h-1.65V129.2a3.8,3.8,0,0,0-.14-1.09,1.62,1.62,0,0,0-.42-.71,1.59,1.59,0,0,0-.69-.4,2.84,2.84,0,0,0-.92-.13,2.57,2.57,0,0,0-.85.13,2.53,2.53,0,0,0-1.21.8,4.49,4.49,0,0,0-.4.57v6.9h-1.64Z"/><path d="M340.33,128.4a4.71,4.71,0,0,1,.78-1.55,3.42,3.42,0,0,1,2.8-1.37,3.52,3.52,0,0,1,1.5.29,3.15,3.15,0,0,1,1.12.84v-5h1.64v13.65h-1.51l-.07-1a3.08,3.08,0,0,1-1.15.88,3.57,3.57,0,0,1-1.55.31,3.32,3.32,0,0,1-1.58-.38,3.59,3.59,0,0,1-1.2-1,5.13,5.13,0,0,1-.78-1.55,6.6,6.6,0,0,1-.27-1.92v-.19A6.92,6.92,0,0,1,340.33,128.4Zm1.52,3.5a3.49,3.49,0,0,0,.48,1.11,2.19,2.19,0,0,0,2,1,2.38,2.38,0,0,0,1.37-.37,2.74,2.74,0,0,0,.86-1v-4.46a2.84,2.84,0,0,0-.86-1,2.36,2.36,0,0,0-1.35-.38,2.33,2.33,0,0,0-1.19.29,2.24,2.24,0,0,0-.8.76,3.65,3.65,0,0,0-.48,1.12,5.85,5.85,0,0,0-.15,1.34v.19A5.71,5.71,0,0,0,341.85,131.9Z"/><path d="M363.69,123.86a4.75,4.75,0,0,1,.31-.92,5.13,5.13,0,0,1,.48-.85,4.52,4.52,0,0,1,.65-.73l.9.64a4.77,4.77,0,0,0-.62,1.29,4.64,4.64,0,0,0-.21,1.42V126h-1.61v-1.3A4,4,0,0,1,363.69,123.86Zm2.89,0a5.48,5.48,0,0,1,.3-.92,5.19,5.19,0,0,1,.49-.85,3.74,3.74,0,0,1,.65-.73l.9.64a5.13,5.13,0,0,0-.63,1.29,4.64,4.64,0,0,0-.21,1.42V126h-1.6v-1.3A4,4,0,0,1,366.58,123.86Z"/><path d="M379.37,133.94a3.35,3.35,0,0,1-1.2,1.11,3.43,3.43,0,0,1-1.66.4,3.72,3.72,0,0,1-1.37-.24,2.66,2.66,0,0,1-1.05-.73,3.48,3.48,0,0,1-.67-1.27,6.22,6.22,0,0,1-.24-1.84v-5.72h1.65v5.74a5.77,5.77,0,0,0,.12,1.29,2,2,0,0,0,.38.82,1.31,1.31,0,0,0,.6.44,2.66,2.66,0,0,0,.84.12,3.32,3.32,0,0,0,1-.13,2.32,2.32,0,0,0,.76-.36,2,2,0,0,0,.46-.45,2.33,2.33,0,0,0,.34-.57v-6.9H381v9.62h-1.49Z"/><path d="M390.32,132.19a1,1,0,0,0-.39-.43,3,3,0,0,0-.72-.36,8.2,8.2,0,0,0-1.13-.3,11,11,0,0,1-1.51-.41,4.65,4.65,0,0,1-1.16-.58,2.2,2.2,0,0,1-.75-.77,2,2,0,0,1-.27-1.05,2.29,2.29,0,0,1,.27-1.09,3,3,0,0,1,.78-.9,4,4,0,0,1,1.18-.6,4.9,4.9,0,0,1,1.52-.22,5,5,0,0,1,1.6.23,3.58,3.58,0,0,1,1.21.64,2.88,2.88,0,0,1,.76,1,2.53,2.53,0,0,1,.28,1.18h-1.65a1.24,1.24,0,0,0-.16-.61,1.68,1.68,0,0,0-.44-.53,2.27,2.27,0,0,0-.69-.37,2.6,2.6,0,0,0-.91-.14,3.57,3.57,0,0,0-.92.11,2.07,2.07,0,0,0-.65.31,1.16,1.16,0,0,0-.4.46,1.13,1.13,0,0,0-.14.53,1.19,1.19,0,0,0,.11.51,1.06,1.06,0,0,0,.37.4,3.32,3.32,0,0,0,.7.32,11,11,0,0,0,1.12.27,14.14,14.14,0,0,1,1.58.43,5.28,5.28,0,0,1,1.19.58,2.61,2.61,0,0,1,.73.8,2.14,2.14,0,0,1,.25,1,2.31,2.31,0,0,1-.29,1.17,2.61,2.61,0,0,1-.8.89,3.69,3.69,0,0,1-1.23.58,5.64,5.64,0,0,1-1.58.21,5.21,5.21,0,0,1-1.74-.27,4,4,0,0,1-1.29-.69,3.08,3.08,0,0,1-.81-1,2.59,2.59,0,0,1-.28-1.18h1.64a1.82,1.82,0,0,0,.27.85,1.89,1.89,0,0,0,.6.56,2.17,2.17,0,0,0,.77.3,4.25,4.25,0,0,0,2-.06,2,2,0,0,0,.76-.43,1.17,1.17,0,0,0,.26-.38,1,1,0,0,0,.09-.43A1.15,1.15,0,0,0,390.32,132.19Z"/><path d="M398.44,123.61a5.1,5.1,0,0,1-.3.91,5.56,5.56,0,0,1-.48.86,4.15,4.15,0,0,1-.66.73l-.9-.64a5.13,5.13,0,0,0,.63-1.29,4.64,4.64,0,0,0,.21-1.42v-1.34h1.6v1.31A4,4,0,0,1,398.44,123.61Zm2.95,0a5.1,5.1,0,0,1-.3.91,5.56,5.56,0,0,1-.48.86,4.15,4.15,0,0,1-.66.73l-.9-.64a5.13,5.13,0,0,0,.63-1.29,4.64,4.64,0,0,0,.21-1.42v-1.34h1.6v1.31A4,4,0,0,1,401.39,123.61Z"/><path d="M30,155.77a1.12,1.12,0,0,0-.39-.43,3.1,3.1,0,0,0-.73-.36,7.83,7.83,0,0,0-1.13-.3,10.8,10.8,0,0,1-1.5-.41,4.65,4.65,0,0,1-1.16-.58,2.42,2.42,0,0,1-.76-.77,2.1,2.1,0,0,1-.26-1,2.29,2.29,0,0,1,.27-1.09,2.78,2.78,0,0,1,.78-.9,4,4,0,0,1,1.18-.6,4.9,4.9,0,0,1,1.52-.22,5,5,0,0,1,1.6.23,3.44,3.44,0,0,1,1.2.64,2.79,2.79,0,0,1,.77.95,2.65,2.65,0,0,1,.27,1.18H30a1.24,1.24,0,0,0-.16-.61,1.83,1.83,0,0,0-.44-.53,2.27,2.27,0,0,0-.69-.37,2.63,2.63,0,0,0-.91-.14,3.18,3.18,0,0,0-.92.11,2.13,2.13,0,0,0-.66.31,1.35,1.35,0,0,0-.4.46,1.25,1.25,0,0,0-.13.53,1.12,1.12,0,0,0,.11.5,1,1,0,0,0,.37.41,2.74,2.74,0,0,0,.7.31,8.87,8.87,0,0,0,1.11.28,12.44,12.44,0,0,1,1.59.43,4.89,4.89,0,0,1,1.19.58,2.62,2.62,0,0,1,.73.8,2.12,2.12,0,0,1,.25,1.05,2.31,2.31,0,0,1-.29,1.17,2.81,2.81,0,0,1-.8.89,4,4,0,0,1-1.24.58,5.57,5.57,0,0,1-1.57.21,5.21,5.21,0,0,1-1.74-.27,4,4,0,0,1-1.29-.69,3,3,0,0,1-.81-1,2.59,2.59,0,0,1-.28-1.18h1.64a1.82,1.82,0,0,0,.27.85,2,2,0,0,0,.59.56,2.44,2.44,0,0,0,.78.3,4.25,4.25,0,0,0,2-.06,2,2,0,0,0,.76-.43,1.35,1.35,0,0,0,.26-.38,1,1,0,0,0,.09-.43A1.15,1.15,0,0,0,30,155.77Z"/><path d="M38.49,149.23h3.66v1.27H38.49v5.23a2.66,2.66,0,0,0,.14.92,1.48,1.48,0,0,0,.39.58,1.42,1.42,0,0,0,.58.31,2.5,2.5,0,0,0,.69.09l.55,0,.56-.08.5-.09.39-.08.23,1.16a3.39,3.39,0,0,1-.5.22,5.47,5.47,0,0,1-.64.15,5.57,5.57,0,0,1-.73.11c-.26,0-.52,0-.77,0a3.87,3.87,0,0,1-1.2-.19,2.36,2.36,0,0,1-1-.58,2.76,2.76,0,0,1-.65-1,4.44,4.44,0,0,1-.23-1.51V150.5H34.31v-1.27h2.53V146.9h1.65Z"/><path d="M51.68,158.38a5.4,5.4,0,0,1-.08-.58,5.34,5.34,0,0,1-.56.47,3.67,3.67,0,0,1-.67.39,4.89,4.89,0,0,1-.79.27,4.18,4.18,0,0,1-.89.1,4,4,0,0,1-1.38-.23,3.19,3.19,0,0,1-1-.6,2.52,2.52,0,0,1-.67-.89,2.7,2.7,0,0,1-.24-1.13,2.73,2.73,0,0,1,1.21-2.38,4.2,4.2,0,0,1,1.39-.59,7.83,7.83,0,0,1,1.82-.19h1.79v-.76a1.78,1.78,0,0,0-.16-.78,1.75,1.75,0,0,0-.45-.59,2.24,2.24,0,0,0-.72-.38,3.05,3.05,0,0,0-.94-.13,3,3,0,0,0-.88.12,2.47,2.47,0,0,0-.65.33,1.51,1.51,0,0,0-.42.49,1.3,1.3,0,0,0-.14.58H45.56a2.17,2.17,0,0,1,.27-1,2.83,2.83,0,0,1,.76-.92,4.08,4.08,0,0,1,1.19-.65,5,5,0,0,1,1.6-.24,5.23,5.23,0,0,1,1.52.2,3.4,3.4,0,0,1,1.22.6,2.83,2.83,0,0,1,.8,1,3.12,3.12,0,0,1,.29,1.41v4.47a6.22,6.22,0,0,0,.09,1,4.78,4.78,0,0,0,.25.93v.15H51.84A1.72,1.72,0,0,1,51.68,158.38Zm-1.85-.91a3.07,3.07,0,0,0,.76-.33,2.49,2.49,0,0,0,.59-.47,1.94,1.94,0,0,0,.39-.54v-1.95H50a6.58,6.58,0,0,0-1.49.15,2.44,2.44,0,0,0-1,.45,1.39,1.39,0,0,0-.41.5A1.6,1.6,0,0,0,47,156a1.76,1.76,0,0,0,.12.66,1.32,1.32,0,0,0,.36.51,1.58,1.58,0,0,0,.61.35,2.66,2.66,0,0,0,.84.12A3.26,3.26,0,0,0,49.83,157.47Z"/><path d="M56.44,149.23h1.47l.12,1.42a4.13,4.13,0,0,1,.47-.55,2.75,2.75,0,0,1,.53-.44,3.6,3.6,0,0,1,.93-.44,3.73,3.73,0,0,1,1.06-.16,4.25,4.25,0,0,1,1.38.21,2.53,2.53,0,0,1,1.05.67,3,3,0,0,1,.67,1.15,5,5,0,0,1,.24,1.65v6.11H62.71v-6.07a3.8,3.8,0,0,0-.14-1.09,1.72,1.72,0,0,0-.42-.72,1.82,1.82,0,0,0-.69-.4,3.16,3.16,0,0,0-.92-.12,2.57,2.57,0,0,0-.85.13,2.53,2.53,0,0,0-1.21.8,3.88,3.88,0,0,0-.4.57v6.9H56.44Z"/><path d="M67.32,152a4.61,4.61,0,0,1,.78-1.55,3.42,3.42,0,0,1,2.8-1.37,3.68,3.68,0,0,1,1.5.28,3.4,3.4,0,0,1,1.12.84v-5h1.64v13.65H73.65l-.07-1a3,3,0,0,1-1.15.89,3.73,3.73,0,0,1-1.55.31,3.32,3.32,0,0,1-1.58-.38,3.59,3.59,0,0,1-1.2-1,4.89,4.89,0,0,1-.77-1.55,6.28,6.28,0,0,1-.28-1.92V154A6.87,6.87,0,0,1,67.32,152Zm1.52,3.5a3.49,3.49,0,0,0,.48,1.11,2.22,2.22,0,0,0,2,1,2.38,2.38,0,0,0,1.37-.37,2.74,2.74,0,0,0,.86-1v-4.46a2.84,2.84,0,0,0-.86-1,2.36,2.36,0,0,0-1.35-.38,2.33,2.33,0,0,0-1.19.29,2.16,2.16,0,0,0-.8.76,3.55,3.55,0,0,0-.48,1.12,5.85,5.85,0,0,0-.15,1.34v.19A5.77,5.77,0,0,0,68.84,155.48Z"/><path d="M84.55,155.77a1,1,0,0,0-.39-.43,2.91,2.91,0,0,0-.73-.36,7.66,7.66,0,0,0-1.12-.3,10.58,10.58,0,0,1-1.51-.41,4.65,4.65,0,0,1-1.16-.58,2.42,2.42,0,0,1-.76-.77,2.1,2.1,0,0,1-.26-1,2.29,2.29,0,0,1,.27-1.09,2.78,2.78,0,0,1,.78-.9,4,4,0,0,1,1.18-.6,4.9,4.9,0,0,1,1.52-.22,5,5,0,0,1,1.6.23,3.58,3.58,0,0,1,1.21.64,2.88,2.88,0,0,1,.76.95,2.65,2.65,0,0,1,.27,1.18H84.57a1.24,1.24,0,0,0-.16-.61,1.83,1.83,0,0,0-.44-.53,2.27,2.27,0,0,0-.69-.37,2.6,2.6,0,0,0-.91-.14,3.18,3.18,0,0,0-.92.11,2.13,2.13,0,0,0-.66.31,1.22,1.22,0,0,0-.39.46,1.13,1.13,0,0,0-.14.53,1.12,1.12,0,0,0,.11.5,1,1,0,0,0,.37.41,2.91,2.91,0,0,0,.7.31,8.87,8.87,0,0,0,1.11.28,12,12,0,0,1,1.59.43,4.89,4.89,0,0,1,1.19.58,2.5,2.5,0,0,1,.73.8,2.12,2.12,0,0,1,.25,1.05,2.31,2.31,0,0,1-.29,1.17,2.81,2.81,0,0,1-.8.89,4,4,0,0,1-1.23.58,5.69,5.69,0,0,1-1.58.21,5.21,5.21,0,0,1-1.74-.27,4,4,0,0,1-1.29-.69,3.08,3.08,0,0,1-.81-1,2.59,2.59,0,0,1-.28-1.18h1.64a1.82,1.82,0,0,0,.27.85,2,2,0,0,0,.59.56,2.53,2.53,0,0,0,.78.3,4.25,4.25,0,0,0,2-.06,2,2,0,0,0,.76-.43,1.17,1.17,0,0,0,.26-.38,1,1,0,0,0,.09-.43A1.15,1.15,0,0,0,84.55,155.77Z"/><path d="M102.57,150.5H99.93v-1.27h2.64v-.67a4.43,4.43,0,0,1,.27-1.62,3.23,3.23,0,0,1,.77-1.17,3.13,3.13,0,0,1,1.18-.71,4.76,4.76,0,0,1,1.55-.24,5.37,5.37,0,0,1,.7,0c.23,0,.46.06.69.1l.44.09.45.11-.19,1.36a6.6,6.6,0,0,0-.85-.21,4.87,4.87,0,0,0-1-.1,3.35,3.35,0,0,0-1,.14,1.84,1.84,0,0,0-.71.41,1.9,1.9,0,0,0-.46.74,3.35,3.35,0,0,0-.15,1.06v.67h3.7v1.27h-3.7v8.35h-1.66Z"/><path d="M110.88,152a4.52,4.52,0,0,1,.87-1.55,4.15,4.15,0,0,1,1.37-1,4.29,4.29,0,0,1,1.82-.37,4.35,4.35,0,0,1,1.84.37,4.19,4.19,0,0,1,1.38,1A4.67,4.67,0,0,1,119,152a6,6,0,0,1,.3,1.93v.2a5.94,5.94,0,0,1-.3,1.92,4.67,4.67,0,0,1-.86,1.55,4,4,0,0,1-1.38,1A4.26,4.26,0,0,1,115,159a4.31,4.31,0,0,1-1.83-.38,3.94,3.94,0,0,1-1.38-1,4.52,4.52,0,0,1-.87-1.55,5.94,5.94,0,0,1-.3-1.92V154A6,6,0,0,1,110.88,152Zm1.51,3.48a3.35,3.35,0,0,0,.52,1.13,2.35,2.35,0,0,0,2,1.06,2.41,2.41,0,0,0,1.19-.28,2.53,2.53,0,0,0,.85-.78,3.34,3.34,0,0,0,.51-1.13,5.43,5.43,0,0,0,.17-1.35V154a5.29,5.29,0,0,0-.17-1.34,4,4,0,0,0-.51-1.14,2.91,2.91,0,0,0-.86-.78,2.69,2.69,0,0,0-2.39,0,2.61,2.61,0,0,0-.84.78,3.5,3.5,0,0,0-.52,1.14,5.29,5.29,0,0,0-.17,1.34v.2A5.43,5.43,0,0,0,112.39,155.5Z"/><path d="M129.21,149.12a2.9,2.9,0,0,1,.74.17l-.22,1.61a6.72,6.72,0,0,0-.91-.16,8.76,8.76,0,0,0-.91-.05,3.73,3.73,0,0,0-1.09.15,2.44,2.44,0,0,0-.85.43,2.38,2.38,0,0,0-.57.61,3.35,3.35,0,0,0-.41.8v6.17h-1.65v-9.62h1.56l.07,1.29v.24a4.42,4.42,0,0,1,1.41-1.25,3.83,3.83,0,0,1,1.87-.45A7.94,7.94,0,0,1,129.21,149.12Z"/><path d="M148.94,147.94v10.91h-2.51V147.94H142.5v-2h10.43v2Z"/><path d="M157.31,150.05a3.1,3.1,0,0,1,1.32-.84,3.19,3.19,0,0,1,1-.15,4.14,4.14,0,0,1,1.39.22,2.72,2.72,0,0,1,1.08.71,3.35,3.35,0,0,1,.71,1.23A5.65,5.65,0,0,1,163,153v5.82h-2.47V153a2.65,2.65,0,0,0-.13-.89,1.39,1.39,0,0,0-.37-.6,1.52,1.52,0,0,0-.57-.35,2.6,2.6,0,0,0-.77-.11,2.37,2.37,0,0,0-.61.07,2.13,2.13,0,0,0-.52.18,1.7,1.7,0,0,0-.38.26,2.08,2.08,0,0,0-.32.34v6.94h-2.47V145.2h2.47v5.36A3.52,3.52,0,0,1,157.31,150.05Z"/><path d="M168,158.66a4.73,4.73,0,0,1-1.56-1,4.45,4.45,0,0,1-1-1.48,4.74,4.74,0,0,1-.35-1.81V154a5.66,5.66,0,0,1,.35-2,4.57,4.57,0,0,1,1-1.57,4.22,4.22,0,0,1,1.47-1,4.74,4.74,0,0,1,1.86-.36,4.69,4.69,0,0,1,1.85.34,4,4,0,0,1,1.38,1,4.27,4.27,0,0,1,.86,1.5,6.2,6.2,0,0,1,.29,1.93v1.05H167.6v0a3.46,3.46,0,0,0,.32.93,2.41,2.41,0,0,0,1.3,1.08,2.63,2.63,0,0,0,.95.16,3.84,3.84,0,0,0,1.41-.27,2.59,2.59,0,0,0,1.11-.83l1.23,1.34a4.16,4.16,0,0,1-1.49,1.2A5.07,5.07,0,0,1,170,159,5.38,5.38,0,0,1,168,158.66Zm1-7.46a2,2,0,0,0-.61.42,2.81,2.81,0,0,0-.44.66,3.68,3.68,0,0,0-.27.85h4.06v-.19a1.85,1.85,0,0,0-.15-.74,1.73,1.73,0,0,0-.39-.6,1.75,1.75,0,0,0-.61-.4,2.12,2.12,0,0,0-.83-.15A1.87,1.87,0,0,0,169,151.2Z"/><path d="M195.13,145.91v2h-2.52v8.91h2.52v2h-7.48v-2h2.46v-8.91h-2.46v-2Z"/><path d="M198.11,149.23h2.24l.15,1.34a3.94,3.94,0,0,1,.41-.49,3.55,3.55,0,0,1,.47-.4,3.23,3.23,0,0,1,.93-.46,3.49,3.49,0,0,1,1.08-.16,4,4,0,0,1,1.33.21,2.78,2.78,0,0,1,1.05.67,3.3,3.3,0,0,1,.68,1.21,5.76,5.76,0,0,1,.24,1.78v5.92h-2.47V153a3.07,3.07,0,0,0-.12-.94,1.35,1.35,0,0,0-.37-.58,1.24,1.24,0,0,0-.58-.3,3,3,0,0,0-.77-.09,2.69,2.69,0,0,0-.65.08,2.14,2.14,0,0,0-.53.24,1.75,1.75,0,0,0-.33.28,1.87,1.87,0,0,0-.28.35v6.84h-2.48Z"/><path d="M213.56,149.23h3.59v1.82h-3.59v4.14a2.68,2.68,0,0,0,.12.87,1.31,1.31,0,0,0,.35.56,1.21,1.21,0,0,0,.53.3,2.6,2.6,0,0,0,.71.09l.58,0,.57-.07.51-.08.4-.09.24,1.7a2.78,2.78,0,0,1-.6.26,4.21,4.21,0,0,1-.74.18,6.88,6.88,0,0,1-.81.11,7.94,7.94,0,0,1-.83,0,4.64,4.64,0,0,1-1.44-.21,2.66,2.66,0,0,1-1.1-.65,3,3,0,0,1-.71-1.11,4.94,4.94,0,0,1-.25-1.63v-4.38H208.9v-1.82h2.19v-2.35h2.47Z"/><path d="M222.6,158.66a4.83,4.83,0,0,1-1.56-1,4.45,4.45,0,0,1-1-1.48,4.74,4.74,0,0,1-.35-1.81V154a5.66,5.66,0,0,1,.35-2,4.57,4.57,0,0,1,1-1.57,4.32,4.32,0,0,1,1.47-1,4.74,4.74,0,0,1,1.86-.36,4.69,4.69,0,0,1,1.85.34,3.93,3.93,0,0,1,1.39,1,4.41,4.41,0,0,1,.85,1.5,6.2,6.2,0,0,1,.29,1.93v1.05H222.2v0a3.46,3.46,0,0,0,.32.93,2.57,2.57,0,0,0,.52.63,2.34,2.34,0,0,0,.78.45,2.63,2.63,0,0,0,1,.16,3.84,3.84,0,0,0,1.41-.27,2.59,2.59,0,0,0,1.11-.83l1.24,1.34a4.3,4.3,0,0,1-1.5,1.2,5.07,5.07,0,0,1-2.41.55A5.42,5.42,0,0,1,222.6,158.66Zm1-7.46a1.81,1.81,0,0,0-.6.42,2.57,2.57,0,0,0-.45.66,3.68,3.68,0,0,0-.27.85h4.06v-.19a1.85,1.85,0,0,0-.15-.74,1.73,1.73,0,0,0-.39-.6,1.75,1.75,0,0,0-.61-.4,2.12,2.12,0,0,0-.83-.15A1.87,1.87,0,0,0,223.56,151.2Z"/><path d="M238.81,149.13a5.41,5.41,0,0,1,.77.17l-.36,2.46a7.86,7.86,0,0,0-2-.23,3.81,3.81,0,0,0-.86.08,2.67,2.67,0,0,0-.69.25,2.17,2.17,0,0,0-.62.5,2.64,2.64,0,0,0-.43.71v5.78h-2.47v-9.62h2.3l.1,1.36,0,.22a4.39,4.39,0,0,1,1.4-1.29,3.56,3.56,0,0,1,1.79-.46A6.58,6.58,0,0,1,238.81,149.13Z"/><path d="M241.79,149.23H244l.15,1.34a3.94,3.94,0,0,1,.41-.49,4.33,4.33,0,0,1,.47-.4,3.29,3.29,0,0,1,.94-.46,3.38,3.38,0,0,1,1.07-.16,4,4,0,0,1,1.33.21,2.63,2.63,0,0,1,1,.67,3.3,3.3,0,0,1,.68,1.21,5.74,5.74,0,0,1,.25,1.78v5.92h-2.47V153a3,3,0,0,0-.13-.94,1.35,1.35,0,0,0-.37-.58,1.2,1.2,0,0,0-.58-.3,2.93,2.93,0,0,0-.76-.09,2.71,2.71,0,0,0-.66.08,2.14,2.14,0,0,0-.53.24,1.75,1.75,0,0,0-.33.28,2.39,2.39,0,0,0-.28.35v6.84h-2.48Z"/><path d="M255.36,158.66a4.68,4.68,0,0,1-1.55-1,4.17,4.17,0,0,1-1-1.48,4.56,4.56,0,0,1-.35-1.81V154a5.65,5.65,0,0,1,.34-2,4.73,4.73,0,0,1,1-1.57,4.36,4.36,0,0,1,1.48-1,4.66,4.66,0,0,1,1.85-.36,4.75,4.75,0,0,1,1.86.34,4,4,0,0,1,1.38,1,4.25,4.25,0,0,1,.85,1.5,5.92,5.92,0,0,1,.29,1.93v1.05H255v0a3.46,3.46,0,0,0,.32.93,2.4,2.4,0,0,0,.53.63,2.2,2.2,0,0,0,.77.45,2.67,2.67,0,0,0,.95.16,3.76,3.76,0,0,0,1.41-.27,2.59,2.59,0,0,0,1.11-.83l1.24,1.34a4.25,4.25,0,0,1-1.49,1.2,5.14,5.14,0,0,1-2.42.55A5.46,5.46,0,0,1,255.36,158.66Zm1-7.46a1.81,1.81,0,0,0-.6.42,2.57,2.57,0,0,0-.45.66,3.67,3.67,0,0,0-.26.85h4.05v-.19a2,2,0,0,0-.14-.74,2.07,2.07,0,0,0-.39-.6,1.85,1.85,0,0,0-.61-.4,2.16,2.16,0,0,0-.83-.15A1.92,1.92,0,0,0,256.32,151.2Z"/><path d="M268.16,149.23h3.59v1.82h-3.59v4.14a2.66,2.66,0,0,0,.13.87,1.3,1.3,0,0,0,.34.56,1.33,1.33,0,0,0,.53.3,2.6,2.6,0,0,0,.71.09l.58,0,.58-.07.5-.08.4-.09.24,1.7a2.78,2.78,0,0,1-.6.26,4.21,4.21,0,0,1-.74.18,6.88,6.88,0,0,1-.81.11,7.81,7.81,0,0,1-.83,0,4.64,4.64,0,0,1-1.44-.21,2.56,2.56,0,0,1-1.09-.65,2.89,2.89,0,0,1-.72-1.11,5,5,0,0,1-.24-1.63v-4.38h-2.2v-1.82h2.2v-2.35h2.46Z"/><path d="M285.44,152a4.4,4.4,0,0,1,.89-1.55,3.91,3.91,0,0,1,1.42-1,4.63,4.63,0,0,1,1.92-.37,4.75,4.75,0,0,1,1.93.37,4.13,4.13,0,0,1,1.43,1,4.54,4.54,0,0,1,.88,1.55,6.07,6.07,0,0,1,.3,1.94v.19a6.13,6.13,0,0,1-.3,2,4.63,4.63,0,0,1-.88,1.55,3.94,3.94,0,0,1-1.42,1,5.22,5.22,0,0,1-3.86,0,3.86,3.86,0,0,1-1.42-1,4.49,4.49,0,0,1-.89-1.55,6.13,6.13,0,0,1-.3-2V154A6.07,6.07,0,0,1,285.44,152Zm2.28,3.26a2.82,2.82,0,0,0,.37.92,1.76,1.76,0,0,0,.64.63,1.82,1.82,0,0,0,1,.23,1.74,1.74,0,0,0,.93-.23,1.84,1.84,0,0,0,.64-.63,2.8,2.8,0,0,0,.35-.92,5.09,5.09,0,0,0,.12-1.13V154a5,5,0,0,0-.12-1.11,2.8,2.8,0,0,0-.35-.92,1.84,1.84,0,0,0-.64-.63,1.79,1.79,0,0,0-.95-.24,1.79,1.79,0,0,0-1.58.87,2.82,2.82,0,0,0-.37.92,5.65,5.65,0,0,0-.11,1.11v.19A5.78,5.78,0,0,0,287.72,155.27Z"/><path d="M298.79,151.05h-2.53v-1.82h2.53v-.52a4.38,4.38,0,0,1,.3-1.68,3.37,3.37,0,0,1,.86-1.23,3.74,3.74,0,0,1,1.36-.75,5.85,5.85,0,0,1,1.78-.25l.61,0,.56.06.55.08.59.1-.16,1.93c-.23,0-.48-.09-.77-.12a7.4,7.4,0,0,0-1-.05,3.28,3.28,0,0,0-1.06.14,1.5,1.5,0,0,0-.69.42,1.28,1.28,0,0,0-.34.56,2.3,2.3,0,0,0-.12.77v.52h3.47v1.82h-3.47v7.8h-2.47Z"/><path d="M320.81,153.49v5.36h-2.5V145.91h8.74v2h-6.24v3.52h5.55v2Z"/><path d="M337.1,149.13a5.56,5.56,0,0,1,.76.17l-.36,2.46a7.85,7.85,0,0,0-2-.23,3.9,3.9,0,0,0-.87.08,2.67,2.67,0,0,0-.69.25,2.17,2.17,0,0,0-.62.5,2.92,2.92,0,0,0-.43.71v5.78h-2.47v-9.62h2.3l.1,1.36,0,.22a4.39,4.39,0,0,1,1.4-1.29,3.56,3.56,0,0,1,1.79-.46A6.8,6.8,0,0,1,337.1,149.13Z"/><path d="M346.21,157.5a3.84,3.84,0,0,1-1.18,1.13,2.92,2.92,0,0,1-1.51.4,3.74,3.74,0,0,1-1.36-.23,2.63,2.63,0,0,1-1.07-.73,3.41,3.41,0,0,1-.69-1.28,6.39,6.39,0,0,1-.24-1.87v-5.69h2.47v5.71a5.3,5.3,0,0,0,.08,1,1.65,1.65,0,0,0,.27.64,1,1,0,0,0,.49.36,2.26,2.26,0,0,0,.74.11,2.93,2.93,0,0,0,.7-.08,1.79,1.79,0,0,0,.56-.24,1.34,1.34,0,0,0,.36-.31,2.36,2.36,0,0,0,.28-.42v-6.75h2.48v9.62h-2.24Z"/><path d="M356.89,149.23v7.61h2.6v2h-7.84v-2h2.74v-5.59h-2.74v-2Zm-2.57-3a1.19,1.19,0,0,1,.28-.42,1.68,1.68,0,0,1,.45-.27,1.83,1.83,0,0,1,.59-.09,1.44,1.44,0,0,1,1,.37,1.23,1.23,0,0,1,.39.94,1.25,1.25,0,0,1-.39.95,1.48,1.48,0,0,1-1,.37,1.82,1.82,0,0,1-.59-.1,1.48,1.48,0,0,1-.45-.28,1.07,1.07,0,0,1-.28-.41,1.32,1.32,0,0,1-.11-.53A1.36,1.36,0,0,1,354.32,146.24Z"/><path d="M366.45,149.23H370v1.82h-3.59v4.14a2.68,2.68,0,0,0,.12.87,1.24,1.24,0,0,0,.88.86,2.55,2.55,0,0,0,.71.09l.58,0,.57-.07.5-.08.41-.09.24,1.7a2.87,2.87,0,0,1-.61.26,4.1,4.1,0,0,1-.73.18,7.35,7.35,0,0,1-.82.11,7.81,7.81,0,0,1-.83,0,4.57,4.57,0,0,1-1.43-.21,2.6,2.6,0,0,1-1.1-.65,2.76,2.76,0,0,1-.71-1.11,4.69,4.69,0,0,1-.25-1.63v-4.38h-2.2v-1.82H364v-2.35h2.47Z"/><path d="M378.94,155.82a1,1,0,0,0-.36-.32,3.2,3.2,0,0,0-.7-.27c-.29-.08-.66-.16-1.11-.25a10.42,10.42,0,0,1-1.54-.42,4.6,4.6,0,0,1-1.19-.62,2.75,2.75,0,0,1-.78-.82A2.08,2.08,0,0,1,373,152a2.39,2.39,0,0,1,.28-1.13,3,3,0,0,1,.82-1,4.27,4.27,0,0,1,1.3-.64,5.72,5.72,0,0,1,1.72-.24,6.36,6.36,0,0,1,1.81.23,4.4,4.4,0,0,1,1.36.65,2.91,2.91,0,0,1,.84,1,2.6,2.6,0,0,1,.29,1.24h-2.47a1.12,1.12,0,0,0-.08-.45,1,1,0,0,0-.24-.38,1.52,1.52,0,0,0-.6-.36,3,3,0,0,0-.91-.13,3.12,3.12,0,0,0-.79.09,1.56,1.56,0,0,0-.55.25,1,1,0,0,0-.3.33,1,1,0,0,0-.1.41.86.86,0,0,0,.09.39.91.91,0,0,0,.32.33,2.35,2.35,0,0,0,.61.27,7.14,7.14,0,0,0,1,.21,12.09,12.09,0,0,1,1.62.36,5.21,5.21,0,0,1,1.28.57,2.58,2.58,0,0,1,.85.86,2.18,2.18,0,0,1,.31,1.19,2.29,2.29,0,0,1-.31,1.18,2.81,2.81,0,0,1-.86.93,4.66,4.66,0,0,1-1.37.61,7.09,7.09,0,0,1-1.79.21,5.86,5.86,0,0,1-1.91-.28,4.27,4.27,0,0,1-1.39-.75,3,3,0,0,1-.85-1,2.66,2.66,0,0,1-.29-1.17H375a1.33,1.33,0,0,0,.22.67,1.3,1.3,0,0,0,.48.45,2.23,2.23,0,0,0,.67.26,3.94,3.94,0,0,0,.77.08,3.43,3.43,0,0,0,.84-.09,2,2,0,0,0,.6-.22,1.29,1.29,0,0,0,.33-.33.84.84,0,0,0,.11-.41A.71.71,0,0,0,378.94,155.82Z"/><path d="M387.23,156.88a1.46,1.46,0,0,1,1.94,0,1.33,1.33,0,0,1,0,1.78,1.28,1.28,0,0,1-1,.36,1.21,1.21,0,0,1-1-.36,1.27,1.27,0,0,1-.33-.88A1.36,1.36,0,0,1,387.23,156.88Z"/><path d="M26.07,178.78l-.71,3.65H24.09l.71-3.65H22.67v-1.21H25l.61-3.15H23.35v-1.23h2.53l.73-3.7h1.27l-.73,3.7H29.5l.73-3.7H31.5l-.73,3.7h1.82v1.23H30.53l-.61,3.15h2v1.21H29.69L29,182.43H27.7l.71-3.65Zm2.58-1.21.61-3.15H26.91l-.61,3.15Z"/><path d="M34.56,175.56a4.61,4.61,0,0,1,.78-1.55,3.39,3.39,0,0,1,2.8-1.37,3.68,3.68,0,0,1,1.5.28,3.4,3.4,0,0,1,1.12.84v-5H42.4v13.65H40.89l-.07-1a3,3,0,0,1-1.15.89,3.73,3.73,0,0,1-1.55.31,3.32,3.32,0,0,1-1.58-.38,3.59,3.59,0,0,1-1.2-1,4.91,4.91,0,0,1-.78-1.55,6.6,6.6,0,0,1-.27-1.92v-.19A6.87,6.87,0,0,1,34.56,175.56Zm1.52,3.5a3.48,3.48,0,0,0,.47,1.11,2.42,2.42,0,0,0,.8.76,2.66,2.66,0,0,0,2.54-.09,2.68,2.68,0,0,0,.87-1v-4.46a2.77,2.77,0,0,0-.87-1,2.57,2.57,0,0,0-2.53-.09,2.27,2.27,0,0,0-.81.76,3.53,3.53,0,0,0-.47,1.12,5.85,5.85,0,0,0-.15,1.34v.19A5.77,5.77,0,0,0,36.08,179.06Z"/><path d="M45.36,175.6a4.52,4.52,0,0,1,.87-1.55,4.05,4.05,0,0,1,1.37-1,4.29,4.29,0,0,1,1.82-.37,4.38,4.38,0,0,1,1.84.37,4.19,4.19,0,0,1,1.38,1,4.67,4.67,0,0,1,.86,1.55,6,6,0,0,1,.3,1.93v.2a5.94,5.94,0,0,1-.3,1.92,4.67,4.67,0,0,1-.86,1.55,4,4,0,0,1-1.38,1,4.29,4.29,0,0,1-1.82.38,4.39,4.39,0,0,1-1.84-.38,3.9,3.9,0,0,1-1.37-1,4.52,4.52,0,0,1-.87-1.55,5.94,5.94,0,0,1-.3-1.92v-.2A6,6,0,0,1,45.36,175.6Zm1.51,3.48a3.17,3.17,0,0,0,.52,1.13,2.35,2.35,0,0,0,2,1.06,2.37,2.37,0,0,0,1.18-.28,2.56,2.56,0,0,0,.86-.78,3.34,3.34,0,0,0,.51-1.13,5.43,5.43,0,0,0,.17-1.35v-.2a4.87,4.87,0,0,0-.18-1.34,3.48,3.48,0,0,0-.51-1.14,2.61,2.61,0,0,0-.85-.77,2.32,2.32,0,0,0-1.2-.29,2.28,2.28,0,0,0-1.19.29,2.48,2.48,0,0,0-.84.77,3.3,3.3,0,0,0-.52,1.14,5.29,5.29,0,0,0-.17,1.34v.2A5.43,5.43,0,0,0,46.87,179.08Z"/><path d="M55.32,172.81h1.46l1.12,6.13.19,1.38.24-1.38,1.54-6.13h1.06l1.53,6.13.25,1.51.24-1.51L64,172.81h1.46l-2.05,9.62H62.14l-1.51-5.89-.25-1.5-.24,1.5-1.48,5.89h-1.3Z"/><path d="M67.36,172.81h1.48l.11,1.43a3.67,3.67,0,0,1,.47-.56,3.16,3.16,0,0,1,.54-.44,3.39,3.39,0,0,1,.92-.44,3.74,3.74,0,0,1,1.07-.16,4.24,4.24,0,0,1,1.37.21,2.53,2.53,0,0,1,1.05.67,3,3,0,0,1,.67,1.15,5,5,0,0,1,.24,1.65v6.11H73.63v-6.07a3.48,3.48,0,0,0-.14-1.09,1.72,1.72,0,0,0-.42-.72,1.78,1.78,0,0,0-.68-.4,3.28,3.28,0,0,0-.93-.12,2.57,2.57,0,0,0-.85.13,2.53,2.53,0,0,0-1.21.8,3.88,3.88,0,0,0-.4.57v6.9H67.36Z"/><path d="M83.45,168.78V181h3.14v1.42h-8V181h3.27v-10.8H78.54v-1.43Z"/><path d="M89,175.6a4.52,4.52,0,0,1,.87-1.55,4.15,4.15,0,0,1,1.37-1,4.29,4.29,0,0,1,1.82-.37,4.38,4.38,0,0,1,1.84.37,4.19,4.19,0,0,1,1.38,1,4.67,4.67,0,0,1,.86,1.55,6,6,0,0,1,.3,1.93v.2a5.94,5.94,0,0,1-.3,1.92,4.67,4.67,0,0,1-.86,1.55,4,4,0,0,1-1.38,1,4.57,4.57,0,0,1-3.65,0,3.94,3.94,0,0,1-1.38-1,4.52,4.52,0,0,1-.87-1.55,5.94,5.94,0,0,1-.3-1.92v-.2A6,6,0,0,1,89,175.6Zm1.51,3.48a3.35,3.35,0,0,0,.52,1.13,2.35,2.35,0,0,0,2.05,1.06,2.41,2.41,0,0,0,1.19-.28,2.53,2.53,0,0,0,.85-.78,3.34,3.34,0,0,0,.51-1.13,5.43,5.43,0,0,0,.17-1.35v-.2a5.29,5.29,0,0,0-.17-1.34,3.72,3.72,0,0,0-.52-1.14,2.61,2.61,0,0,0-.85-.77,2.61,2.61,0,0,0-2.39,0,2.48,2.48,0,0,0-.84.77,3.5,3.5,0,0,0-.52,1.14,5.29,5.29,0,0,0-.17,1.34v.2A5.43,5.43,0,0,0,90.55,179.08Z"/><path d="M106.28,182c0-.19-.06-.38-.08-.58a5.34,5.34,0,0,1-.56.47,3.36,3.36,0,0,1-.67.39,4.89,4.89,0,0,1-.79.27,4.18,4.18,0,0,1-.89.1,4,4,0,0,1-1.38-.23,3,3,0,0,1-1-.6,2.52,2.52,0,0,1-.67-.89,2.7,2.7,0,0,1-.24-1.13,2.9,2.9,0,0,1,.32-1.38,2.75,2.75,0,0,1,.89-1,4.2,4.2,0,0,1,1.39-.59,7.83,7.83,0,0,1,1.82-.19h1.79v-.76a1.78,1.78,0,0,0-.16-.78,1.63,1.63,0,0,0-.45-.59,2.24,2.24,0,0,0-.72-.38,3.05,3.05,0,0,0-.94-.13,3,3,0,0,0-.88.12,2.47,2.47,0,0,0-.65.33,1.36,1.36,0,0,0-.41.49,1.19,1.19,0,0,0-.15.58h-1.65a2.17,2.17,0,0,1,.27-1,3,3,0,0,1,.76-.92,4.08,4.08,0,0,1,1.19-.65,5,5,0,0,1,1.61-.24,5.32,5.32,0,0,1,1.52.2,3.43,3.43,0,0,1,1.21.6,2.83,2.83,0,0,1,.8,1,3.12,3.12,0,0,1,.3,1.41v4.47a6.22,6.22,0,0,0,.09,1,4.18,4.18,0,0,0,.24.93v.15h-1.71A1.72,1.72,0,0,1,106.28,182Zm-1.85-.91a3.31,3.31,0,0,0,.77-.33,2.44,2.44,0,0,0,.58-.47,1.94,1.94,0,0,0,.39-.54v-2h-1.53a6.49,6.49,0,0,0-1.48.15,2.49,2.49,0,0,0-1,.45,1.39,1.39,0,0,0-.41.5,1.6,1.6,0,0,0-.13.67,1.76,1.76,0,0,0,.12.66,1.2,1.2,0,0,0,.35.51,1.74,1.74,0,0,0,.61.35,2.66,2.66,0,0,0,.84.12A3.26,3.26,0,0,0,104.43,181.05Z"/><path d="M111,175.56a4.61,4.61,0,0,1,.78-1.55,3.42,3.42,0,0,1,2.8-1.37,3.65,3.65,0,0,1,1.5.28,3.3,3.3,0,0,1,1.12.84v-5h1.64v13.65h-1.51l-.07-1a3.05,3.05,0,0,1-1.14.89,3.81,3.81,0,0,1-1.56.31,3.35,3.35,0,0,1-1.58-.38,3.59,3.59,0,0,1-1.2-1,4.89,4.89,0,0,1-.77-1.55,6.28,6.28,0,0,1-.28-1.92v-.19A6.87,6.87,0,0,1,111,175.56Zm1.53,3.5a3.27,3.27,0,0,0,.47,1.11,2.22,2.22,0,0,0,2,1,2.35,2.35,0,0,0,1.37-.37,2.65,2.65,0,0,0,.86-1v-4.46a2.74,2.74,0,0,0-.86-1A2.31,2.31,0,0,0,115,174a2.36,2.36,0,0,0-1.19.29,2.16,2.16,0,0,0-.8.76,3.32,3.32,0,0,0-.47,1.12,5.35,5.35,0,0,0-.16,1.34v.19A5.27,5.27,0,0,0,112.53,179.06Z"/><path d="M124.24,182.43h-2.5V169.49h4.42a5.52,5.52,0,0,1,1.92.31,4.18,4.18,0,0,1,1.45.85,3.58,3.58,0,0,1,.92,1.31,4.26,4.26,0,0,1,.33,1.7,3.93,3.93,0,0,1-.33,1.61,3.61,3.61,0,0,1-.92,1.27,4.32,4.32,0,0,1-1.45.84,5.77,5.77,0,0,1-1.92.3h-1.92Zm1.92-6.77a2.58,2.58,0,0,0,.93-.16,2.06,2.06,0,0,0,.66-.44,1.69,1.69,0,0,0,.38-.63,2.11,2.11,0,0,0,.13-.75,2.57,2.57,0,0,0-.13-.85,1.82,1.82,0,0,0-.38-.68,2,2,0,0,0-.66-.47,2.38,2.38,0,0,0-.93-.16h-1.92v4.14Z"/><path d="M138.72,181.08a3.84,3.84,0,0,1-1.18,1.13,2.91,2.91,0,0,1-1.5.4,3.75,3.75,0,0,1-1.37-.23,2.63,2.63,0,0,1-1.07-.73,3.72,3.72,0,0,1-.69-1.28,6.39,6.39,0,0,1-.24-1.87v-5.69h2.47v5.71a5.3,5.3,0,0,0,.08,1,1.51,1.51,0,0,0,.28.64,1,1,0,0,0,.48.36,2.31,2.31,0,0,0,.74.11,3.08,3.08,0,0,0,.71-.08,1.83,1.83,0,0,0,.55-.24,1.56,1.56,0,0,0,.37-.31,2.31,2.31,0,0,0,.27-.42v-6.75h2.48v9.62h-2.24Z"/><path d="M149.4,168.78v11.64h2.76v2H144v-2h2.87V170.8H144v-2Z"/><path d="M154.47,172.81h2.28l.09.95a3.51,3.51,0,0,1,.42-.44,4.32,4.32,0,0,1,.5-.33,3.15,3.15,0,0,1,.71-.26,3.64,3.64,0,0,1,.83-.09,3.51,3.51,0,0,1,1.62.35,3.3,3.3,0,0,1,1.18,1,4.53,4.53,0,0,1,.72,1.55,7.28,7.28,0,0,1,.25,2v.19a7,7,0,0,1-.25,1.94,4.71,4.71,0,0,1-.71,1.55,3.52,3.52,0,0,1-1.18,1,3.39,3.39,0,0,1-1.61.38,3.56,3.56,0,0,1-.89-.11,2.72,2.72,0,0,1-.75-.29l-.39-.28a2.79,2.79,0,0,1-.35-.34v4.53h-2.47Zm6,3.58a3,3,0,0,0-.35-.92,1.81,1.81,0,0,0-.6-.6,1.72,1.72,0,0,0-.9-.23,2.38,2.38,0,0,0-.55.06,1.61,1.61,0,0,0-.45.17,1.39,1.39,0,0,0-.41.31,1.91,1.91,0,0,0-.29.43v4a1.92,1.92,0,0,0,.28.42,1.89,1.89,0,0,0,.37.32,2.2,2.2,0,0,0,.47.19,2.77,2.77,0,0,0,.6.06,1.57,1.57,0,0,0,.89-.23,1.65,1.65,0,0,0,.6-.63,2.85,2.85,0,0,0,.34-.93,5.67,5.67,0,0,0,.11-1.12v-.19A5.78,5.78,0,0,0,160.49,176.39Z"/></g></svg>